<svg width="468" height="745" xmlns="http://www.w3.org/2000/svg" xmlns:svg="http://www.w3.org/2000/svg" preserveAspectRatio="xMidYMid meet">
 <title>conlang flag background</title>

 <metadata id="metadata65843">Created by potrace 1.7, written by Peter Selinger 2001-2005image/svg+xml</metadata>
 <g>
  <title>Layer 1</title>
  <rect id="svg_1" height="745" width="468" y="0" x="-0.000001" stroke-linecap="null" stroke-linejoin="null" stroke-dasharray="null" stroke-width="null" fill="#91008c">
     <animate attributeName="fill" values="#28004c;#91008c" dur="5s" repeatCount="0" />
  </rect>
  <rect fill="#ffb700" stroke-width="0.1" stroke-miterlimit="4" y="455.664001" x="0.00049" height="289.336" width="468" id="rect65866">
     <animate attributeType="CSS" attributeName="opacity" from="0" to="1" dur="5s" repeatCount="0" />
     <animateTransform attributeName="transform" type="scale" from="1 1.375" to="1 1" begin="0s" dur="5s" repeatCount="0"/>
  </rect>
  <path fill="#91008c" d="m0.00001,675.795105l0.86799,-0.361633c5.13567,-1.880737 27.848339,-8.969482 36.383678,-11.356445c21.62767,-5.85907 63.508705,-14.17749 82.821701,-16.347534c2.387009,-0.289307 4.484673,-0.723328 4.629349,-0.940308c0.216995,-0.289307 -0.434021,-3.110352 -1.374352,-6.365417c-5.208,-18.011169 -5.208,-39.711365 0.072334,-57.939514c8.101334,-27.993286 29.078003,-52.442139 57.071014,-66.474976c8.101334,-4.123016 22.929688,-9.041718 32.550018,-10.77774l7.233322,-1.374359c0,0 11.146927,-1.053772 14.105011,-1.053772c2.739807,0 14.104996,1.053772 14.104996,1.053772l7.233353,1.374359c23.580658,4.340057 46.003998,15.913483 62.062012,31.899323c7.595001,7.595032 11.067017,11.862732 16.636688,20.759827c15.334656,24.52124 19.819336,56.203552 11.717987,83.979797c-0.940308,3.255005 -1.360931,6.464478 -1.374329,6.437744c0.006256,0.019165 1.176727,0.38147 2.170013,0.578613c5.839355,1.15918 43.689331,7.305786 69.72934,13.454102c9.548004,2.242432 34.792358,10.199158 44.702026,14.105164c2.893341,1.157349 6.657837,2.024414 6.657837,2.097717l-0.003174,-223.512085l-467.996816,0l0,220.763367z" id="path66651">
    <animate attributeName="fill" values="#28004c;#91008c" dur="5s" repeatCount="0" />
    <animateTransform attributeName="transform" type="translate" from="0 150" to="0 0" begin="0s" dur="5s" repeatCount="0"/>
  </path>
  <g transform="matrix(1.00017, 0, 0, 1, 0.00715889, -1.60982e-14)" id="g67425">
   <path fill="#000000" id="path65849" d="m209.985596,574.436401c-0.868011,1.085022 -3.25502,7.161072 -2.965683,7.450439c0.43399,0.361633 49.114792,-3.83374 49.548782,-4.2677c0.289337,-0.217041 0.072327,-1.229675 -0.361664,-2.242371l-0.868011,-1.80835l-22.351212,0l-22.351196,0l-0.651016,0.867981z">
     <animate attributeType="CSS" attributeName="opacity" values="0;0;0;0;0;0;0;1" dur="5s" repeatCount="0" />
   </path>
   <path fill="#000000" id="path65851" d="m256.279358,580.584839c-0.289322,0.072327 -11.790436,1.012634 -25.533905,2.02533c-13.743454,1.085022 -26.54657,2.097717 -28.57193,2.387024l-3.616699,0.506348l-1.591339,3.399658c-0.868011,1.880737 -1.80835,4.195435 -2.097687,5.208069l-0.434006,1.80835l2.459351,-0.361633c1.302017,-0.217041 17.64949,-1.80835 36.311676,-3.544373c18.66217,-1.80835 34.069321,-3.327393 34.213974,-3.544373c0.144684,-0.144653 -0.506348,-2.097717 -1.519012,-4.340088l-1.80835,-4.122986l-3.616699,0.21698c-2.02536,0.144653 -3.906036,0.289307 -4.195374,0.361694z">
     <animate attributeType="CSS" attributeName="opacity" values="0;0;0;0;0;0;1;1" dur="5s" repeatCount="0" />
   </path>
   <path fill="#000000" id="path65853" d="m261.849091,591.651917c-2.965698,0.361694 -21.338547,2.097717 -40.796387,3.906067l-35.371323,3.327332l-0.795685,0.723328c-1.085007,0.868042 -5.135712,9.258789 -4.701706,9.692749c0.361664,0.361694 96.999908,-9.041748 97.578583,-9.475708c0.144653,-0.144714 -0.651031,-2.170044 -1.80835,-4.412415l-2.170044,-4.122986l-3.255005,-0.072388c-1.80835,-0.072327 -5.714417,0.144653 -8.680084,0.434021z">
     <animate attributeType="CSS" attributeName="opacity" values="0;0;0;0;0;1;1;1" dur="5s" repeatCount="0" />
   </path>
   <path fill="#000000" id="path65855" d="m246.658936,605.395386c-59.892548,5.786743 -74.938019,7.305725 -76.023026,7.667358l-1.229675,0.361694l-2.170029,5.208069c-1.229675,2.893372 -2.387009,5.786682 -2.604019,6.582397l-0.434006,1.302002l2.314682,-0.361633c1.302017,-0.217041 29.729279,-3.110413 63.147583,-6.365417c33.41832,-3.327393 60.832901,-6.07605 60.977554,-6.148376c0.144684,-0.072388 -1.012665,-2.604065 -2.531677,-5.64209l-2.676361,-5.497375l-5.135712,0.072327c-2.748688,0.072327 -17.938843,1.302002 -33.635315,2.821045z">
     <animate attributeType="CSS" attributeName="opacity" values="0;0;0;0;1;1;1;1" dur="5s" repeatCount="0" />
   </path>
   <path fill="#000000" id="path65857" d="m289.335999,615.956177c-10.705414,1.446655 -129.622528,13.309448 -133.022232,13.309448l-2.748688,0l-2.893356,6.29303l-2.893356,6.365417l1.229675,0.21698c0.723343,0.144653 8.246078,-0.434021 16.709152,-1.229675c35.949997,-3.472046 129.405518,-12.441467 133.962555,-12.875488c2.676361,-0.21698 4.991058,-0.651001 5.135742,-0.867981c0.361664,-0.578674 -3.327393,-9.765076 -4.557068,-11.211731c-1.084991,-1.302063 -0.723328,-1.302063 -10.922424,0z">
     <animate attributeType="CSS" attributeName="opacity" values="0;0;0;1;1;1;1;1" dur="5s" repeatCount="0" />
   </path>
   <path fill="#000000" id="path65859" d="m298.016083,630.784607c-3.399689,0.434021 -21.627869,2.170044 -40.50705,3.978394c-73.34668,6.944031 -122.461456,11.790466 -122.606125,12.079773c-2.097687,4.195374 -6.076065,13.815796 -5.786713,14.105103c0.43399,0.434021 189.876755,-15.551819 190.455429,-16.058105c0.21698,-0.217041 -1.085022,-3.616699 -2.893372,-7.450439l-3.255035,-7.088745l-4.629364,-0.072327c-2.531708,-0.072327 -7.378082,0.144714 -10.777771,0.506348z">
     <animate attributeType="CSS" attributeName="opacity" values="0;0;1;1;1;1;1;1" dur="5s" repeatCount="0" />
   </path>
   <path fill="#000000" id="path65861" d="m323.332977,647.13208c-2.170013,0.144653 -43.979065,3.689087 -92.949188,7.812073c-48.897781,4.123047 -94.034195,7.88446 -100.182587,8.31842c-38.843361,2.821045 -91.647182,12.947815 -123.691143,23.725586l-6.51721,2.097656l0.00715,55.914185l468.000977,0l-0.026367,-53.020813l-10.82373,-3.544373c-29.584595,-9.90979 -65.24527,-17.721802 -103.148285,-22.712891l-15.262482,-2.02533l-2.748688,-7.522766c-1.519012,-4.123047 -3.255035,-7.956726 -3.761353,-8.5354l-1.012695,-1.012695l-1.953003,0.144714c-1.085022,0.072327 -3.761383,0.21698 -5.931396,0.361633z">
   </path>
  </g>
  <!-- <rect id="svg_2" height="462.222226" width="468.027799" y="743.111115" x="0" stroke-linecap="null" stroke-linejoin="null" stroke-dasharray="null" stroke-width="null" fill="#000000"/> -->

  <circle cx="212" cy="520" r="1" fill="ivory">
    <animate attributeType="CSS" attributeName="opacity" from="1" to="0" begin="0s" dur="2s" repeatCount="0" fill="freeze"/>
  </circle>
  <circle cx="251" cy="285" r="1" fill="ivory"><animate attributeType="CSS" attributeName="opacity" from="1" to="0" begin="0s" dur="6.1s" repeatCount="0" fill="freeze"/></circle>
  <circle cx="45" cy="311" r="1" fill="ivory"><animate attributeType="CSS" attributeName="opacity" from="1" to="0" begin="0s" dur="6s" repeatCount="0" fill="freeze"/></circle>
  <circle cx="72" cy="325" r="1" fill="ivory"><animate attributeType="CSS" attributeName="opacity" from="1" to="0" begin="0s" dur="5.9s" repeatCount="0" fill="freeze"/></circle>
  <circle cx="25" cy="333" r="1" fill="ivory"><animate attributeType="CSS" attributeName="opacity" from="1" to="0" begin="0s" dur="5.8s" repeatCount="0" fill="freeze"/></circle>
  <circle cx="306" cy="340" r="1" fill="ivory"><animate attributeType="CSS" attributeName="opacity" from="1" to="0" begin="0s" dur="5.7s" repeatCount="0" fill="freeze"/></circle>
  <circle cx="201" cy="346" r="1" fill="ivory"><animate attributeType="CSS" attributeName="opacity" from="1" to="0" begin="0s" dur="5.6s" repeatCount="0" fill="freeze"/></circle>
  <circle cx="416" cy="356" r="1" fill="ivory"><animate attributeType="CSS" attributeName="opacity" from="1" to="0" begin="0s" dur="5.5s" repeatCount="0" fill="freeze"/></circle>
  <circle cx="23" cy="357" r="1" fill="ivory"><animate attributeType="CSS" attributeName="opacity" from="1" to="0" begin="0s" dur="5.4s" repeatCount="0" fill="freeze"/></circle>
  <circle cx="420" cy="359" r="1" fill="ivory"><animate attributeType="CSS" attributeName="opacity" from="1" to="0" begin="0s" dur="5.3s" repeatCount="0" fill="freeze"/></circle>
  <circle cx="107" cy="360" r="1" fill="ivory"><animate attributeType="CSS" attributeName="opacity" from="1" to="0" begin="0s" dur="5.2s" repeatCount="0" fill="freeze"/></circle>
  <circle cx="337" cy="364" r="1" fill="ivory"><animate attributeType="CSS" attributeName="opacity" from="1" to="0" begin="0s" dur="5.1s" repeatCount="0" fill="freeze"/></circle>
  <circle cx="56" cy="375" r="1" fill="ivory"><animate attributeType="CSS" attributeName="opacity" from="1" to="0" begin="0s" dur="5s" repeatCount="0" fill="freeze"/></circle>
  <circle cx="136" cy="377" r="1" fill="ivory"><animate attributeType="CSS" attributeName="opacity" from="1" to="0" begin="0s" dur="4.9s" repeatCount="0" fill="freeze"/></circle>
  <circle cx="147" cy="377" r="1" fill="ivory"><animate attributeType="CSS" attributeName="opacity" from="1" to="0" begin="0s" dur="4.8s" repeatCount="0" fill="freeze"/></circle>
  <circle cx="343" cy="384" r="1" fill="ivory"><animate attributeType="CSS" attributeName="opacity" from="1" to="0" begin="0s" dur="4.7s" repeatCount="0" fill="freeze"/></circle>
  <circle cx="78" cy="386" r="1" fill="ivory"><animate attributeType="CSS" attributeName="opacity" from="1" to="0" begin="0s" dur="4.6s" repeatCount="0" fill="freeze"/></circle>
  <circle cx="175" cy="391" r="1" fill="ivory"><animate attributeType="CSS" attributeName="opacity" from="1" to="0" begin="0s" dur="4.5s" repeatCount="0" fill="freeze"/></circle>
  <circle cx="161" cy="392" r="1" fill="ivory"><animate attributeType="CSS" attributeName="opacity" from="1" to="0" begin="0s" dur="4.4s" repeatCount="0" fill="freeze"/></circle>
  <circle cx="300" cy="403" r="1" fill="ivory"><animate attributeType="CSS" attributeName="opacity" from="1" to="0" begin="0s" dur="4.3s" repeatCount="0" fill="freeze"/></circle>
  <circle cx="320" cy="408" r="1" fill="ivory"><animate attributeType="CSS" attributeName="opacity" from="1" to="0" begin="0s" dur="4.2s" repeatCount="0" fill="freeze"/></circle>
  <circle cx="113" cy="413" r="1" fill="ivory"><animate attributeType="CSS" attributeName="opacity" from="1" to="0" begin="0s" dur="4.1s" repeatCount="0" fill="freeze"/></circle>
  <circle cx="348" cy="413" r="1" fill="ivory"><animate attributeType="CSS" attributeName="opacity" from="1" to="0" begin="0s" dur="4s" repeatCount="0" fill="freeze"/></circle>
  <circle cx="158" cy="423" r="1" fill="ivory"><animate attributeType="CSS" attributeName="opacity" from="1" to="0" begin="0s" dur="3.9s" repeatCount="0" fill="freeze"/></circle>
  <circle cx="150" cy="425" r="1" fill="ivory"><animate attributeType="CSS" attributeName="opacity" from="1" to="0" begin="0s" dur="3.8s" repeatCount="0" fill="freeze"/></circle>
  <circle cx="100" cy="433" r="1" fill="ivory"><animate attributeType="CSS" attributeName="opacity" from="1" to="0" begin="0s" dur="3.7s" repeatCount="0" fill="freeze"/></circle>
  <circle cx="405" cy="445" r="1" fill="ivory"><animate attributeType="CSS" attributeName="opacity" from="1" to="0" begin="0s" dur="3.6s" repeatCount="0" fill="freeze"/></circle>
  <circle cx="162" cy="450" r="1" fill="ivory"><animate attributeType="CSS" attributeName="opacity" from="1" to="0" begin="0s" dur="3.5s" repeatCount="0" fill="freeze"/></circle>
  <circle cx="328" cy="453" r="1" fill="ivory"><animate attributeType="CSS" attributeName="opacity" from="1" to="0" begin="0s" dur="3.4s" repeatCount="0" fill="freeze"/></circle>
  <circle cx="465" cy="465" r="1" fill="ivory"><animate attributeType="CSS" attributeName="opacity" from="1" to="0" begin="0s" dur="3.3s" repeatCount="0" fill="freeze"/></circle>
  <circle cx="227" cy="465" r="1" fill="ivory"><animate attributeType="CSS" attributeName="opacity" from="1" to="0" begin="0s" dur="3.2s" repeatCount="0" fill="freeze"/></circle>
  <circle cx="180" cy="470" r="1" fill="ivory"><animate attributeType="CSS" attributeName="opacity" from="1" to="0" begin="0s" dur="3.1s" repeatCount="0" fill="freeze"/></circle>
  <circle cx="330" cy="480" r="1" fill="ivory"><animate attributeType="CSS" attributeName="opacity" from="1" to="0" begin="0s" dur="3s" repeatCount="0" fill="freeze"/></circle>
  <circle cx="70" cy="480" r="1" fill="ivory"><animate attributeType="CSS" attributeName="opacity" from="1" to="0" begin="0s" dur="2.9s" repeatCount="0" fill="freeze"/></circle>
  <circle cx="390" cy="480" r="1" fill="ivory"><animate attributeType="CSS" attributeName="opacity" from="1" to="0" begin="0s" dur="2.8s" repeatCount="0" fill="freeze"/></circle>
  <circle cx="260" cy="480" r="1" fill="ivory"><animate attributeType="CSS" attributeName="opacity" from="1" to="0" begin="0s" dur="2.7s" repeatCount="0" fill="freeze"/></circle>
  <circle cx="152" cy="500" r="1" fill="ivory"><animate attributeType="CSS" attributeName="opacity" from="1" to="0" begin="0s" dur="2.6s" repeatCount="0" fill="freeze"/></circle>
  <circle cx="328" cy="513" r="1" fill="ivory"><animate attributeType="CSS" attributeName="opacity" from="1" to="0" begin="0s" dur="2.5s" repeatCount="0" fill="freeze"/></circle>
  <circle cx="121" cy="513" r="1" fill="ivory"><animate attributeType="CSS" attributeName="opacity" from="1" to="0" begin="0s" dur="2.4s" repeatCount="0" fill="freeze"/></circle>
  <circle cx="93" cy="530" r="1" fill="ivory"><animate attributeType="CSS" attributeName="opacity" from="1" to="0" begin="0s" dur="2.3s" repeatCount="0" fill="freeze"/></circle>
  <circle cx="248" cy="540" r="1" fill="ivory"><animate attributeType="CSS" attributeName="opacity" from="1" to="0" begin="0s" dur="2.2s" repeatCount="0" fill="freeze"/></circle>
  <circle cx="33" cy="541" r="1" fill="ivory"><animate attributeType="CSS" attributeName="opacity" from="1" to="0" begin="0s" dur="2.1s" repeatCount="0" fill="freeze"/></circle>
  <circle cx="230" cy="545" r="1" fill="ivory"><animate attributeType="CSS" attributeName="opacity" from="1" to="0" begin="0s" dur="2s" repeatCount="0" fill="freeze"/></circle>
  <circle cx="370" cy="550" r="1" fill="ivory"><animate attributeType="CSS" attributeName="opacity" from="1" to="0" begin="0s" dur="1.9s" repeatCount="0" fill="freeze"/></circle>
  <circle cx="410" cy="555" r="1" fill="ivory"><animate attributeType="CSS" attributeName="opacity" from="1" to="0" begin="0s" dur="1.8s" repeatCount="0" fill="freeze"/></circle>
  <circle cx="162" cy="557" r="1" fill="ivory"><animate attributeType="CSS" attributeName="opacity" from="1" to="0" begin="0s" dur="1.7s" repeatCount="0" fill="freeze"/></circle>
  <circle cx="147" cy="560" r="1" fill="ivory"><animate attributeType="CSS" attributeName="opacity" from="1" to="0" begin="0s" dur="1.6s" repeatCount="0" fill="freeze"/></circle>
  <circle cx="225" cy="570" r="1" fill="ivory"><animate attributeType="CSS" attributeName="opacity" from="1" to="0" begin="0s" dur="1.5s" repeatCount="0" fill="freeze"/></circle>
  <circle cx="224" cy="575" r="1" fill="ivory"><animate attributeType="CSS" attributeName="opacity" from="1" to="0" begin="0s" dur="1.4s" repeatCount="0" fill="freeze"/></circle>
  <circle cx="63" cy="578" r="1" fill="ivory"><animate attributeType="CSS" attributeName="opacity" from="1" to="0" begin="0s" dur="1.3s" repeatCount="0" fill="freeze"/></circle>
  <circle cx="63" cy="578" r="1" fill="ivory"><animate attributeType="CSS" attributeName="opacity" from="1" to="0" begin="0s" dur="1.2s" repeatCount="0" fill="freeze"/></circle>
  <circle cx="275" cy="610" r="1" fill="ivory"><animate attributeType="CSS" attributeName="opacity" from="1" to="0" begin="0s" dur="1.1s" repeatCount="0" fill="freeze"/></circle>
  <circle cx="195" cy="620" r="1" fill="ivory"><animate attributeType="CSS" attributeName="opacity" from="1" to="0" begin="0s" dur="1s" repeatCount="0" fill="freeze"/></circle>

  <g transform="translate(232,689)">
    <g transform="translate(0,0)">
      <g class="path" style="transform-origin: -113.142px 1.31668px 0px; transform: matrix(1, 0, 0, 1, 0, 14.925); opacity: 0.005; animation: 1s linear 4s 1 normal forwards running float-btt-in-0400d778-6374-422c-918a-784b13b96aec;">
        <path d="M15.60-10.87L15.60-10.87L15.60-10.87Q14.51-11.96 14.51-13.52L14.51-13.52L14.51-13.52Q14.51-15.08 15.60-16.20L15.60-16.20L15.60-16.20Q16.69-17.32 18.25-17.32L18.25-17.32L18.25-17.32Q18.72-17.32 19.45-17.11L19.45-17.11L19.45-17.11Q18.46-18.93 15.76-18.93L15.76-18.93L15.76-18.93Q13.05-18.93 10.97-15.50L10.97-15.50L10.97-15.50Q8.89-12.06 8.89-5.30L8.89-5.30L8.89-5.30Q8.89-2.96 9.96-1.85L9.96-1.85L9.96-1.85Q11.02-0.73 12.64-0.73L12.64-0.73L12.64-0.73Q14.25-0.73 15.57-1.35L15.57-1.35L15.57-1.35Q16.90-1.98 17.68-2.83L17.68-2.83L17.68-2.83Q18.46-3.69 19.03-4.63L19.03-4.63L19.03-4.63Q20.07-6.34 20.07-6.81L20.07-6.81L21.01-6.40L21.01-6.40Q20.85-5.56 20.07-4.19L20.07-4.19L20.07-4.19Q19.29-2.81 18.36-1.92L18.36-1.92L18.36-1.92Q17.42-1.04 15.60-0.29L15.60-0.29L15.60-0.29Q13.78 0.47 11.54 0.47L11.54 0.47L11.54 0.47Q7.33 0.47 5.17-1.53L5.17-1.53L5.17-1.53Q3.02-3.54 3.02-7.02L3.02-7.02L3.02-7.02Q3.02-13.21 6.11-16.72L6.11-16.72L6.11-16.72Q9.20-20.23 14.51-20.23L14.51-20.23L14.51-20.23Q18.10-20.23 20.02-18.41L20.02-18.41L20.02-18.41Q21.94-16.59 21.94-13.62L21.94-13.62L21.94-13.62Q21.94-11.75 20.83-10.76L20.83-10.76L20.83-10.76Q19.71-9.78 18.20-9.78L18.20-9.78L18.20-9.78Q16.69-9.78 15.60-10.87" fill="#f0f0f0" stroke="none" stroke-width="none" transform="translate(-125.625,11.196632893880215)" style="fill: rgb(240, 240, 240);"></path></g>
        <g class="path" style="transform-origin: -80.225px 1.31668px 0px; transform: matrix(1, 0, 0, 1, 0, 14.925); opacity: 0.005; animation: 1s linear 4.0733333s 1 normal forwards running float-btt-in-0400d778-6374-422c-918a-784b13b96aec;"><path d="M43.37 0.47L43.37 0.47Q39.36 0.47 37.28-1.53L37.28-1.53L37.28-1.53Q35.20-3.54 35.20-6.58L35.20-6.58L35.20-6.58Q35.20-9.62 35.75-11.78L35.75-11.78L35.75-11.78Q36.30-13.94 37.54-15.94L37.54-15.94L37.54-15.94Q38.79-17.94 41.31-19.08L41.31-19.08L41.31-19.08Q43.84-20.23 47.61-20.23L47.61-20.23L47.61-20.23Q51.38-20.23 53.48-18.23L53.48-18.23L53.48-18.23Q55.59-16.22 55.59-12.74L55.59-12.74L55.59-12.74Q55.59-6.81 52.44-3.17L52.44-3.17L52.44-3.17Q49.30 0.47 43.37 0.47L43.37 0.47zM41.08-4.89L41.08-4.89L41.08-4.89Q41.08-0.73 43.50-0.73L43.50-0.73L43.50-0.73Q45.92-0.73 47.81-4.91L47.81-4.91L47.81-4.91Q49.71-9.10 49.71-14.87L49.71-14.87L49.71-14.87Q49.71-19.24 47.35-19.24L47.35-19.24L47.35-19.24Q44.98-19.24 43.03-15.26L43.03-15.26L43.03-15.26Q41.08-11.28 41.08-4.89" fill="#f0f0f0" stroke="none" stroke-width="none" transform="translate(-125.625,11.196632893880215)" style="fill: rgb(240, 240, 240);"></path></g>
        <g class="path" style="transform-origin: -44.575px 1.31668px 0px; transform: matrix(1, 0, 0, 1, 0, 14.925); opacity: 0.005; animation: 1s linear 4.146667s 1 normal forwards running float-btt-in-0400d778-6374-422c-918a-784b13b96aec;"><path d="M89.34-0.57L89.34-0.57L89.34-0.57Q90.58-0.57 91.94-2.03L91.94-2.03L92.72-1.40L92.72-1.40Q92.35-0.68 91.10-0.10L91.10-0.10L91.10-0.10Q89.86 0.47 88.35 0.47L88.35 0.47L88.35 0.47Q83.62 0.47 83.62-3.80L83.62-3.80L83.62-3.80Q83.62-5.62 84.55-10.30L84.55-10.30L84.55-10.30Q85.49-14.98 85.49-16.43L85.49-16.43L85.49-16.43Q85.49-18.67 83.36-18.67L83.36-18.67L83.36-18.67Q81.64-18.67 80.05-16.43L80.05-16.43L80.05-16.43Q78.47-14.20 77.43-10.30L77.43-10.30L75.66-0.57L75.66-0.57Q77.27-0.73 78.31-2.03L78.31-2.03L79.09-1.40L79.09-1.40Q77.53 0.47 75.19 0.47L75.19 0.47L75.19 0.47Q72.85 0.47 71.53-0.73L71.53-0.73L71.53-0.73Q70.20-1.92 70.20-3.85L70.20-3.85L70.20-3.85Q70.20-4.58 71.03-9.57L71.03-9.57L72.75-19.19L72.75-19.19Q71.19-19.03 70.15-17.73L70.15-17.73L69.37-18.36L69.37-18.36Q70.93-20.23 73.29-20.23L73.29-20.23L73.29-20.23Q75.66-20.23 76.96-19.03L76.96-19.03L76.96-19.03Q78.26-17.84 78.26-15.65L78.26-15.65L78.26-15.34L78.26-15.34Q80.39-20.23 84.92-20.23L84.92-20.23L84.92-20.23Q87.98-20.23 89.70-18.49L89.70-18.49L89.70-18.49Q91.42-16.74 91.42-13.68L91.42-13.68L91.42-13.68Q91.42-12.06 90.43-7.46L90.43-7.46L90.43-7.46Q89.44-2.86 89.34-0.57" fill="#f0f0f0" stroke="none" stroke-width="none" transform="translate(-125.625,11.196632893880215)" style="fill: rgb(240, 240, 240);"></path></g>
        <g class="path" style="transform-origin: -11.2333px -2.53333px 0px; transform: matrix(1, 0, 0, 1, 0, 14.925); opacity: 0.005; animation: 1s linear 4.22s 1 normal forwards running float-btt-in-0400d778-6374-422c-918a-784b13b96aec;"><path d="M106.81-19.76L109.46-19.76L110.86-27.46L110.86-27.46Q114.71-27.46 116.58-27.77L116.58-27.77L117.26-27.92L117.26-27.92Q116.53-24.28 115.65-19.76L115.65-19.76L122.10-19.76L121.99-18.82L115.49-18.82L115.49-18.82Q112.89-5.41 112.89-2.65L112.89-2.65L112.89-2.65Q112.89-0.99 114.66-0.99L114.66-0.99L114.66-0.99Q116.43-0.99 117.88-3.22L117.88-3.22L117.88-3.22Q119.34-5.46 119.96-8.06L119.96-8.06L120.90-7.75L120.90-7.75Q118.98 0.47 112.94 0.47L112.94 0.47L112.94 0.47Q110.45 0.47 108.78-0.91L108.78-0.91L108.78-0.91Q107.12-2.29 107.12-4.76L107.12-4.76L107.12-4.76Q107.12-7.23 109.25-18.82L109.25-18.82L106.70-18.82L106.81-19.76" fill="#f0f0f0" stroke="none" stroke-width="none" transform="translate(-125.625,11.196632893880215)" style="fill: rgb(240, 240, 240);"></path></g>
        <g class="path" style="transform-origin: 13.7px 1.31668px 0px; transform: matrix(1, 0, 0, 1, 0, 14.925); opacity: 0.005; animation: 1s linear 4.293333s 1 normal forwards running float-btt-in-0400d778-6374-422c-918a-784b13b96aec;"><path d="M143.68-1.40L143.68-1.40Q142.12 0.47 139.78 0.47L139.78 0.47L139.78 0.47Q137.44 0.47 136.11-0.73L136.11-0.73L136.11-0.73Q134.78-1.92 134.78-3.85L134.78-3.85L134.78-3.85Q134.78-4.52 135.62-9.52L135.62-9.52L137.33-18.82L135.15-18.82L135.25-19.76L137.49-19.76L137.49-19.76Q141.34-19.76 143.16-20.07L143.16-20.07L143.88-20.23L140.30-0.57L140.30-0.57Q141.86-0.73 142.90-2.03L142.90-2.03L143.68-1.40" fill="#f0f0f0" stroke="none" stroke-width="none" transform="translate(-125.625,11.196632893880215)" style="fill: rgb(240, 240, 240);"></path></g>
        <g class="path" style="transform-origin: 16.1584px -16.7083px 0px; transform: matrix(1, 0, 0, 1, 0, 14.925); opacity: 0.005; animation: 1s linear 4.366667s 1 normal forwards running float-btt-in-0400d778-6374-422c-918a-784b13b96aec;"><path d="M139.10-25.22L139.10-25.22L139.10-25.22Q138.01-26.31 138.01-27.87L138.01-27.87L138.01-27.87Q138.01-29.43 139.10-30.55L139.10-30.55L139.10-30.55Q140.19-31.67 141.75-31.67L141.75-31.67L141.75-31.67Q143.31-31.67 144.43-30.55L144.43-30.55L144.43-30.55Q145.55-29.43 145.55-27.87L145.55-27.87L145.55-27.87Q145.55-26.31 144.43-25.22L144.43-25.22L144.43-25.22Q143.31-24.13 141.75-24.13L141.75-24.13L141.75-24.13Q140.19-24.13 139.10-25.22" fill="#f0f0f0" stroke="none" stroke-width="none" transform="translate(-125.625,11.196632893880215)" style="fill: rgb(240, 240, 240);"></path></g>
        <g class="path" style="transform-origin: 43.925px 1.31668px 0px; transform: matrix(1, 0, 0, 1, 0, 14.925); opacity: 0.005; animation: 1s linear 4.44s 1 normal forwards running float-btt-in-0400d778-6374-422c-918a-784b13b96aec;"><path d="M177.84-0.57L177.84-0.57L177.84-0.57Q179.09-0.57 180.44-2.03L180.44-2.03L181.22-1.40L181.22-1.40Q180.86-0.68 179.61-0.10L179.61-0.10L179.61-0.10Q178.36 0.47 176.85 0.47L176.85 0.47L176.85 0.47Q172.12 0.47 172.12-3.80L172.12-3.80L172.12-3.80Q172.12-5.62 173.06-10.30L173.06-10.30L173.06-10.30Q173.99-14.98 173.99-16.43L173.99-16.43L173.99-16.43Q173.99-18.67 171.86-18.67L171.86-18.67L171.86-18.67Q170.14-18.67 168.56-16.43L168.56-16.43L168.56-16.43Q166.97-14.20 165.93-10.30L165.93-10.30L164.16-0.57L164.16-0.57Q165.78-0.73 166.82-2.03L166.82-2.03L167.60-1.40L167.60-1.40Q166.04 0.47 163.70 0.47L163.70 0.47L163.70 0.47Q161.36 0.47 160.03-0.73L160.03-0.73L160.03-0.73Q158.70-1.92 158.70-3.85L158.70-3.85L158.70-3.85Q158.70-4.58 159.54-9.57L159.54-9.57L161.25-19.19L161.25-19.19Q159.69-19.03 158.65-17.73L158.65-17.73L157.87-18.36L157.87-18.36Q159.43-20.23 161.80-20.23L161.80-20.23L161.80-20.23Q164.16-20.23 165.46-19.03L165.46-19.03L165.46-19.03Q166.76-17.84 166.76-15.65L166.76-15.65L166.76-15.34L166.76-15.34Q168.90-20.23 173.42-20.23L173.42-20.23L173.42-20.23Q176.49-20.23 178.20-18.49L178.20-18.49L178.20-18.49Q179.92-16.74 179.92-13.68L179.92-13.68L179.92-13.68Q179.92-12.06 178.93-7.46L178.93-7.46L178.93-7.46Q177.94-2.86 177.84-0.57" fill="#f0f0f0" stroke="none" stroke-width="none" transform="translate(-125.625,11.196632893880215)" style="fill: rgb(240, 240, 240);"></path></g>
        <g class="path" style="transform-origin: 80.575px 1.31668px 0px; transform: matrix(1, 0, 0, 1, 0, 14.925); opacity: 0.005; animation: 1s linear 4.513333s 1 normal forwards running float-btt-in-0400d778-6374-422c-918a-784b13b96aec;"><path d="M197.96-19.19L197.96-19.19L197.96-19.19Q196.72-19.19 195.36-17.73L195.36-17.73L194.58-18.36L194.58-18.36Q194.95-19.08 196.20-19.66L196.20-19.66L196.20-19.66Q197.44-20.23 198.95-20.23L198.95-20.23L198.95-20.23Q203.68-20.23 203.68-15.96L203.68-15.96L203.68-15.96Q203.68-14.14 202.75-9.46L202.75-9.46L202.75-9.46Q201.81-4.78 201.81-3.33L201.81-3.33L201.81-3.33Q201.81-1.09 203.94-1.09L203.94-1.09L203.94-1.09Q205.45-1.09 206.88-2.86L206.88-2.86L206.88-2.86Q208.31-4.63 209.35-7.75L209.35-7.75L211.54-19.76L211.54-19.76Q215.38-19.76 217.15-20.07L217.15-20.07L217.83-20.23L214.34-0.57L214.34-0.57Q215.90-0.73 216.94-2.03L216.94-2.03L217.72-1.40L217.72-1.40Q216.16 0.47 213.82 0.47L213.82 0.47L213.82 0.47Q211.48 0.47 210.18-0.68L210.18-0.68L210.18-0.68Q208.88-1.82 208.83-3.90L208.83-3.90L208.83-3.90Q206.65 0.47 202.38 0.47L202.38 0.47L202.38 0.47Q199.32 0.47 197.60-1.27L197.60-1.27L197.60-1.27Q195.88-3.02 195.88-6.08L195.88-6.08L195.88-6.08Q195.88-7.70 196.87-12.30L196.87-12.30L196.87-12.30Q197.86-16.90 197.96-19.19" fill="#f0f0f0" stroke="none" stroke-width="none" transform="translate(-125.625,11.196632893880215)" style="fill: rgb(240, 240, 240);"></path></g>
        <g class="path" style="transform-origin: 117.367px 1.31668px 0px; transform: matrix(1, 0, 0, 1, 0, 14.925); opacity: 0.005; animation: 1s linear 4.586667s 1 normal forwards running float-btt-in-0400d778-6374-422c-918a-784b13b96aec;"><path d="M250.12 0.47L250.12 0.47L250.12 0.47Q245.54 0.47 245.13-3.54L245.13-3.54L245.13-3.54Q242.84 0.47 239.36 0.47L239.36 0.47L239.36 0.47Q235.87 0.47 233.82-1.64L233.82-1.64L233.82-1.64Q231.76-3.74 231.76-7.54L231.76-7.54L231.76-7.54Q231.76-13.47 234.68-16.85L234.68-16.85L234.68-16.85Q237.59-20.23 242.22-20.23L242.22-20.23L242.22-20.23Q246.01-20.23 247.26-16.64L247.26-16.64L247.26-16.64Q247.52-18.20 247.83-19.76L247.83-19.76L247.83-19.76Q251.68-19.76 253.55-20.07L253.55-20.07L254.23-20.23L250.64-0.57L250.64-0.57Q252.20-0.73 253.24-2.03L253.24-2.03L254.02-1.40L254.02-1.40Q252.46 0.47 250.12 0.47zM237.64-4.89L237.64-4.89Q237.64-2.55 238.24-1.64L238.24-1.64L238.24-1.64Q238.84-0.73 240.08-0.73L240.08-0.73L240.08-0.73Q241.33-0.73 242.63-2.08L242.63-2.08L242.63-2.08Q244.35-3.85 245.39-6.55L245.39-6.55L245.39-6.55Q245.54-7.23 245.99-9.80L245.99-9.80L245.99-9.80Q246.43-12.38 246.74-14.04L246.74-14.04L246.74-14.04Q246.58-16.02 245.65-17.47L245.65-17.47L245.65-17.47Q244.71-18.93 243.31-18.93L243.31-18.93L243.31-18.93Q240.76-18.93 239.20-14.38L239.20-14.38L239.20-14.38Q237.64-9.83 237.64-4.89L237.64-4.89" fill="#f0f0f0" stroke="none" stroke-width="none" transform="translate(-125.625,11.196632893880215)" style="fill: rgb(240, 240, 240);"></path></g></g>
  </g>
  <style id="float-btt-in-0400d778-6374-422c-918a-784b13b96aec" data-anikit="">@keyframes float-btt-in-0400d778-6374-422c-918a-784b13b96aec
  {
    0% {
      animation-timing-function: cubic-bezier(0.2242,0.7499,0.3142,0.8148);
      transform: matrix(1,0,0,1,0,14.925);
      opacity: 0.005;
    }
    100% {
      transform: matrix(1,0,0,1,0,0);
      opacity: 1;
    }
  }</style><style id="float-btt-in-0400d778-6374-422c-918a-784b13b96aec" data-anikit="">@keyframes float-btt-in-0400d778-6374-422c-918a-784b13b96aec
  {
    0% {
      animation-timing-function: cubic-bezier(0.2242,0.7499,0.3142,0.8148);
      transform: matrix(1,0,0,1,0,14.925);
      opacity: 0.005;
    }
    100% {
      transform: matrix(1,0,0,1,0,0);
      opacity: 1;
    }
  }</style>
 </g>
</svg>
