<svg xmlns="http://www.w3.org/2000/svg">
<defs>
<font id="music" horiz-adv-x="0">
<font-face 
  font-family="music"
  font-weight="400"
  font-style="normal"
  font-stretch="normal"
  units-per-em="3072"
  panose-1="1 1 1 1 1 1 1 1 1 1"
  ascent="3072"
  descent="456"
  x-height="924"
  cap-height="3072"
  underline-thickness="96"
  underline-position="-384"
  slope="41"
  unicode-range="U+0020-FFFD"
/>
<missing-glyph horiz-adv-x="0"
d="M529 701q51 0 89 -15t56.5 -39.5t27 -48.5t8.5 -48q0 -52 -22 -93.5t-55 -69.5t-67 -53t-64 -57.5t-41 -70.5l-10 -47h-90l12 55q9 41 37.5 76t62 60.5t66 52t54 60.5t21.5 75q0 38 -30 62t-77 24q-66 0 -103.5 -37.5t-54.5 -119.5h-85q47 234 265 234zM431 63l-22 -103h-90l22 103h90zM-15 -139l200 939h730l-200 -939h-730zM83 -69h564l170 799h-564z" />
<glyph glyph-name="ext46" unicode="&#x12e;" horiz-adv-x="0" d="M 888 444 L 912 456 L 1008 552 L 1020 576 L 1020 1728 L 1056 1704 L 1116 1704 L 1128 1704 L 1152 1704 L 1200 1728 L 1248 1752 L 1392 1896 L 1428 1968 L 1440 2052 L 1440 2052 L 1428 2100 L 1416 2148 Q 1380 2196 1344 2232 L 1272 2268 L 1188 2280 L 1188 2268 L 1152 2268 L 1116 2256 L 1056 2232 L 912 2088 L 888 2040 L 876 1992 L 876 1956 L 864 1956 L 864 480 L 876 456 L 888 444 "/>
<glyph glyph-name="exclam" unicode="&#x21;" horiz-adv-x="0" d="M 684 2544 L 708 2556 L 804 2652 L 876 2736 L 900 2808 L 912 2820 L 972 2856 L 1128 3012 Q 1188 3084 1212 3180 L 1224 3240 L 1224 3348 Q 1200 3480 1116 3552 Q 1068 3600 1008 3624 L 960 3636 L 876 3636 L 876 3636 L 828 3636 L 804 3624 L 732 3840 L 828 3936 L 852 3996 L 864 4044 L 876 4104 L 876 4104 L 876 4212 L 876 4224 L 876 4260 L 864 4272 L 864 4296 L 852 4416 L 816 4536 L 804 4584 L 780 4584 L 768 4584 L 660 4476 Q 576 4392 552 4272 L 528 4164 L 528 4044 L 528 4044 L 528 3996 L 528 3996 L 540 3924 L 576 3792 L 576 3780 L 372 3576 Q 300 3504 264 3408 L 252 3312 L 240 3204 L 240 3192 L 252 3120 L 276 3024 Q 324 2928 396 2856 Q 468 2796 564 2772 L 624 2760 L 744 2760 Q 756 2772 768 2760 L 768 2760 Q 732 2652 672 2592 L 660 2568 L 672 2556 L 684 2544 M 732 2904 L 672 2916 L 624 2940 Q 564 2964 516 3012 Q 420 3096 396 3252 L 396 3372 L 408 3456 Q 432 3552 492 3612 L 564 3684 L 600 3708 Q 624 3624 648 3552 L 516 3408 Q 468 3348 456 3252 L 456 3156 Q 468 3108 492 3060 Q 528 3024 576 3000 L 612 2976 L 648 2964 L 684 2964 L 684 2964 Q 696 2976 732 2964 L 792 2988 L 792 2952 L 804 2940 L 792 2928 L 792 2904 L 732 2904 M 936 2940 L 936 2952 L 936 3000 L 948 3000 L 936 3108 L 936 3120 Q 996 3168 1020 3252 L 1020 3312 L 1008 3324 L 996 3324 L 972 3324 L 912 3264 L 900 3324 L 852 3492 Q 924 3468 972 3432 Q 1056 3372 1080 3252 L 1080 3156 L 1068 3096 L 1056 3048 L 1008 2976 Q 984 2952 936 2940 M 744 3120 L 684 3144 L 660 3156 L 624 3204 L 600 3264 L 600 3336 L 600 3360 Q 612 3408 636 3444 L 672 3468 L 684 3456 L 732 3288 L 780 3120 L 744 3120 M 708 3936 L 684 4044 L 684 4104 L 672 4104 L 672 4140 L 672 4152 L 672 4248 L 696 4344 L 708 4272 L 720 4200 L 720 4200 L 720 4164 L 732 4164 L 732 4116 L 732 4104 L 732 3984 L 708 3936 "/>
<glyph glyph-name="quotedbl" unicode="&#x22;" horiz-adv-x="0" d="M 648 2964 Q 588 2976 540 3012 Q 480 3060 456 3156 L 456 3276 L 456 3276 L 468 3348 L 492 3432 Q 540 3564 636 3660 Q 720 3768 852 3852 Q 948 3912 1080 3948 L 1080 4092 L 1068 4152 Q 1032 4248 972 4320 Q 888 4404 744 4440 L 636 4440 Q 636 4428 612 4428 Q 528 4416 468 4368 L 420 4296 L 408 4248 L 396 4188 L 396 4104 Q 396 4044 432 4020 Q 468 3972 540 3960 Q 612 3948 648 3972 L 660 4008 L 612 4068 L 612 4092 L 744 4212 L 768 4212 L 864 4116 L 852 4092 L 624 3852 Q 588 3816 528 3804 L 432 3804 Q 372 3816 336 3852 Q 264 3900 240 3996 L 240 4104 L 252 4164 Q 288 4272 348 4332 L 492 4476 L 540 4512 L 624 4560 L 720 4584 L 840 4584 L 900 4572 Q 1008 4536 1068 4476 Q 1152 4416 1188 4320 L 1224 4236 L 1224 4188 L 1224 4140 L 1236 4128 L 1236 3936 L 1224 3912 L 1116 3804 L 984 3792 L 900 3768 Q 804 3732 732 3684 Q 684 3612 648 3528 L 624 3468 L 600 3360 L 600 3264 Q 612 3204 648 3180 Q 672 3144 720 3120 L 744 3120 L 780 3120 L 804 3108 L 804 3096 L 804 3072 L 708 2976 L 696 2964 L 648 2964 M 1332 3756 L 1332 3756 L 1236 3852 L 1248 3888 L 1368 4008 L 1404 4008 L 1488 3912 L 1488 3876 L 1368 3756 L 1332 3756 M 1332 4176 L 1332 4176 L 1236 4272 L 1248 4308 L 1368 4428 L 1404 4428 L 1488 4332 L 1488 4296 L 1368 4176 L 1332 4176 "/>
<glyph glyph-name="numbersign" unicode="&#x23;" horiz-adv-x="0" d="M 48 2760 L 1956 2760 L 48 2760 L 48 2760 M 48 2760 L 48 2760 L 24 2784 L 36 2796 L 144 2904 L 2052 2904 L 2052 2904 L 2076 2880 L 2064 2868 L 1956 2760 L 48 2760 M 48 3180 L 48 3180 L 24 3204 L 36 3216 L 144 3324 L 2052 3324 L 2052 3324 L 2076 3300 L 2064 3288 L 1956 3180 L 48 3180 M 48 3600 L 48 3600 L 24 3624 L 36 3636 L 144 3744 L 2052 3744 L 2052 3744 L 2076 3720 L 2064 3708 L 1956 3600 L 48 3600 M 48 4020 L 48 4020 L 24 4044 L 36 4056 L 144 4164 L 2052 4164 L 2052 4164 L 2076 4140 L 2064 4128 L 1956 4020 L 48 4020 M 48 4440 L 48 4440 L 24 4464 L 36 4476 L 144 4584 L 2052 4584 L 2052 4584 L 2076 4560 L 2064 4548 L 1956 4440 L 48 4440 "/>
<glyph glyph-name="dollar" unicode="&#x24;" horiz-adv-x="0" d="M 60 3600 L 1944 3600 L 1968 3600 L 2064 3696 L 2064 3732 L 2064 3744 L 2040 3744 L 156 3744 L 132 3744 L 36 3648 L 36 3612 L 36 3600 L 60 3600 "/>
<glyph glyph-name="percent" unicode="&#x25;" horiz-adv-x="0" d="M 696 2340 L 672 2340 L 660 2352 L 672 2388 L 768 2484 L 792 2484 L 1608 2484 L 1644 2484 L 1644 2472 L 1644 2436 L 1548 2340 L 1524 2340 L 696 2340 "/>
<glyph glyph-name="ampersand" unicode="&#x26;" horiz-adv-x="0" d="M 696 1920 L 672 1920 L 660 1932 L 672 1968 L 768 2064 L 792 2064 L 1608 2064 L 1644 2064 L 1644 2052 L 1644 2016 L 1548 1920 L 1524 1920 L 696 1920 "/>
<glyph glyph-name="quotesingle" unicode="&#x27;" horiz-adv-x="0" d="M 696 4860 L 1524 4860 L 1548 4860 L 1644 4956 L 1644 4992 L 1644 5004 L 1620 5004 L 780 5004 L 768 5004 L 672 4908 L 660 4872 L 672 4860 L 696 4860 "/>
<glyph glyph-name="parenleft" unicode="&#x28;" horiz-adv-x="0" d="M 696 5280 L 1524 5280 L 1548 5280 L 1644 5376 L 1644 5412 L 1644 5424 L 1620 5424 L 780 5424 L 768 5424 L 672 5328 L 660 5292 L 672 5280 L 696 5280 "/>
<glyph glyph-name="parenright" unicode="&#x29;" horiz-adv-x="0" d="M 1332 3336 L 1332 3336 L 1236 3432 L 1248 3468 L 1368 3588 L 1404 3588 L 1488 3492 L 1488 3456 L 1368 3336 L 1332 3336 M 1332 3756 L 1332 3756 L 1236 3852 L 1248 3888 L 1368 4008 L 1404 4008 L 1488 3912 L 1488 3876 L 1368 3756 L 1332 3756 "/>
<glyph glyph-name="asterisk" unicode="&#x2a;" horiz-adv-x="0" d="M 1332 4860 L 3204 4860 L 3228 4860 L 3324 4956 L 3336 4992 L 3336 5172 L 3324 5208 L 3288 5220 L 1416 5220 L 1392 5208 L 1296 5112 L 1284 5088 L 1284 4896 L 1296 4860 L 1332 4860 "/>
<glyph glyph-name="period" unicode="&#x2e;" horiz-adv-x="0" d="M 912 1920 L 2784 1920 L 2808 1920 L 2904 2016 L 2916 2052 L 2916 2232 L 2904 2268 L 2868 2280 L 996 2280 L 972 2268 L 876 2172 L 864 2148 L 864 1956 L 876 1920 L 912 1920 "/>
<glyph glyph-name="slash" unicode="&#x2f;" horiz-adv-x="0" d="M 1308 2760 L 1332 2760 L 1428 2856 L 1440 2880 L 1440 4548 L 1428 4584 Q 1428 4584 1404 4584 L 1296 4488 L 1284 4464 L 1284 2796 L 1296 2760 L 1308 2760 "/>
<glyph glyph-name="zero" unicode="&#x30;" horiz-adv-x="0" d="M 1068 1500 Q 1008 1512 960 1548 Q 900 1596 876 1692 L 876 1776 Q 888 1836 924 1884 L 1056 2016 Q 1092 2052 1152 2064 L 1248 2064 Q 1308 2052 1344 2016 Q 1416 1968 1440 1872 L 1440 1788 L 1428 1764 L 1392 1680 L 1236 1536 Q 1200 1512 1152 1500 L 1068 1500 M 1164 1644 Q 1236 1644 1272 1656 Q 1296 1692 1284 1776 Q 1272 1836 1224 1872 Q 1200 1896 1164 1908 Q 1128 1920 1068 1920 L 1032 1908 Q 1008 1860 1020 1788 Q 1032 1728 1080 1692 Q 1116 1656 1164 1644 "/>
<glyph glyph-name="one" unicode="&#x31;" horiz-adv-x="0" d="M 1104 1704 L 1152 1704 L 1224 1740 L 1248 1752 L 1392 1896 L 1428 1968 L 1440 2052 L 1440 2052 L 1428 2100 L 1416 2148 Q 1380 2196 1344 2232 L 1272 2268 L 1188 2280 L 1188 2268 L 1152 2268 L 1116 2256 L 1056 2232 L 912 2088 L 876 2004 L 864 1932 L 876 1932 L 876 1884 L 900 1824 Q 924 1788 972 1752 L 1020 1728 L 1056 1704 L 1092 1704 L 1104 1704 M 1164 1860 L 1104 1884 L 1080 1896 L 1044 1944 L 1020 2004 L 1020 2076 L 1032 2112 L 1068 2124 L 1140 2124 L 1212 2100 L 1224 2088 L 1260 2040 L 1284 1980 L 1284 1908 L 1272 1872 L 1236 1860 L 1164 1860 "/>
<glyph glyph-name="two" unicode="&#x32;" horiz-adv-x="0" d="M 1068 1920 Q 1008 1932 960 1968 Q 900 2016 876 2112 L 876 2196 Q 888 2256 924 2304 L 1056 2436 Q 1092 2472 1152 2484 L 1248 2484 Q 1308 2472 1344 2436 Q 1416 2388 1440 2292 L 1440 2208 L 1428 2184 L 1392 2100 L 1236 1956 Q 1200 1932 1152 1920 L 1068 1920 M 1164 2064 Q 1236 2064 1272 2076 Q 1296 2112 1284 2196 Q 1272 2256 1224 2292 Q 1200 2316 1164 2328 Q 1128 2340 1068 2340 L 1032 2328 Q 1008 2280 1020 2208 Q 1032 2148 1080 2112 Q 1116 2076 1164 2064 "/>
<glyph glyph-name="three" unicode="&#x33;" horiz-adv-x="0" d="M 1104 2124 L 1152 2124 L 1224 2160 L 1248 2172 L 1392 2316 L 1428 2388 L 1440 2472 L 1440 2472 L 1428 2520 L 1416 2568 Q 1380 2616 1344 2652 L 1272 2688 L 1188 2700 L 1188 2688 L 1152 2688 L 1116 2676 L 1056 2652 L 912 2508 L 876 2424 L 864 2352 L 876 2352 L 876 2304 L 900 2244 Q 924 2208 972 2172 L 1020 2148 L 1056 2124 L 1092 2124 L 1104 2124 M 1164 2280 L 1104 2304 L 1080 2316 L 1044 2364 L 1020 2424 L 1020 2496 L 1032 2532 L 1068 2544 L 1140 2544 L 1212 2520 L 1224 2508 L 1260 2460 L 1284 2400 L 1284 2328 L 1272 2292 L 1236 2280 L 1164 2280 "/>
<glyph glyph-name="four" unicode="&#x34;" horiz-adv-x="0" d="M 1068 2340 Q 1008 2352 960 2388 Q 900 2436 876 2532 L 876 2616 Q 888 2676 924 2724 L 1056 2856 Q 1092 2892 1152 2904 L 1248 2904 Q 1308 2892 1344 2856 Q 1416 2808 1440 2712 L 1440 2628 L 1428 2604 L 1392 2520 L 1236 2376 Q 1200 2352 1152 2340 L 1068 2340 M 1164 2484 Q 1236 2484 1272 2496 Q 1296 2532 1284 2616 Q 1272 2676 1224 2712 Q 1200 2736 1164 2748 Q 1128 2760 1068 2760 L 1032 2748 Q 1008 2700 1020 2628 Q 1032 2568 1080 2532 Q 1116 2496 1164 2484 "/>
<glyph glyph-name="five" unicode="&#x35;" horiz-adv-x="0" d="M 1104 2544 L 1152 2544 L 1224 2580 L 1248 2592 L 1392 2736 L 1428 2808 L 1440 2892 L 1440 2892 L 1428 2940 L 1416 2988 Q 1380 3036 1344 3072 L 1272 3108 L 1188 3120 L 1188 3108 L 1152 3108 L 1116 3096 L 1056 3072 L 912 2928 L 876 2844 L 864 2772 L 876 2772 L 876 2724 L 900 2664 Q 924 2628 972 2592 L 1020 2568 L 1056 2544 L 1092 2544 L 1104 2544 M 1164 2700 L 1104 2724 L 1080 2736 L 1044 2784 L 1020 2844 L 1020 2916 L 1032 2952 L 1068 2964 L 1140 2964 L 1212 2940 L 1224 2928 L 1260 2880 L 1284 2820 L 1284 2748 L 1272 2712 L 1236 2700 L 1164 2700 "/>
<glyph glyph-name="six" unicode="&#x36;" horiz-adv-x="0" d="M 1068 2760 Q 1008 2772 960 2808 Q 900 2856 876 2952 L 876 3036 Q 888 3096 924 3144 L 1056 3276 Q 1092 3312 1152 3324 L 1248 3324 Q 1308 3312 1344 3276 Q 1416 3228 1440 3132 L 1440 3048 L 1428 3024 L 1392 2940 L 1236 2796 Q 1200 2772 1152 2760 L 1068 2760 M 1164 2904 Q 1236 2904 1272 2916 Q 1296 2952 1284 3036 Q 1272 3096 1224 3132 Q 1200 3156 1164 3168 Q 1128 3180 1068 3180 L 1032 3168 Q 1008 3120 1020 3048 Q 1032 2988 1080 2952 Q 1116 2916 1164 2904 "/>
<glyph glyph-name="seven" unicode="&#x37;" horiz-adv-x="0" d="M 1104 2964 L 1152 2964 L 1224 3000 L 1248 3012 L 1392 3156 L 1428 3228 L 1440 3312 L 1440 3312 L 1428 3360 L 1416 3408 Q 1380 3456 1344 3492 L 1272 3528 L 1188 3540 L 1188 3528 L 1152 3528 L 1116 3516 L 1056 3492 L 912 3348 L 876 3264 L 864 3192 L 876 3192 L 876 3144 L 900 3084 Q 924 3048 972 3012 L 1020 2988 L 1056 2964 L 1092 2964 L 1104 2964 M 1164 3120 L 1104 3144 L 1080 3156 L 1044 3204 L 1020 3264 L 1020 3336 L 1032 3372 L 1068 3384 L 1140 3384 L 1212 3360 L 1224 3348 L 1260 3300 L 1284 3240 L 1284 3168 L 1272 3132 L 1236 3120 L 1164 3120 "/>
<glyph glyph-name="eight" unicode="&#x38;" horiz-adv-x="0" d="M 1068 3180 Q 1008 3192 960 3228 Q 900 3276 876 3372 L 876 3456 Q 888 3516 924 3564 L 1056 3696 Q 1092 3732 1152 3744 L 1248 3744 Q 1308 3732 1344 3696 Q 1416 3648 1440 3552 L 1440 3468 L 1428 3444 L 1392 3360 L 1236 3216 Q 1200 3192 1152 3180 L 1068 3180 M 1164 3324 Q 1236 3324 1272 3336 Q 1296 3372 1284 3456 Q 1272 3516 1224 3552 Q 1200 3576 1164 3588 Q 1128 3600 1068 3600 L 1032 3588 Q 1008 3540 1020 3468 Q 1032 3408 1080 3372 Q 1116 3336 1164 3324 "/>
<glyph glyph-name="nine" unicode="&#x39;" horiz-adv-x="0" d="M 1104 3384 L 1152 3384 L 1224 3420 L 1248 3432 L 1392 3576 L 1428 3648 L 1440 3732 L 1440 3732 L 1428 3780 L 1416 3828 Q 1380 3876 1344 3912 L 1272 3948 L 1188 3960 L 1188 3948 L 1152 3948 L 1116 3936 L 1056 3912 L 912 3768 L 876 3684 L 864 3612 L 876 3612 L 876 3564 L 900 3504 Q 924 3468 972 3432 L 1020 3408 L 1056 3384 L 1092 3384 L 1104 3384 M 1164 3540 L 1104 3564 L 1080 3576 L 1044 3624 L 1020 3684 L 1020 3756 L 1032 3792 L 1068 3804 L 1140 3804 L 1212 3780 L 1224 3768 L 1260 3720 L 1284 3660 L 1284 3588 L 1272 3552 L 1236 3540 L 1164 3540 "/>
<glyph glyph-name="colon" unicode="&#x3a;" horiz-adv-x="0" d="M 1068 3600 Q 1008 3612 960 3648 Q 900 3696 876 3792 L 876 3876 Q 888 3936 924 3984 L 1056 4116 Q 1092 4152 1152 4164 L 1248 4164 Q 1308 4152 1344 4116 Q 1416 4068 1440 3972 L 1440 3888 L 1428 3864 L 1392 3780 L 1236 3636 Q 1200 3612 1152 3600 L 1068 3600 M 1164 3744 Q 1236 3744 1272 3756 Q 1296 3792 1284 3876 Q 1272 3936 1224 3972 Q 1200 3996 1164 4008 Q 1128 4020 1068 4020 L 1032 4008 Q 1008 3960 1020 3888 Q 1032 3828 1080 3792 Q 1116 3756 1164 3744 "/>
<glyph glyph-name="semicolon" unicode="&#x3b;" horiz-adv-x="0" d="M 1104 3804 L 1152 3804 L 1224 3840 L 1248 3852 L 1392 3996 L 1428 4068 L 1440 4152 L 1440 4152 L 1428 4200 L 1416 4248 Q 1380 4296 1344 4332 L 1272 4368 L 1188 4380 L 1188 4368 L 1152 4368 L 1116 4356 L 1056 4332 L 912 4188 L 876 4104 L 864 4032 L 876 4032 L 876 3984 L 900 3924 Q 924 3888 972 3852 L 1020 3828 L 1056 3804 L 1092 3804 L 1104 3804 M 1164 3960 L 1104 3984 L 1080 3996 L 1044 4044 L 1020 4104 L 1020 4176 L 1032 4212 L 1068 4224 L 1140 4224 L 1212 4200 L 1224 4188 L 1260 4140 L 1284 4080 L 1284 4008 L 1272 3972 L 1236 3960 L 1164 3960 "/>
<glyph glyph-name="less" unicode="&#x3c;" horiz-adv-x="0" d="M 1068 4020 Q 1008 4032 960 4068 Q 900 4116 876 4212 L 876 4296 Q 888 4356 924 4404 L 1056 4536 Q 1092 4572 1152 4584 L 1248 4584 Q 1308 4572 1344 4536 Q 1416 4488 1440 4392 L 1440 4308 L 1428 4284 L 1392 4200 L 1236 4056 Q 1200 4032 1152 4020 L 1068 4020 M 1164 4164 Q 1236 4164 1272 4176 Q 1296 4212 1284 4296 Q 1272 4356 1224 4392 Q 1200 4416 1164 4428 Q 1128 4440 1068 4440 L 1032 4428 Q 1008 4380 1020 4308 Q 1032 4248 1080 4212 Q 1116 4176 1164 4164 "/>
<glyph glyph-name="equal" unicode="&#x3d;" horiz-adv-x="0" d="M 1104 4224 L 1152 4224 L 1224 4260 L 1248 4272 L 1392 4416 L 1428 4488 L 1440 4572 L 1440 4572 L 1428 4620 L 1416 4668 Q 1380 4716 1344 4752 L 1272 4788 L 1188 4800 L 1188 4788 L 1152 4788 L 1116 4776 L 1056 4752 L 912 4608 L 876 4524 L 864 4452 L 876 4452 L 876 4404 L 900 4344 Q 924 4308 972 4272 L 1020 4248 L 1056 4224 L 1092 4224 L 1104 4224 M 1164 4380 L 1104 4404 L 1080 4416 L 1044 4464 L 1020 4524 L 1020 4596 L 1032 4632 L 1068 4644 L 1140 4644 L 1212 4620 L 1224 4608 L 1260 4560 L 1284 4500 L 1284 4428 L 1272 4392 L 1236 4380 L 1164 4380 "/>
<glyph glyph-name="greater" unicode="&#x3e;" horiz-adv-x="0" d="M 1068 4440 Q 1008 4452 960 4488 Q 900 4536 876 4632 L 876 4716 Q 888 4776 924 4824 L 1056 4956 Q 1092 4992 1152 5004 L 1248 5004 Q 1308 4992 1344 4956 Q 1416 4908 1440 4812 L 1440 4728 L 1428 4704 L 1392 4620 L 1236 4476 Q 1200 4452 1152 4440 L 1068 4440 M 1164 4584 Q 1236 4584 1272 4596 Q 1296 4632 1284 4716 Q 1272 4776 1224 4812 Q 1200 4836 1164 4848 Q 1128 4860 1068 4860 L 1032 4848 Q 1008 4800 1020 4728 Q 1032 4668 1080 4632 Q 1116 4596 1164 4584 "/>
<glyph glyph-name="question" unicode="&#x3f;" horiz-adv-x="0" d="M 1104 4644 L 1152 4644 L 1224 4680 L 1248 4692 L 1392 4836 L 1428 4908 L 1440 4992 L 1440 4992 L 1428 5040 L 1416 5088 Q 1380 5136 1344 5172 L 1272 5208 L 1188 5220 L 1188 5208 L 1152 5208 L 1116 5196 L 1056 5172 L 912 5028 L 876 4944 L 864 4872 L 876 4872 L 876 4824 L 900 4764 Q 924 4728 972 4692 L 1020 4668 L 1056 4644 L 1092 4644 L 1104 4644 M 1164 4800 L 1104 4824 L 1080 4836 L 1044 4884 L 1020 4944 L 1020 5016 L 1032 5052 L 1068 5064 L 1140 5064 L 1212 5040 L 1224 5028 L 1260 4980 L 1284 4920 L 1284 4848 L 1272 4812 L 1236 4800 L 1164 4800 "/>
<glyph glyph-name="at" unicode="&#x40;" horiz-adv-x="0" d="M 1068 4860 Q 1008 4872 960 4908 Q 900 4956 876 5052 L 876 5136 Q 888 5196 924 5244 L 1056 5376 Q 1092 5412 1152 5424 L 1248 5424 Q 1308 5412 1344 5376 Q 1416 5328 1440 5232 L 1440 5148 L 1428 5124 L 1392 5040 L 1236 4896 Q 1200 4872 1152 4860 L 1068 4860 M 1164 5004 Q 1236 5004 1272 5016 Q 1296 5052 1284 5136 Q 1272 5196 1224 5232 Q 1200 5256 1164 5268 Q 1128 5280 1068 5280 L 1032 5268 Q 1008 5220 1020 5148 Q 1032 5088 1080 5052 Q 1116 5016 1164 5004 "/>
<glyph glyph-name="A" unicode="&#x41;" horiz-adv-x="0" d="M 1104 5064 L 1152 5064 L 1224 5100 L 1248 5112 L 1392 5256 L 1428 5328 L 1440 5412 L 1440 5412 L 1428 5460 L 1416 5508 Q 1380 5556 1344 5592 L 1272 5628 L 1188 5640 L 1188 5628 L 1152 5628 L 1116 5616 L 1056 5592 L 912 5448 L 876 5364 L 864 5292 L 876 5292 L 876 5244 L 900 5184 Q 924 5148 972 5112 L 1020 5088 L 1056 5064 L 1092 5064 L 1104 5064 M 1164 5220 L 1104 5244 L 1080 5256 L 1044 5304 L 1020 5364 L 1020 5436 L 1032 5472 L 1068 5484 L 1140 5484 L 1212 5460 L 1224 5448 L 1260 5400 L 1284 5340 L 1284 5268 L 1272 5232 L 1236 5220 L 1164 5220 "/>
<glyph glyph-name="B" unicode="&#x42;" horiz-adv-x="0" d="M 1068 5280 Q 1008 5292 960 5328 Q 900 5376 876 5472 L 876 5556 Q 888 5616 924 5664 L 1056 5796 Q 1092 5832 1152 5844 L 1248 5844 Q 1308 5832 1344 5796 Q 1416 5748 1440 5652 L 1440 5568 L 1428 5544 L 1392 5460 L 1236 5316 Q 1200 5292 1152 5280 L 1068 5280 M 1164 5424 Q 1236 5424 1272 5436 Q 1296 5472 1284 5556 Q 1272 5616 1224 5652 Q 1200 5676 1164 5688 Q 1128 5700 1068 5700 L 1032 5688 Q 1008 5640 1020 5568 Q 1032 5508 1080 5472 Q 1116 5436 1164 5424 "/>
<glyph glyph-name="C" unicode="&#x43;" horiz-adv-x="0" d="M 1068 1500 Q 1008 1512 960 1548 Q 900 1596 876 1692 L 876 1776 Q 888 1836 912 1872 L 1056 2016 Q 1092 2052 1152 2064 L 1248 2064 L 1284 2052 L 1284 3192 L 1296 3228 L 1404 3324 Q 1428 3324 1428 3324 L 1440 3288 L 1440 1824 L 1440 1824 L 1440 1788 L 1428 1752 L 1392 1680 L 1248 1548 L 1212 1524 L 1152 1500 L 1068 1500 M 1164 1644 L 1236 1644 L 1272 1656 L 1284 1704 L 1284 1776 L 1260 1836 L 1224 1872 L 1212 1896 L 1140 1920 L 1068 1920 L 1032 1908 L 1020 1860 L 1020 1788 L 1044 1728 L 1080 1692 L 1104 1668 L 1164 1644 "/>
<glyph glyph-name="D" unicode="&#x44;" horiz-adv-x="0" d="M 1104 1704 L 1152 1704 L 1224 1740 L 1248 1752 L 1392 1896 L 1428 1944 L 1440 2028 L 1440 3504 L 1428 3528 Q 1428 3540 1404 3528 L 1296 3432 L 1284 3408 L 1284 2256 L 1248 2268 L 1188 2280 L 1188 2268 L 1152 2268 L 1116 2256 L 1056 2232 L 912 2088 L 876 2004 L 864 1932 L 876 1932 L 876 1884 L 900 1824 Q 924 1788 972 1752 L 1020 1728 L 1056 1704 L 1092 1704 L 1104 1704 M 1164 1860 L 1104 1884 L 1080 1896 L 1044 1944 L 1020 2004 L 1020 2076 L 1032 2112 L 1068 2124 L 1140 2124 L 1212 2100 L 1224 2088 L 1260 2040 L 1284 1980 L 1284 1908 L 1272 1872 L 1236 1860 L 1164 1860 "/>
<glyph glyph-name="E" unicode="&#x45;" horiz-adv-x="0" d="M 1068 1920 Q 1008 1932 960 1968 Q 900 2016 876 2112 L 876 2196 Q 888 2256 912 2292 L 1056 2436 Q 1092 2472 1152 2484 L 1248 2484 L 1284 2472 L 1284 3612 L 1296 3648 L 1404 3744 Q 1428 3744 1428 3744 L 1440 3708 L 1440 2244 L 1440 2244 L 1440 2208 L 1428 2172 L 1392 2100 L 1248 1968 L 1212 1944 L 1152 1920 L 1068 1920 M 1164 2064 L 1236 2064 L 1272 2076 L 1284 2124 L 1284 2196 L 1260 2256 L 1224 2292 L 1212 2316 L 1140 2340 L 1068 2340 L 1032 2328 L 1020 2280 L 1020 2208 L 1044 2148 L 1080 2112 L 1104 2088 L 1164 2064 "/>
<glyph glyph-name="F" unicode="&#x46;" horiz-adv-x="0" d="M 1104 2124 L 1152 2124 L 1224 2160 L 1248 2172 L 1392 2316 L 1428 2364 L 1440 2448 L 1440 3924 L 1428 3948 Q 1428 3960 1404 3948 L 1296 3852 L 1284 3828 L 1284 2676 L 1248 2688 L 1188 2700 L 1188 2688 L 1152 2688 L 1116 2676 L 1056 2652 L 912 2508 L 876 2424 L 864 2352 L 876 2352 L 876 2304 L 900 2244 Q 924 2208 972 2172 L 1020 2148 L 1056 2124 L 1092 2124 L 1104 2124 M 1164 2280 L 1104 2304 L 1080 2316 L 1044 2364 L 1020 2424 L 1020 2496 L 1032 2532 L 1068 2544 L 1140 2544 L 1212 2520 L 1224 2508 L 1260 2460 L 1284 2400 L 1284 2328 L 1272 2292 L 1236 2280 L 1164 2280 "/>
<glyph glyph-name="G" unicode="&#x47;" horiz-adv-x="0" d="M 1068 2340 Q 1008 2352 960 2388 Q 900 2436 876 2532 L 876 2616 Q 888 2676 912 2712 L 1056 2856 Q 1092 2892 1152 2904 L 1248 2904 L 1284 2892 L 1284 4032 L 1296 4068 L 1404 4164 Q 1428 4164 1428 4164 L 1440 4128 L 1440 2664 L 1440 2664 L 1440 2628 L 1428 2592 L 1392 2520 L 1248 2388 L 1212 2364 L 1152 2340 L 1068 2340 M 1164 2484 L 1236 2484 L 1272 2496 L 1284 2544 L 1284 2616 L 1260 2676 L 1224 2712 L 1212 2736 L 1140 2760 L 1068 2760 L 1032 2748 L 1020 2700 L 1020 2628 L 1044 2568 L 1080 2532 L 1104 2508 L 1164 2484 "/>
<glyph glyph-name="H" unicode="&#x48;" horiz-adv-x="0" d="M 1104 2544 L 1152 2544 L 1224 2580 L 1248 2592 L 1392 2736 L 1428 2784 L 1440 2868 L 1440 4344 L 1428 4368 Q 1428 4380 1404 4368 L 1296 4272 L 1284 4248 L 1284 3096 L 1248 3108 L 1188 3120 L 1188 3108 L 1152 3108 L 1116 3096 L 1056 3072 L 912 2928 L 876 2844 L 864 2772 L 876 2772 L 876 2724 L 900 2664 Q 924 2628 972 2592 L 1020 2568 L 1056 2544 L 1092 2544 L 1104 2544 M 1164 2700 L 1104 2724 L 1080 2736 L 1044 2784 L 1020 2844 L 1020 2916 L 1032 2952 L 1068 2964 L 1140 2964 L 1212 2940 L 1224 2928 L 1260 2880 L 1284 2820 L 1284 2748 L 1272 2712 L 1236 2700 L 1164 2700 "/>
<glyph glyph-name="I" unicode="&#x49;" horiz-adv-x="0" d="M 1068 2760 Q 1008 2772 960 2808 Q 900 2856 876 2952 L 876 3036 Q 888 3096 912 3132 L 1056 3276 Q 1092 3312 1152 3324 L 1248 3324 L 1284 3312 L 1284 4452 L 1296 4488 L 1404 4584 Q 1428 4584 1428 4584 L 1440 4548 L 1440 3084 L 1440 3084 L 1440 3048 L 1428 3012 L 1392 2940 L 1248 2808 L 1212 2784 L 1152 2760 L 1068 2760 M 1164 2904 L 1236 2904 L 1272 2916 L 1284 2964 L 1284 3036 L 1260 3096 L 1224 3132 L 1212 3156 L 1140 3180 L 1068 3180 L 1032 3168 L 1020 3120 L 1020 3048 L 1044 2988 L 1080 2952 L 1104 2928 L 1164 2904 "/>
<glyph glyph-name="J" unicode="&#x4a;" horiz-adv-x="0" d="M 1104 2964 L 1152 2964 L 1224 3000 L 1248 3012 L 1392 3156 L 1428 3204 L 1440 3288 L 1440 4764 L 1428 4788 Q 1428 4800 1404 4788 L 1296 4692 L 1284 4668 L 1284 3516 L 1248 3528 L 1188 3540 L 1188 3528 L 1152 3528 L 1116 3516 L 1056 3492 L 912 3348 L 876 3264 L 864 3192 L 876 3192 L 876 3144 L 900 3084 Q 924 3048 972 3012 L 1020 2988 L 1056 2964 L 1092 2964 L 1104 2964 M 1164 3120 L 1104 3144 L 1080 3156 L 1044 3204 L 1020 3264 L 1020 3336 L 1032 3372 L 1068 3384 L 1140 3384 L 1212 3360 L 1224 3348 L 1260 3300 L 1284 3240 L 1284 3168 L 1272 3132 L 1236 3120 L 1164 3120 "/>
<glyph glyph-name="K" unicode="&#x4b;" horiz-adv-x="0" d="M 1068 3180 Q 1008 3192 960 3228 Q 900 3276 876 3372 L 876 3456 Q 888 3516 912 3552 L 1056 3696 Q 1092 3732 1152 3744 L 1248 3744 L 1284 3732 L 1284 4872 L 1296 4908 L 1404 5004 Q 1428 5004 1428 5004 L 1440 4968 L 1440 3504 L 1440 3504 L 1440 3468 L 1428 3432 L 1392 3360 L 1248 3228 L 1212 3204 L 1152 3180 L 1068 3180 M 1164 3324 L 1236 3324 L 1272 3336 L 1284 3384 L 1284 3456 L 1260 3516 L 1224 3552 L 1212 3576 L 1140 3600 L 1068 3600 L 1032 3588 L 1020 3540 L 1020 3468 L 1044 3408 L 1080 3372 L 1104 3348 L 1164 3324 "/>
<glyph glyph-name="L" unicode="&#x4c;" horiz-adv-x="0" d="M 888 2124 L 912 2136 L 1008 2232 L 1020 2256 L 1020 3408 L 1056 3384 L 1116 3384 L 1128 3384 L 1152 3384 L 1200 3408 L 1248 3432 L 1392 3576 L 1428 3648 L 1440 3732 L 1440 3732 L 1428 3780 L 1416 3828 Q 1380 3876 1344 3912 L 1272 3948 L 1188 3960 L 1188 3948 L 1152 3948 L 1116 3936 L 1056 3912 L 912 3768 L 888 3720 L 876 3672 L 876 3636 L 864 3636 L 864 2160 L 876 2136 L 888 2124 M 1164 3540 L 1104 3564 L 1080 3576 L 1044 3624 L 1020 3684 L 1020 3756 L 1032 3792 L 1068 3804 L 1140 3804 L 1212 3780 L 1224 3768 L 1260 3720 L 1284 3660 L 1284 3588 L 1272 3552 L 1236 3540 L 1164 3540 "/>
<glyph glyph-name="M" unicode="&#x4d;" horiz-adv-x="0" d="M 888 2340 L 912 2340 L 1008 2436 L 1020 2460 L 1020 3612 L 1056 3600 L 1116 3600 L 1128 3600 L 1152 3600 L 1200 3612 L 1248 3636 L 1392 3792 L 1428 3864 L 1440 3936 L 1440 3936 L 1428 3996 L 1416 4044 Q 1380 4092 1344 4116 L 1272 4164 L 1188 4164 L 1188 4164 L 1152 4164 L 1116 4152 L 1056 4116 L 912 3972 L 888 3924 L 876 3888 L 876 3852 L 864 3840 L 864 2376 L 876 2340 L 888 2340 M 1164 3744 L 1104 3768 L 1080 3792 L 1044 3828 L 1020 3888 L 1020 3960 L 1032 4008 L 1068 4020 L 1140 4020 L 1212 3996 L 1224 3972 L 1260 3936 L 1284 3876 L 1284 3804 L 1272 3756 L 1236 3744 L 1164 3744 "/>
<glyph glyph-name="N" unicode="&#x4e;" horiz-adv-x="0" d="M 888 2544 L 912 2556 L 1008 2652 L 1020 2676 L 1020 3828 L 1056 3804 L 1116 3804 L 1128 3804 L 1152 3804 L 1200 3828 L 1248 3852 L 1392 3996 L 1428 4068 L 1440 4152 L 1440 4152 L 1428 4200 L 1416 4248 Q 1380 4296 1344 4332 L 1272 4368 L 1188 4380 L 1188 4368 L 1152 4368 L 1116 4356 L 1056 4332 L 912 4188 L 888 4140 L 876 4092 L 876 4056 L 864 4056 L 864 2580 L 876 2556 L 888 2544 M 1164 3960 L 1104 3984 L 1080 3996 L 1044 4044 L 1020 4104 L 1020 4176 L 1032 4212 L 1068 4224 L 1140 4224 L 1212 4200 L 1224 4188 L 1260 4140 L 1284 4080 L 1284 4008 L 1272 3972 L 1236 3960 L 1164 3960 "/>
<glyph glyph-name="O" unicode="&#x4f;" horiz-adv-x="0" d="M 888 2760 L 912 2760 L 1008 2856 L 1020 2880 L 1020 4032 L 1056 4020 L 1116 4020 L 1128 4020 L 1152 4020 L 1200 4032 L 1248 4056 L 1392 4212 L 1428 4284 L 1440 4356 L 1440 4356 L 1428 4416 L 1416 4464 Q 1380 4512 1344 4536 L 1272 4584 L 1188 4584 L 1188 4584 L 1152 4584 L 1116 4572 L 1056 4536 L 912 4392 L 888 4344 L 876 4308 L 876 4272 L 864 4260 L 864 2796 L 876 2760 L 888 2760 M 1164 4164 L 1104 4188 L 1080 4212 L 1044 4248 L 1020 4308 L 1020 4380 L 1032 4428 L 1068 4440 L 1140 4440 L 1212 4416 L 1224 4392 L 1260 4356 L 1284 4296 L 1284 4224 L 1272 4176 L 1236 4164 L 1164 4164 "/>
<glyph glyph-name="P" unicode="&#x50;" horiz-adv-x="0" d="M 888 2964 L 912 2976 L 1008 3072 L 1020 3096 L 1020 4248 L 1056 4224 L 1116 4224 L 1128 4224 L 1152 4224 L 1200 4248 L 1248 4272 L 1392 4416 L 1428 4488 L 1440 4572 L 1440 4572 L 1428 4620 L 1416 4668 Q 1380 4716 1344 4752 L 1272 4788 L 1188 4800 L 1188 4788 L 1152 4788 L 1116 4776 L 1056 4752 L 912 4608 L 888 4560 L 876 4512 L 876 4476 L 864 4476 L 864 3000 L 876 2976 L 888 2964 M 1164 4380 L 1104 4404 L 1080 4416 L 1044 4464 L 1020 4524 L 1020 4596 L 1032 4632 L 1068 4644 L 1140 4644 L 1212 4620 L 1224 4608 L 1260 4560 L 1284 4500 L 1284 4428 L 1272 4392 L 1236 4380 L 1164 4380 "/>
<glyph glyph-name="Q" unicode="&#x51;" horiz-adv-x="0" d="M 888 3180 L 912 3180 L 1008 3276 L 1020 3300 L 1020 4452 L 1056 4440 L 1116 4440 L 1128 4440 L 1152 4440 L 1200 4452 L 1248 4476 L 1392 4632 L 1428 4704 L 1440 4776 L 1440 4776 L 1428 4836 L 1416 4884 Q 1380 4932 1344 4956 L 1272 5004 L 1188 5004 L 1188 5004 L 1152 5004 L 1116 4992 L 1056 4956 L 912 4812 L 888 4764 L 876 4728 L 876 4692 L 864 4680 L 864 3216 L 876 3180 L 888 3180 M 1164 4584 L 1104 4608 L 1080 4632 L 1044 4668 L 1020 4728 L 1020 4800 L 1032 4848 L 1068 4860 L 1140 4860 L 1212 4836 L 1224 4812 L 1260 4776 L 1284 4716 L 1284 4644 L 1272 4596 L 1236 4584 L 1164 4584 "/>
<glyph glyph-name="R" unicode="&#x52;" horiz-adv-x="0" d="M 888 3384 L 912 3396 L 1008 3492 L 1020 3516 L 1020 4668 L 1056 4644 L 1116 4644 L 1128 4644 L 1152 4644 L 1200 4668 L 1248 4692 L 1392 4836 L 1428 4908 L 1440 4992 L 1440 4992 L 1428 5040 L 1416 5088 Q 1380 5136 1344 5172 L 1272 5208 L 1188 5220 L 1188 5208 L 1152 5208 L 1116 5196 L 1056 5172 L 912 5028 L 888 4980 L 876 4932 L 876 4896 L 864 4896 L 864 3420 L 876 3396 L 888 3384 M 1164 4800 L 1104 4824 L 1080 4836 L 1044 4884 L 1020 4944 L 1020 5016 L 1032 5052 L 1068 5064 L 1140 5064 L 1212 5040 L 1224 5028 L 1260 4980 L 1284 4920 L 1284 4848 L 1272 4812 L 1236 4800 L 1164 4800 "/>
<glyph glyph-name="S" unicode="&#x53;" horiz-adv-x="0" d="M 888 3600 L 912 3600 L 1008 3696 L 1020 3720 L 1020 4872 L 1056 4860 L 1116 4860 L 1128 4860 L 1152 4860 L 1200 4872 L 1248 4896 L 1392 5052 L 1428 5124 L 1440 5196 L 1440 5196 L 1428 5256 L 1416 5304 Q 1380 5352 1344 5376 L 1272 5424 L 1188 5424 L 1188 5424 L 1152 5424 L 1116 5412 L 1056 5376 L 912 5232 L 888 5184 L 876 5148 L 876 5112 L 864 5100 L 864 3636 L 876 3600 L 888 3600 M 1164 5004 L 1104 5028 L 1080 5052 L 1044 5088 L 1020 5148 L 1020 5220 L 1032 5268 L 1068 5280 L 1140 5280 L 1212 5256 L 1224 5232 L 1260 5196 L 1284 5136 L 1284 5064 L 1272 5016 L 1236 5004 L 1164 5004 "/>
<glyph glyph-name="T" unicode="&#x54;" horiz-adv-x="0" d="M 888 3804 L 912 3816 L 1008 3912 L 1020 3936 L 1020 5088 L 1056 5064 L 1116 5064 L 1128 5064 L 1152 5064 L 1200 5088 L 1248 5112 L 1392 5256 L 1428 5328 L 1440 5412 L 1440 5412 L 1428 5460 L 1416 5508 Q 1380 5556 1344 5592 L 1272 5628 L 1188 5640 L 1188 5628 L 1152 5628 L 1116 5616 L 1056 5592 L 912 5448 L 888 5400 L 876 5352 L 876 5316 L 864 5316 L 864 3840 L 876 3816 L 888 3804 M 1164 5220 L 1104 5244 L 1080 5256 L 1044 5304 L 1020 5364 L 1020 5436 L 1032 5472 L 1068 5484 L 1140 5484 L 1212 5460 L 1224 5448 L 1260 5400 L 1284 5340 L 1284 5268 L 1272 5232 L 1236 5220 L 1164 5220 "/>
<glyph glyph-name="U" unicode="&#x55;" horiz-adv-x="0" d="M 888 4020 L 912 4020 L 1008 4116 L 1020 4140 L 1020 5292 L 1056 5280 L 1116 5280 L 1128 5280 L 1152 5280 L 1200 5292 L 1248 5316 L 1392 5472 L 1428 5544 L 1440 5616 L 1440 5616 L 1428 5676 L 1416 5724 Q 1380 5772 1344 5796 L 1272 5844 L 1188 5844 L 1188 5844 L 1152 5844 L 1116 5832 L 1056 5796 L 912 5652 L 888 5604 L 876 5568 L 876 5532 L 864 5520 L 864 4056 L 876 4020 L 888 4020 M 1164 5424 L 1104 5448 L 1080 5472 L 1044 5508 L 1020 5568 L 1020 5640 L 1032 5688 L 1068 5700 L 1140 5700 L 1212 5676 L 1224 5652 L 1260 5616 L 1284 5556 L 1284 5484 L 1272 5436 L 1236 5424 L 1164 5424 "/>
<glyph glyph-name="V" unicode="&#x56;" horiz-adv-x="0" d="M 1068 1500 Q 1008 1512 960 1548 Q 900 1596 876 1692 L 876 1776 Q 888 1836 912 1872 L 1056 2016 Q 1092 2052 1152 2064 L 1248 2064 L 1284 2052 L 1284 3192 L 1296 3228 L 1404 3324 Q 1428 3324 1428 3324 L 1440 3288 L 1440 1824 L 1440 1824 L 1440 1788 L 1428 1752 L 1392 1680 L 1248 1548 L 1212 1524 L 1152 1500 L 1068 1500 "/>
<glyph glyph-name="W" unicode="&#x57;" horiz-adv-x="0" d="M 1104 1704 L 1152 1704 L 1224 1740 L 1248 1752 L 1392 1896 L 1428 1944 L 1440 2028 L 1440 3504 L 1428 3528 Q 1428 3540 1404 3528 L 1296 3432 L 1284 3408 L 1284 2256 L 1248 2268 L 1188 2280 L 1188 2268 L 1152 2268 L 1116 2256 L 1056 2232 L 912 2088 L 876 2004 L 864 1932 L 876 1932 L 876 1884 L 900 1824 Q 924 1788 972 1752 L 1020 1728 L 1056 1704 L 1092 1704 L 1104 1704 "/>
<glyph glyph-name="X" unicode="&#x58;" horiz-adv-x="0" d="M 1068 1920 Q 1008 1932 960 1968 Q 900 2016 876 2112 L 876 2196 Q 888 2256 912 2292 L 1056 2436 Q 1092 2472 1152 2484 L 1248 2484 L 1284 2472 L 1284 3612 L 1296 3648 L 1404 3744 Q 1428 3744 1428 3744 L 1440 3708 L 1440 2244 L 1440 2244 L 1440 2208 L 1428 2172 L 1392 2100 L 1248 1968 L 1212 1944 L 1152 1920 L 1068 1920 "/>
<glyph glyph-name="Y" unicode="&#x59;" horiz-adv-x="0" d="M 1104 2124 L 1152 2124 L 1224 2160 L 1248 2172 L 1392 2316 L 1428 2364 L 1440 2448 L 1440 3924 L 1428 3948 Q 1428 3960 1404 3948 L 1296 3852 L 1284 3828 L 1284 2676 L 1248 2688 L 1188 2700 L 1188 2688 L 1152 2688 L 1116 2676 L 1056 2652 L 912 2508 L 876 2424 L 864 2352 L 876 2352 L 876 2304 L 900 2244 Q 924 2208 972 2172 L 1020 2148 L 1056 2124 L 1092 2124 L 1104 2124 "/>
<glyph glyph-name="Z" unicode="&#x5a;" horiz-adv-x="0" d="M 1068 2340 Q 1008 2352 960 2388 Q 900 2436 876 2532 L 876 2616 Q 888 2676 912 2712 L 1056 2856 Q 1092 2892 1152 2904 L 1248 2904 L 1284 2892 L 1284 4032 L 1296 4068 L 1404 4164 Q 1428 4164 1428 4164 L 1440 4128 L 1440 2664 L 1440 2664 L 1440 2628 L 1428 2592 L 1392 2520 L 1248 2388 L 1212 2364 L 1152 2340 L 1068 2340 "/>
<glyph glyph-name="bracketleft" unicode="&#x5b;" horiz-adv-x="0" d="M 1104 2544 L 1152 2544 L 1224 2580 L 1248 2592 L 1392 2736 L 1428 2784 L 1440 2868 L 1440 4344 L 1428 4368 Q 1428 4380 1404 4368 L 1296 4272 L 1284 4248 L 1284 3096 L 1248 3108 L 1188 3120 L 1188 3108 L 1152 3108 L 1116 3096 L 1056 3072 L 912 2928 L 876 2844 L 864 2772 L 876 2772 L 876 2724 L 900 2664 Q 924 2628 972 2592 L 1020 2568 L 1056 2544 L 1092 2544 L 1104 2544 "/>
<glyph glyph-name="bracketright" unicode="&#x5d;" horiz-adv-x="0" d="M 1068 2760 Q 1008 2772 960 2808 Q 900 2856 876 2952 L 876 3036 Q 888 3096 912 3132 L 1056 3276 Q 1092 3312 1152 3324 L 1248 3324 L 1284 3312 L 1284 4452 L 1296 4488 L 1404 4584 Q 1428 4584 1428 4584 L 1440 4548 L 1440 3084 L 1440 3084 L 1440 3048 L 1428 3012 L 1392 2940 L 1248 2808 L 1212 2784 L 1152 2760 L 1068 2760 "/>
<glyph glyph-name="asciicircum" unicode="&#x5e;" horiz-adv-x="0" d="M 1104 2964 L 1152 2964 L 1224 3000 L 1248 3012 L 1392 3156 L 1428 3204 L 1440 3288 L 1440 4764 L 1428 4788 Q 1428 4800 1404 4788 L 1296 4692 L 1284 4668 L 1284 3516 L 1248 3528 L 1188 3540 L 1188 3528 L 1152 3528 L 1116 3516 L 1056 3492 L 912 3348 L 876 3264 L 864 3192 L 876 3192 L 876 3144 L 900 3084 Q 924 3048 972 3012 L 1020 2988 L 1056 2964 L 1092 2964 L 1104 2964 "/>
<glyph glyph-name="grave" unicode="&#x60;" horiz-adv-x="0" d="M 888 2124 L 912 2136 L 1008 2232 L 1020 2256 L 1020 3408 L 1056 3384 L 1116 3384 L 1128 3384 L 1152 3384 L 1200 3408 L 1248 3432 L 1392 3576 L 1428 3648 L 1440 3732 L 1440 3732 L 1428 3780 L 1416 3828 Q 1380 3876 1344 3912 L 1272 3948 L 1188 3960 L 1188 3948 L 1152 3948 L 1116 3936 L 1056 3912 L 912 3768 L 888 3720 L 876 3672 L 876 3636 L 864 3636 L 864 2160 L 876 2136 L 888 2124 "/>
<glyph glyph-name="a" unicode="&#x61;" horiz-adv-x="0" d="M 888 2340 L 912 2340 L 1008 2436 L 1020 2460 L 1020 3612 L 1056 3600 L 1116 3600 L 1128 3600 L 1152 3600 L 1200 3612 L 1248 3636 L 1392 3792 L 1428 3864 L 1440 3936 L 1440 3936 L 1428 3996 L 1416 4044 Q 1380 4092 1344 4116 L 1272 4164 L 1188 4164 L 1188 4164 L 1152 4164 L 1116 4152 L 1056 4116 L 912 3972 L 888 3924 L 876 3888 L 876 3852 L 864 3840 L 864 2376 L 876 2340 L 888 2340 "/>
<glyph glyph-name="b" unicode="&#x62;" horiz-adv-x="0" d="M 888 2544 L 912 2556 L 1008 2652 L 1020 2676 L 1020 3828 L 1056 3804 L 1116 3804 L 1128 3804 L 1152 3804 L 1200 3828 L 1248 3852 L 1392 3996 L 1428 4068 L 1440 4152 L 1440 4152 L 1428 4200 L 1416 4248 Q 1380 4296 1344 4332 L 1272 4368 L 1188 4380 L 1188 4368 L 1152 4368 L 1116 4356 L 1056 4332 L 912 4188 L 888 4140 L 876 4092 L 876 4056 L 864 4056 L 864 2580 L 876 2556 L 888 2544 "/>
<glyph glyph-name="c" unicode="&#x63;" horiz-adv-x="0" d="M 888 2760 L 912 2760 L 1008 2856 L 1020 2880 L 1020 4032 L 1056 4020 L 1116 4020 L 1128 4020 L 1152 4020 L 1200 4032 L 1248 4056 L 1392 4212 L 1428 4284 L 1440 4356 L 1440 4356 L 1428 4416 L 1416 4464 Q 1380 4512 1344 4536 L 1272 4584 L 1188 4584 L 1188 4584 L 1152 4584 L 1116 4572 L 1056 4536 L 912 4392 L 888 4344 L 876 4308 L 876 4272 L 864 4260 L 864 2796 L 876 2760 L 888 2760 "/>
<glyph glyph-name="d" unicode="&#x64;" horiz-adv-x="0" d="M 888 2964 L 912 2976 L 1008 3072 L 1020 3096 L 1020 4248 L 1056 4224 L 1116 4224 L 1128 4224 L 1152 4224 L 1200 4248 L 1248 4272 L 1392 4416 L 1428 4488 L 1440 4572 L 1440 4572 L 1428 4620 L 1416 4668 Q 1380 4716 1344 4752 L 1272 4788 L 1188 4800 L 1188 4788 L 1152 4788 L 1116 4776 L 1056 4752 L 912 4608 L 888 4560 L 876 4512 L 876 4476 L 864 4476 L 864 3000 L 876 2976 L 888 2964 "/>
<glyph glyph-name="e" unicode="&#x65;" horiz-adv-x="0" d="M 888 3180 L 912 3180 L 1008 3276 L 1020 3300 L 1020 4452 L 1056 4440 L 1116 4440 L 1128 4440 L 1152 4440 L 1200 4452 L 1248 4476 L 1392 4632 L 1428 4704 L 1440 4776 L 1440 4776 L 1428 4836 L 1416 4884 Q 1380 4932 1344 4956 L 1272 5004 L 1188 5004 L 1188 5004 L 1152 5004 L 1116 4992 L 1056 4956 L 912 4812 L 888 4764 L 876 4728 L 876 4692 L 864 4680 L 864 3216 L 876 3180 L 888 3180 "/>
<glyph glyph-name="f" unicode="&#x66;" horiz-adv-x="0" d="M 888 3384 L 912 3396 L 1008 3492 L 1020 3516 L 1020 4668 L 1056 4644 L 1116 4644 L 1128 4644 L 1152 4644 L 1200 4668 L 1248 4692 L 1392 4836 L 1428 4908 L 1440 4992 L 1440 4992 L 1428 5040 L 1416 5088 Q 1380 5136 1344 5172 L 1272 5208 L 1188 5220 L 1188 5208 L 1152 5208 L 1116 5196 L 1056 5172 L 912 5028 L 888 4980 L 876 4932 L 876 4896 L 864 4896 L 864 3420 L 876 3396 L 888 3384 "/>
<glyph glyph-name="g" unicode="&#x67;" horiz-adv-x="0" d="M 888 3600 L 912 3600 L 1008 3696 L 1020 3720 L 1020 4872 L 1056 4860 L 1116 4860 L 1128 4860 L 1152 4860 L 1200 4872 L 1248 4896 L 1392 5052 L 1428 5124 L 1440 5196 L 1440 5196 L 1428 5256 L 1416 5304 Q 1380 5352 1344 5376 L 1272 5424 L 1188 5424 L 1188 5424 L 1152 5424 L 1116 5412 L 1056 5376 L 912 5232 L 888 5184 L 876 5148 L 876 5112 L 864 5100 L 864 3636 L 876 3600 L 888 3600 "/>
<glyph glyph-name="h" unicode="&#x68;" horiz-adv-x="0" d="M 888 3804 L 912 3816 L 1008 3912 L 1020 3936 L 1020 5088 L 1056 5064 L 1116 5064 L 1128 5064 L 1152 5064 L 1200 5088 L 1248 5112 L 1392 5256 L 1428 5328 L 1440 5412 L 1440 5412 L 1428 5460 L 1416 5508 Q 1380 5556 1344 5592 L 1272 5628 L 1188 5640 L 1188 5628 L 1152 5628 L 1116 5616 L 1056 5592 L 912 5448 L 888 5400 L 876 5352 L 876 5316 L 864 5316 L 864 3840 L 876 3816 L 888 3804 "/>
<glyph glyph-name="i" unicode="&#x69;" horiz-adv-x="0" d="M 888 4020 L 912 4020 L 1008 4116 L 1020 4140 L 1020 5292 L 1056 5280 L 1116 5280 L 1128 5280 L 1152 5280 L 1200 5292 L 1248 5316 L 1392 5472 L 1428 5544 L 1440 5616 L 1440 5616 L 1428 5676 L 1416 5724 Q 1380 5772 1344 5796 L 1272 5844 L 1188 5844 L 1188 5844 L 1152 5844 L 1116 5832 L 1056 5796 L 912 5652 L 888 5604 L 876 5568 L 876 5532 L 864 5520 L 864 4056 L 876 4020 L 888 4020 "/>
<glyph glyph-name="j" unicode="&#x6a;" horiz-adv-x="0" d="M 1104 1500 L 1092 1500 L 1056 1500 L 1020 1512 L 972 1536 Q 924 1572 900 1620 L 876 1668 L 876 1716 L 864 1728 L 876 1800 L 912 1872 L 1056 2016 L 1116 2052 L 1152 2064 L 1188 2064 L 1188 2064 L 1248 2064 L 1284 2052 L 1284 3204 L 1296 3228 L 1404 3324 Q 1428 3324 1428 3324 L 1440 3300 L 1440 3228 L 1452 3192 L 1500 3120 L 1572 3048 L 1716 2940 Q 1788 2892 1824 2820 L 1848 2760 L 1860 2724 L 1860 2676 L 1860 2676 L 1860 2580 L 1836 2460 Q 1812 2364 1764 2304 L 1620 2160 L 1560 2124 Q 1524 2124 1512 2136 L 1500 2148 L 1512 2172 L 1608 2268 Q 1620 2280 1644 2280 Q 1668 2316 1692 2376 L 1704 2496 L 1704 2616 L 1704 2640 L 1680 2688 L 1620 2748 L 1440 2856 L 1440 1812 L 1440 1812 L 1440 1776 L 1428 1740 L 1392 1692 L 1248 1536 L 1224 1524 L 1152 1500 L 1104 1500 "/>
<glyph glyph-name="k" unicode="&#x6b;" horiz-adv-x="0" d="M 1104 1704 L 1176 1716 L 1224 1740 L 1248 1752 L 1392 1896 L 1428 1956 L 1440 2028 L 1440 3060 L 1620 2952 L 1680 2904 L 1704 2856 L 1704 2820 L 1704 2712 L 1692 2592 Q 1668 2532 1644 2484 Q 1620 2484 1608 2484 L 1512 2388 L 1500 2352 L 1512 2340 Q 1524 2340 1560 2340 L 1620 2364 L 1764 2508 Q 1812 2580 1836 2676 L 1860 2784 L 1860 2892 L 1860 2892 L 1860 2928 L 1848 2964 L 1824 3036 Q 1788 3096 1716 3144 L 1572 3264 L 1500 3324 L 1452 3408 L 1440 3444 L 1440 3504 L 1428 3528 Q 1428 3540 1404 3528 L 1296 3432 L 1284 3408 L 1284 2256 L 1248 2268 L 1188 2280 L 1128 2268 L 1056 2232 L 912 2088 L 876 2004 L 864 1932 L 876 1932 L 876 1884 L 900 1824 Q 924 1788 972 1752 L 1032 1716 L 1104 1704 "/>
<glyph glyph-name="l" unicode="&#x6c;" horiz-adv-x="0" d="M 1104 1920 L 1092 1920 L 1056 1920 L 1020 1932 L 972 1956 Q 924 1992 900 2040 L 876 2088 L 876 2136 L 864 2148 L 876 2220 L 912 2292 L 1056 2436 L 1116 2472 L 1152 2484 L 1188 2484 L 1188 2484 L 1248 2484 L 1284 2472 L 1284 3624 L 1296 3648 L 1404 3744 Q 1428 3744 1428 3744 L 1440 3720 L 1440 3648 L 1452 3612 L 1500 3540 L 1572 3468 L 1716 3360 Q 1788 3312 1824 3240 L 1848 3180 L 1860 3144 L 1860 3096 L 1860 3096 L 1860 3000 L 1836 2880 Q 1812 2784 1764 2724 L 1620 2580 L 1560 2544 Q 1524 2544 1512 2556 L 1500 2568 L 1512 2592 L 1608 2688 Q 1620 2700 1644 2700 Q 1668 2736 1692 2796 L 1704 2916 L 1704 3036 L 1704 3060 L 1680 3108 L 1620 3168 L 1440 3276 L 1440 2232 L 1440 2232 L 1440 2196 L 1428 2160 L 1392 2112 L 1248 1956 L 1224 1944 L 1152 1920 L 1104 1920 "/>
<glyph glyph-name="m" unicode="&#x6d;" horiz-adv-x="0" d="M 1104 2124 L 1176 2136 L 1224 2160 L 1248 2172 L 1392 2316 L 1428 2376 L 1440 2448 L 1440 3480 L 1620 3372 L 1680 3324 L 1704 3276 L 1704 3240 L 1704 3132 L 1692 3012 Q 1668 2952 1644 2904 Q 1620 2904 1608 2904 L 1512 2808 L 1500 2772 L 1512 2760 Q 1524 2760 1560 2760 L 1620 2784 L 1764 2928 Q 1812 3000 1836 3096 L 1860 3204 L 1860 3312 L 1860 3312 L 1860 3348 L 1848 3384 L 1824 3456 Q 1788 3516 1716 3564 L 1572 3684 L 1500 3744 L 1452 3828 L 1440 3864 L 1440 3924 L 1428 3948 Q 1428 3960 1404 3948 L 1296 3852 L 1284 3828 L 1284 2676 L 1248 2688 L 1188 2700 L 1128 2688 L 1056 2652 L 912 2508 L 876 2424 L 864 2352 L 876 2352 L 876 2304 L 900 2244 Q 924 2208 972 2172 L 1032 2136 L 1104 2124 "/>
<glyph glyph-name="n" unicode="&#x6e;" horiz-adv-x="0" d="M 1104 2340 L 1092 2340 L 1056 2340 L 1020 2352 L 972 2376 Q 924 2412 900 2460 L 876 2508 L 876 2556 L 864 2568 L 876 2640 L 912 2712 L 1056 2856 L 1116 2892 L 1152 2904 L 1188 2904 L 1188 2904 L 1248 2904 L 1284 2892 L 1284 4044 L 1296 4068 L 1404 4164 Q 1428 4164 1428 4164 L 1440 4140 L 1440 4068 L 1452 4032 L 1500 3960 L 1572 3888 L 1716 3780 Q 1788 3732 1824 3660 L 1848 3600 L 1860 3564 L 1860 3516 L 1860 3516 L 1860 3420 L 1836 3300 Q 1812 3204 1764 3144 L 1620 3000 L 1560 2964 Q 1524 2964 1512 2976 L 1500 2988 L 1512 3012 L 1608 3108 Q 1620 3120 1644 3120 Q 1668 3156 1692 3216 L 1704 3336 L 1704 3456 L 1704 3480 L 1680 3528 L 1620 3588 L 1440 3696 L 1440 2652 L 1440 2652 L 1440 2616 L 1428 2580 L 1392 2532 L 1248 2376 L 1224 2364 L 1152 2340 L 1104 2340 "/>
<glyph glyph-name="o" unicode="&#x6f;" horiz-adv-x="0" d="M 1104 2544 L 1176 2556 L 1224 2580 L 1248 2592 L 1392 2736 L 1428 2796 L 1440 2868 L 1440 3900 L 1620 3792 L 1680 3744 L 1704 3696 L 1704 3660 L 1704 3552 L 1692 3432 Q 1668 3372 1644 3324 Q 1620 3324 1608 3324 L 1512 3228 L 1500 3192 L 1512 3180 Q 1524 3180 1560 3180 L 1620 3204 L 1764 3348 Q 1812 3420 1836 3516 L 1860 3624 L 1860 3732 L 1860 3732 L 1860 3768 L 1848 3804 L 1824 3876 Q 1788 3936 1716 3984 L 1572 4104 L 1500 4164 L 1452 4248 L 1440 4284 L 1440 4344 L 1428 4368 Q 1428 4380 1404 4368 L 1296 4272 L 1284 4248 L 1284 3096 L 1248 3108 L 1188 3120 L 1128 3108 L 1056 3072 L 912 2928 L 876 2844 L 864 2772 L 876 2772 L 876 2724 L 900 2664 Q 924 2628 972 2592 L 1032 2556 L 1104 2544 "/>
<glyph glyph-name="p" unicode="&#x70;" horiz-adv-x="0" d="M 1104 2760 L 1092 2760 L 1056 2760 L 1020 2772 L 972 2796 Q 924 2832 900 2880 L 876 2928 L 876 2976 L 864 2988 L 876 3060 L 912 3132 L 1056 3276 L 1116 3312 L 1152 3324 L 1188 3324 L 1188 3324 L 1248 3324 L 1284 3312 L 1284 4464 L 1296 4488 L 1404 4584 Q 1428 4584 1428 4584 L 1440 4560 L 1440 4488 L 1452 4452 L 1500 4380 L 1572 4308 L 1716 4200 Q 1788 4152 1824 4080 L 1848 4020 L 1860 3984 L 1860 3936 L 1860 3936 L 1860 3840 L 1836 3720 Q 1812 3624 1764 3564 L 1620 3420 L 1560 3384 Q 1524 3384 1512 3396 L 1500 3408 L 1512 3432 L 1608 3528 Q 1620 3540 1644 3540 Q 1668 3576 1692 3636 L 1704 3756 L 1704 3876 L 1704 3900 L 1680 3948 L 1620 4008 L 1440 4116 L 1440 3072 L 1440 3072 L 1440 3036 L 1428 3000 L 1392 2952 L 1248 2796 L 1224 2784 L 1152 2760 L 1104 2760 "/>
<glyph glyph-name="q" unicode="&#x71;" horiz-adv-x="0" d="M 1104 2964 L 1176 2976 L 1224 3000 L 1248 3012 L 1392 3156 L 1428 3216 L 1440 3288 L 1440 4320 L 1620 4212 L 1680 4164 L 1704 4116 L 1704 4080 L 1704 3972 L 1692 3852 Q 1668 3792 1644 3744 Q 1620 3744 1608 3744 L 1512 3648 L 1500 3612 L 1512 3600 Q 1524 3600 1560 3600 L 1620 3624 L 1764 3768 Q 1812 3840 1836 3936 L 1860 4044 L 1860 4152 L 1860 4152 L 1860 4188 L 1848 4224 L 1824 4296 Q 1788 4356 1716 4404 L 1572 4524 L 1500 4584 L 1452 4668 L 1440 4704 L 1440 4764 L 1428 4788 Q 1428 4800 1404 4788 L 1296 4692 L 1284 4668 L 1284 3516 L 1248 3528 L 1188 3540 L 1128 3528 L 1056 3492 L 912 3348 L 876 3264 L 864 3192 L 876 3192 L 876 3144 L 900 3084 Q 924 3048 972 3012 L 1032 2976 L 1104 2964 "/>
<glyph glyph-name="r" unicode="&#x72;" horiz-adv-x="0" d="M 1104 3180 L 1092 3180 L 1056 3180 L 1020 3192 L 972 3216 Q 924 3252 900 3300 L 876 3348 L 876 3396 L 864 3408 L 876 3480 L 912 3552 L 1056 3696 L 1116 3732 L 1152 3744 L 1188 3744 L 1188 3744 L 1248 3744 L 1284 3732 L 1284 4884 L 1296 4908 L 1404 5004 Q 1428 5004 1428 5004 L 1440 4980 L 1440 4908 L 1452 4872 L 1500 4800 L 1572 4728 L 1716 4620 Q 1788 4572 1824 4500 L 1848 4440 L 1860 4404 L 1860 4356 L 1860 4356 L 1860 4260 L 1836 4140 Q 1812 4044 1764 3984 L 1620 3840 L 1560 3804 Q 1524 3804 1512 3816 L 1500 3828 L 1512 3852 L 1608 3948 Q 1620 3960 1644 3960 Q 1668 3996 1692 4056 L 1704 4176 L 1704 4296 L 1704 4320 L 1680 4368 L 1620 4428 L 1440 4536 L 1440 3492 L 1440 3492 L 1440 3456 L 1428 3420 L 1392 3372 L 1248 3216 L 1224 3204 L 1152 3180 L 1104 3180 "/>
<glyph glyph-name="s" unicode="&#x73;" horiz-adv-x="0" d="M 888 2124 L 912 2136 L 1008 2232 L 1020 2256 L 1020 2340 L 1056 2448 Q 1092 2544 1164 2604 Q 1356 2748 1512 2928 Q 1584 3000 1620 3096 L 1644 3168 L 1644 3228 L 1644 3228 L 1644 3288 L 1656 3288 L 1644 3324 Q 1632 3324 1608 3324 L 1512 3228 Q 1500 3204 1500 3156 L 1488 3084 Q 1464 3036 1416 2988 L 1164 2808 L 1020 2676 L 1020 3408 L 1056 3384 L 1116 3384 L 1128 3384 L 1152 3384 L 1200 3408 L 1248 3432 L 1392 3576 L 1428 3648 L 1440 3732 L 1440 3732 L 1428 3780 L 1416 3828 Q 1380 3876 1344 3912 L 1272 3948 L 1188 3960 L 1188 3948 L 1152 3948 L 1116 3936 L 1056 3912 L 912 3768 L 888 3720 L 876 3672 L 876 3636 L 864 3636 L 864 2160 L 876 2136 L 888 2124 "/>
<glyph glyph-name="t" unicode="&#x74;" horiz-adv-x="0" d="M 888 2340 L 876 2340 L 864 2376 L 864 3828 L 876 3828 L 876 3876 L 888 3924 L 924 3984 L 1056 4116 Q 1092 4152 1152 4164 L 1248 4164 Q 1308 4152 1344 4116 Q 1416 4068 1440 3972 L 1440 3888 Q 1428 3828 1392 3780 L 1248 3648 Q 1212 3612 1152 3600 L 1068 3600 L 1020 3612 L 1020 2892 Q 1092 2976 1188 3036 L 1416 3204 Q 1464 3240 1488 3300 L 1500 3372 L 1500 3408 L 1512 3432 L 1608 3528 Q 1632 3540 1644 3528 L 1644 3516 L 1644 3408 L 1620 3312 Q 1572 3216 1512 3132 Q 1356 2964 1164 2820 Q 1092 2748 1056 2652 L 1020 2544 L 1020 2472 L 1008 2436 L 912 2340 L 888 2340 "/>
<glyph glyph-name="u" unicode="&#x75;" horiz-adv-x="0" d="M 888 2544 L 912 2556 L 1008 2652 L 1020 2676 L 1020 2760 L 1056 2868 Q 1092 2964 1164 3024 Q 1356 3168 1512 3348 Q 1584 3420 1620 3516 L 1644 3588 L 1644 3648 L 1644 3648 L 1644 3708 L 1656 3708 L 1644 3744 Q 1632 3744 1608 3744 L 1512 3648 Q 1500 3624 1500 3576 L 1488 3504 Q 1464 3456 1416 3408 L 1164 3228 L 1020 3096 L 1020 3828 L 1056 3804 L 1116 3804 L 1128 3804 L 1152 3804 L 1200 3828 L 1248 3852 L 1392 3996 L 1428 4068 L 1440 4152 L 1440 4152 L 1428 4200 L 1416 4248 Q 1380 4296 1344 4332 L 1272 4368 L 1188 4380 L 1188 4368 L 1152 4368 L 1116 4356 L 1056 4332 L 912 4188 L 888 4140 L 876 4092 L 876 4056 L 864 4056 L 864 2580 L 876 2556 L 888 2544 "/>
<glyph glyph-name="v" unicode="&#x76;" horiz-adv-x="0" d="M 888 2760 L 876 2760 L 864 2796 L 864 4248 L 876 4248 L 876 4296 L 888 4344 L 924 4404 L 1056 4536 Q 1092 4572 1152 4584 L 1248 4584 Q 1308 4572 1344 4536 Q 1416 4488 1440 4392 L 1440 4308 Q 1428 4248 1392 4200 L 1248 4068 Q 1212 4032 1152 4020 L 1068 4020 L 1020 4032 L 1020 3312 Q 1092 3396 1188 3456 L 1416 3624 Q 1464 3660 1488 3720 L 1500 3792 L 1500 3828 L 1512 3852 L 1608 3948 Q 1632 3960 1644 3948 L 1644 3936 L 1644 3828 L 1620 3732 Q 1572 3636 1512 3552 Q 1356 3384 1164 3240 Q 1092 3168 1056 3072 L 1020 2964 L 1020 2892 L 1008 2856 L 912 2760 L 888 2760 "/>
<glyph glyph-name="w" unicode="&#x77;" horiz-adv-x="0" d="M 888 2964 L 912 2976 L 1008 3072 L 1020 3096 L 1020 3180 L 1056 3288 Q 1092 3384 1164 3444 Q 1356 3588 1512 3768 Q 1584 3840 1620 3936 L 1644 4008 L 1644 4068 L 1644 4068 L 1644 4128 L 1656 4128 L 1644 4164 Q 1632 4164 1608 4164 L 1512 4068 Q 1500 4044 1500 3996 L 1488 3924 Q 1464 3876 1416 3828 L 1164 3648 L 1020 3516 L 1020 4248 L 1056 4224 L 1116 4224 L 1128 4224 L 1152 4224 L 1200 4248 L 1248 4272 L 1392 4416 L 1428 4488 L 1440 4572 L 1440 4572 L 1428 4620 L 1416 4668 Q 1380 4716 1344 4752 L 1272 4788 L 1188 4800 L 1188 4788 L 1152 4788 L 1116 4776 L 1056 4752 L 912 4608 L 888 4560 L 876 4512 L 876 4476 L 864 4476 L 864 3000 L 876 2976 L 888 2964 "/>
<glyph glyph-name="x" unicode="&#x78;" horiz-adv-x="0" d="M 888 3180 L 876 3180 L 864 3216 L 864 4668 L 876 4668 L 876 4716 L 888 4764 L 924 4824 L 1056 4956 Q 1092 4992 1152 5004 L 1248 5004 Q 1308 4992 1344 4956 Q 1416 4908 1440 4812 L 1440 4728 Q 1428 4668 1392 4620 L 1248 4488 Q 1212 4452 1152 4440 L 1068 4440 L 1020 4452 L 1020 3732 Q 1092 3816 1188 3876 L 1416 4044 Q 1464 4080 1488 4140 L 1500 4212 L 1500 4248 L 1512 4272 L 1608 4368 Q 1632 4380 1644 4368 L 1644 4356 L 1644 4248 L 1620 4152 Q 1572 4056 1512 3972 Q 1356 3804 1164 3660 Q 1092 3588 1056 3492 L 1020 3384 L 1020 3312 L 1008 3276 L 912 3180 L 888 3180 "/>
<glyph glyph-name="y" unicode="&#x79;" horiz-adv-x="0" d="M 888 3384 L 912 3396 L 1008 3492 L 1020 3516 L 1020 3600 L 1056 3708 Q 1092 3804 1164 3864 Q 1356 4008 1512 4188 Q 1584 4260 1620 4356 L 1644 4428 L 1644 4488 L 1644 4488 L 1644 4548 L 1656 4548 L 1644 4584 Q 1632 4584 1608 4584 L 1512 4488 Q 1500 4464 1500 4416 L 1488 4344 Q 1464 4296 1416 4248 L 1164 4068 L 1020 3936 L 1020 4668 L 1056 4644 L 1116 4644 L 1128 4644 L 1152 4644 L 1200 4668 L 1248 4692 L 1392 4836 L 1428 4908 L 1440 4992 L 1440 4992 L 1428 5040 L 1416 5088 Q 1380 5136 1344 5172 L 1272 5208 L 1188 5220 L 1188 5208 L 1152 5208 L 1116 5196 L 1056 5172 L 912 5028 L 888 4980 L 876 4932 L 876 4896 L 864 4896 L 864 3420 L 876 3396 L 888 3384 "/>
<glyph glyph-name="z" unicode="&#x7a;" horiz-adv-x="0" d="M 888 3600 L 876 3600 L 864 3636 L 864 5088 L 876 5088 L 876 5136 L 888 5184 L 924 5244 L 1056 5376 Q 1092 5412 1152 5424 L 1248 5424 Q 1308 5412 1344 5376 Q 1416 5328 1440 5232 L 1440 5148 Q 1428 5088 1392 5040 L 1248 4908 Q 1212 4872 1152 4860 L 1068 4860 L 1020 4872 L 1020 4152 Q 1092 4236 1188 4296 L 1416 4464 Q 1464 4500 1488 4560 L 1500 4632 L 1500 4668 L 1512 4692 L 1608 4788 Q 1632 4800 1644 4788 L 1644 4776 L 1644 4668 L 1620 4572 Q 1572 4476 1512 4392 Q 1356 4224 1164 4080 Q 1092 4008 1056 3912 L 1020 3804 L 1020 3732 L 1008 3696 L 912 3600 L 888 3600 "/>
<glyph glyph-name="braceleft" unicode="&#x7b;" horiz-adv-x="0" d="M 888 3804 L 912 3816 L 1008 3912 L 1020 3936 L 1020 4020 L 1056 4128 Q 1092 4224 1164 4284 Q 1356 4428 1512 4608 Q 1584 4680 1620 4776 L 1644 4848 L 1644 4908 L 1644 4908 L 1644 4968 L 1656 4968 L 1644 5004 Q 1632 5004 1608 5004 L 1512 4908 Q 1500 4884 1500 4836 L 1488 4764 Q 1464 4716 1416 4668 L 1164 4488 L 1020 4356 L 1020 5088 L 1056 5064 L 1116 5064 L 1128 5064 L 1152 5064 L 1200 5088 L 1248 5112 L 1392 5256 L 1428 5328 L 1440 5412 L 1440 5412 L 1428 5460 L 1416 5508 Q 1380 5556 1344 5592 L 1272 5628 L 1188 5640 L 1188 5628 L 1152 5628 L 1116 5616 L 1056 5592 L 912 5448 L 888 5400 L 876 5352 L 876 5316 L 864 5316 L 864 3840 L 876 3816 L 888 3804 "/>
<glyph glyph-name="braceright" unicode="&#x7d;" horiz-adv-x="0" d="M 888 4020 L 876 4020 L 864 4056 L 864 5508 L 876 5508 L 876 5556 L 888 5604 L 924 5664 L 1056 5796 Q 1092 5832 1152 5844 L 1248 5844 Q 1308 5832 1344 5796 Q 1416 5748 1440 5652 L 1440 5568 Q 1428 5508 1392 5460 L 1248 5328 Q 1212 5292 1152 5280 L 1068 5280 L 1020 5292 L 1020 4572 Q 1092 4656 1188 4716 L 1416 4884 Q 1464 4920 1488 4980 L 1500 5052 L 1500 5088 L 1512 5112 L 1608 5208 Q 1632 5220 1644 5208 L 1644 5196 L 1644 5088 L 1620 4992 Q 1572 4896 1512 4812 Q 1356 4644 1164 4500 Q 1092 4428 1056 4332 L 1020 4224 L 1020 4152 L 1008 4116 L 912 4020 L 888 4020 "/>
<glyph glyph-name="asciitilde" unicode="&#x7e;" horiz-adv-x="0" d="M 1524 2124 L 1548 2136 L 2064 2652 L 2076 2676 L 2064 2676 L 2064 2724 L 2064 2760 L 2016 2856 Q 1980 2928 1920 2988 L 1836 3048 L 1608 3204 L 1512 3288 Q 1476 3336 1452 3396 L 1440 3456 L 1440 3504 L 1428 3528 Q 1428 3540 1404 3528 L 1296 3432 L 1284 3408 L 1284 2376 L 1296 2340 Q 1308 2340 1332 2340 L 1428 2436 L 1440 2460 L 1440 2712 L 1572 2604 L 1644 2544 L 1692 2472 L 1704 2412 L 1704 2376 L 1512 2172 L 1500 2148 L 1512 2136 L 1524 2124 M 1860 2520 Q 1836 2604 1788 2664 L 1716 2736 L 1548 2868 Q 1488 2916 1452 2988 L 1440 3048 L 1440 3096 L 1524 3036 Q 1656 2952 1776 2856 Q 1836 2808 1872 2748 L 1908 2688 L 1920 2628 L 1920 2580 L 1860 2520 "/>
<glyph glyph-name="exclamdown" unicode="&#xa1;" horiz-adv-x="0" d="M 1524 2340 L 1512 2340 L 1500 2352 L 1512 2388 L 1704 2580 L 1704 2616 L 1692 2676 L 1644 2748 L 1572 2820 L 1440 2928 L 1440 2676 L 1428 2652 L 1332 2544 Q 1308 2544 1296 2556 L 1284 2592 L 1284 3612 L 1296 3648 L 1404 3744 Q 1428 3744 1428 3744 L 1440 3708 L 1440 3672 L 1452 3600 Q 1476 3540 1512 3504 L 1608 3408 L 1848 3252 L 1920 3192 Q 1980 3132 2016 3072 L 2052 2988 L 2064 2928 L 2064 2868 L 2064 2856 L 1548 2340 L 1524 2340 M 1860 2736 L 1920 2796 L 1920 2832 L 1908 2904 L 1872 2964 Q 1836 3024 1776 3072 L 1692 3132 L 1512 3252 L 1440 3312 L 1440 3252 L 1452 3192 Q 1488 3120 1548 3084 L 1716 2940 L 1788 2880 Q 1836 2820 1860 2736 "/>
<glyph glyph-name="cent" unicode="&#xa2;" horiz-adv-x="0" d="M 1524 2544 L 1548 2556 L 2064 3072 L 2076 3096 L 2064 3096 L 2064 3144 L 2064 3180 L 2016 3276 Q 1980 3348 1920 3408 L 1836 3468 L 1608 3624 L 1512 3708 Q 1476 3756 1452 3816 L 1440 3876 L 1440 3924 L 1428 3948 Q 1428 3960 1404 3948 L 1296 3852 L 1284 3828 L 1284 2796 L 1296 2760 Q 1308 2760 1332 2760 L 1428 2856 L 1440 2880 L 1440 3132 L 1572 3024 L 1644 2964 L 1692 2892 L 1704 2832 L 1704 2796 L 1512 2592 L 1500 2568 L 1512 2556 L 1524 2544 M 1860 2940 Q 1836 3024 1788 3084 L 1716 3156 L 1548 3288 Q 1488 3336 1452 3408 L 1440 3468 L 1440 3516 L 1524 3456 Q 1656 3372 1776 3276 Q 1836 3228 1872 3168 L 1908 3108 L 1920 3048 L 1920 3000 L 1860 2940 "/>
<glyph glyph-name="sterling" unicode="&#xa3;" horiz-adv-x="0" d="M 1524 2760 L 1512 2760 L 1500 2772 L 1512 2808 L 1704 3000 L 1704 3036 L 1692 3096 L 1644 3168 L 1572 3240 L 1440 3348 L 1440 3096 L 1428 3072 L 1332 2964 Q 1308 2964 1296 2976 L 1284 3012 L 1284 4032 L 1296 4068 L 1404 4164 Q 1428 4164 1428 4164 L 1440 4128 L 1440 4092 L 1452 4020 Q 1476 3960 1512 3924 L 1608 3828 L 1848 3672 L 1920 3612 Q 1980 3552 2016 3492 L 2052 3408 L 2064 3348 L 2064 3288 L 2064 3276 L 1548 2760 L 1524 2760 M 1860 3156 L 1920 3216 L 1920 3252 L 1908 3324 L 1872 3384 Q 1836 3444 1776 3492 L 1692 3552 L 1512 3672 L 1440 3732 L 1440 3672 L 1452 3612 Q 1488 3540 1548 3504 L 1716 3360 L 1788 3300 Q 1836 3240 1860 3156 "/>
<glyph glyph-name="currency" unicode="&#xa4;" horiz-adv-x="0" d="M 1524 2964 L 1548 2976 L 2064 3492 L 2076 3516 L 2064 3516 L 2064 3564 L 2064 3600 L 2016 3696 Q 1980 3768 1920 3828 L 1836 3888 L 1608 4044 L 1512 4128 Q 1476 4176 1452 4236 L 1440 4296 L 1440 4344 L 1428 4368 Q 1428 4380 1404 4368 L 1296 4272 L 1284 4248 L 1284 3216 L 1296 3180 Q 1308 3180 1332 3180 L 1428 3276 L 1440 3300 L 1440 3552 L 1572 3444 L 1644 3384 L 1692 3312 L 1704 3252 L 1704 3216 L 1512 3012 L 1500 2988 L 1512 2976 L 1524 2964 M 1860 3360 Q 1836 3444 1788 3504 L 1716 3576 L 1548 3708 Q 1488 3756 1452 3828 L 1440 3888 L 1440 3936 L 1524 3876 Q 1656 3792 1776 3696 Q 1836 3648 1872 3588 L 1908 3528 L 1920 3468 L 1920 3420 L 1860 3360 "/>
<glyph glyph-name="yen" unicode="&#xa5;" horiz-adv-x="0" d="M 1524 3180 L 1512 3180 L 1500 3192 L 1512 3228 L 1704 3420 L 1704 3456 L 1692 3516 L 1644 3588 L 1572 3660 L 1440 3768 L 1440 3516 L 1428 3492 L 1332 3384 Q 1308 3384 1296 3396 L 1284 3432 L 1284 4452 L 1296 4488 L 1404 4584 Q 1428 4584 1428 4584 L 1440 4548 L 1440 4512 L 1452 4440 Q 1476 4380 1512 4344 L 1608 4248 L 1848 4092 L 1920 4032 Q 1980 3972 2016 3912 L 2052 3828 L 2064 3768 L 2064 3708 L 2064 3696 L 1548 3180 L 1524 3180 M 1860 3576 L 1920 3636 L 1920 3672 L 1908 3744 L 1872 3804 Q 1836 3864 1776 3912 L 1692 3972 L 1512 4092 L 1440 4152 L 1440 4092 L 1452 4032 Q 1488 3960 1548 3924 L 1716 3780 L 1788 3720 Q 1836 3660 1860 3576 "/>
<glyph glyph-name="brokenbar" unicode="&#xa6;" horiz-adv-x="0" d="M 1524 3384 L 1548 3396 L 2064 3912 L 2076 3936 L 2064 3936 L 2064 3984 L 2064 4020 L 2016 4116 Q 1980 4188 1920 4248 L 1836 4308 L 1608 4464 L 1512 4548 Q 1476 4596 1452 4656 L 1440 4716 L 1440 4764 L 1428 4788 Q 1428 4800 1404 4788 L 1296 4692 L 1284 4668 L 1284 3636 L 1296 3600 Q 1308 3600 1332 3600 L 1428 3696 L 1440 3720 L 1440 3972 L 1572 3864 L 1644 3804 L 1692 3732 L 1704 3672 L 1704 3636 L 1512 3432 L 1500 3408 L 1512 3396 L 1524 3384 M 1860 3780 Q 1836 3864 1788 3924 L 1716 3996 L 1548 4128 Q 1488 4176 1452 4248 L 1440 4308 L 1440 4356 L 1524 4296 Q 1656 4212 1776 4116 Q 1836 4068 1872 4008 L 1908 3948 L 1920 3888 L 1920 3840 L 1860 3780 "/>
<glyph glyph-name="section" unicode="&#xa7;" horiz-adv-x="0" d="M 1524 3600 L 1512 3600 L 1500 3612 L 1512 3648 L 1704 3840 L 1704 3876 L 1692 3936 L 1644 4008 L 1572 4080 L 1440 4188 L 1440 3936 L 1428 3912 L 1332 3804 Q 1308 3804 1296 3816 L 1284 3852 L 1284 4872 L 1296 4908 L 1404 5004 Q 1428 5004 1428 5004 L 1440 4968 L 1440 4932 L 1452 4860 Q 1476 4800 1512 4764 L 1608 4668 L 1848 4512 L 1920 4452 Q 1980 4392 2016 4332 L 2052 4248 L 2064 4188 L 2064 4128 L 2064 4116 L 1548 3600 L 1524 3600 M 1860 3996 L 1920 4056 L 1920 4092 L 1908 4164 L 1872 4224 Q 1836 4284 1776 4332 L 1692 4392 L 1512 4512 L 1440 4572 L 1440 4512 L 1452 4452 Q 1488 4380 1548 4344 L 1716 4200 L 1788 4140 Q 1836 4080 1860 3996 "/>
<glyph glyph-name="dieresis" unicode="&#xa8;" horiz-adv-x="0" d="M 1524 3804 L 1548 3816 L 2064 4332 L 2076 4356 L 2064 4356 L 2064 4404 L 2064 4440 L 2016 4536 Q 1980 4608 1920 4668 L 1836 4728 L 1608 4884 L 1512 4968 Q 1476 5016 1452 5076 L 1440 5136 L 1440 5184 L 1428 5208 Q 1428 5220 1404 5208 L 1296 5112 L 1284 5088 L 1284 4056 L 1296 4020 Q 1308 4020 1332 4020 L 1428 4116 L 1440 4140 L 1440 4392 L 1572 4284 L 1644 4224 L 1692 4152 L 1704 4092 L 1704 4056 L 1512 3852 L 1500 3828 L 1512 3816 L 1524 3804 M 1860 4200 Q 1836 4284 1788 4344 L 1716 4416 L 1548 4548 Q 1488 4596 1452 4668 L 1440 4728 L 1440 4776 L 1524 4716 Q 1656 4632 1776 4536 Q 1836 4488 1872 4428 L 1908 4368 L 1920 4308 L 1920 4260 L 1860 4200 "/>
<glyph glyph-name="copyright" unicode="&#xa9;" horiz-adv-x="0" d="M 888 2124 L 912 2136 L 1008 2232 L 1020 2244 L 1020 2292 L 1032 2364 Q 1056 2424 1104 2460 L 1380 2652 L 1548 2820 Q 1596 2868 1620 2940 L 1644 3000 L 1656 3084 L 1644 3108 Q 1632 3120 1608 3108 L 1512 3012 L 1500 2988 L 1500 2964 L 1488 2928 L 1464 2892 L 1392 2844 L 1140 2712 Q 1068 2676 1020 2616 L 1020 2712 Q 1032 2820 1104 2880 L 1380 3072 L 1548 3240 Q 1596 3288 1620 3360 L 1644 3420 L 1656 3504 L 1644 3528 Q 1632 3540 1608 3528 L 1512 3432 L 1500 3408 L 1500 3384 L 1488 3348 L 1464 3312 L 1392 3264 L 1176 3156 L 1116 3120 L 1080 3096 L 924 2940 L 888 2868 L 876 2832 L 876 2796 L 864 2796 L 864 2160 L 876 2136 L 888 2124 "/>
<glyph glyph-name="ordfeminine" unicode="&#xaa;" horiz-adv-x="0" d="M 888 2340 L 912 2340 L 1008 2436 L 1020 2460 L 1020 2508 L 1032 2568 Q 1056 2628 1104 2676 L 1380 2868 L 1548 3036 Q 1596 3084 1620 3144 L 1644 3216 L 1656 3288 L 1644 3324 Q 1632 3324 1608 3324 L 1512 3228 L 1500 3204 L 1500 3168 L 1488 3144 L 1464 3096 L 1392 3048 L 1140 2928 Q 1068 2880 1020 2832 L 1020 2928 Q 1032 3024 1104 3096 L 1380 3288 L 1548 3456 Q 1596 3504 1620 3564 L 1644 3636 L 1656 3708 L 1644 3744 Q 1632 3744 1608 3744 L 1512 3648 L 1500 3624 L 1500 3588 L 1488 3564 L 1464 3516 L 1392 3468 L 1176 3372 L 1116 3324 L 1080 3300 L 924 3144 L 888 3084 L 876 3036 L 876 3000 L 864 3000 L 864 2364 L 876 2340 L 888 2340 "/>
<glyph glyph-name="guillemotleft" unicode="&#xab;" horiz-adv-x="0" d="M 888 2544 L 912 2556 L 1008 2652 L 1020 2664 L 1020 2712 L 1032 2784 Q 1056 2844 1104 2880 L 1380 3072 L 1548 3240 Q 1596 3288 1620 3360 L 1644 3420 L 1656 3504 L 1644 3528 Q 1632 3540 1608 3528 L 1512 3432 L 1500 3408 L 1500 3384 L 1488 3348 L 1464 3312 L 1392 3264 L 1140 3132 Q 1068 3096 1020 3036 L 1020 3132 Q 1032 3240 1104 3300 L 1380 3492 L 1548 3660 Q 1596 3708 1620 3780 L 1644 3840 L 1656 3924 L 1644 3948 Q 1632 3960 1608 3948 L 1512 3852 L 1500 3828 L 1500 3804 L 1488 3768 L 1464 3732 L 1392 3684 L 1176 3576 L 1116 3540 L 1080 3516 L 924 3360 L 888 3288 L 876 3252 L 876 3216 L 864 3216 L 864 2580 L 876 2556 L 888 2544 "/>
<glyph glyph-name="logicalnot" unicode="&#xac;" horiz-adv-x="0" d="M 888 2760 L 912 2760 L 1008 2856 L 1020 2880 L 1020 2928 L 1032 2988 Q 1056 3048 1104 3096 L 1380 3288 L 1548 3456 Q 1596 3504 1620 3564 L 1644 3636 L 1656 3708 L 1644 3744 Q 1632 3744 1608 3744 L 1512 3648 L 1500 3624 L 1500 3588 L 1488 3564 L 1464 3516 L 1392 3468 L 1140 3348 Q 1068 3300 1020 3252 L 1020 3348 Q 1032 3444 1104 3516 L 1380 3708 L 1548 3876 Q 1596 3924 1620 3984 L 1644 4056 L 1656 4128 L 1644 4164 Q 1632 4164 1608 4164 L 1512 4068 L 1500 4044 L 1500 4008 L 1488 3984 L 1464 3936 L 1392 3888 L 1176 3792 L 1116 3744 L 1080 3720 L 924 3564 L 888 3504 L 876 3456 L 876 3420 L 864 3420 L 864 2784 L 876 2760 L 888 2760 "/>
<glyph glyph-name="registered" unicode="&#xae;" horiz-adv-x="0" d="M 888 2964 L 912 2976 L 1008 3072 L 1020 3084 L 1020 3132 L 1032 3204 Q 1056 3264 1104 3300 L 1380 3492 L 1548 3660 Q 1596 3708 1620 3780 L 1644 3840 L 1656 3924 L 1644 3948 Q 1632 3960 1608 3948 L 1512 3852 L 1500 3828 L 1500 3804 L 1488 3768 L 1464 3732 L 1392 3684 L 1140 3552 Q 1068 3516 1020 3456 L 1020 3552 Q 1032 3660 1104 3720 L 1380 3912 L 1548 4080 Q 1596 4128 1620 4200 L 1644 4260 L 1656 4344 L 1644 4368 Q 1632 4380 1608 4368 L 1512 4272 L 1500 4248 L 1500 4224 L 1488 4188 L 1464 4152 L 1392 4104 L 1176 3996 L 1116 3960 L 1080 3936 L 924 3780 L 888 3708 L 876 3672 L 876 3636 L 864 3636 L 864 3000 L 876 2976 L 888 2964 "/>
<glyph glyph-name="overscore" unicode="&#xaf;" horiz-adv-x="0" d="M 888 3180 L 912 3180 L 1008 3276 L 1020 3300 L 1020 3348 L 1032 3408 Q 1056 3468 1104 3516 L 1380 3708 L 1548 3876 Q 1596 3924 1620 3984 L 1644 4056 L 1656 4128 L 1644 4164 Q 1632 4164 1608 4164 L 1512 4068 L 1500 4044 L 1500 4008 L 1488 3984 L 1464 3936 L 1392 3888 L 1140 3768 Q 1068 3720 1020 3672 L 1020 3768 Q 1032 3864 1104 3936 L 1380 4128 L 1548 4296 Q 1596 4344 1620 4404 L 1644 4476 L 1656 4548 L 1644 4584 Q 1632 4584 1608 4584 L 1512 4488 L 1500 4464 L 1500 4428 L 1488 4404 L 1464 4356 L 1392 4308 L 1176 4212 L 1116 4164 L 1080 4140 L 924 3984 L 888 3924 L 876 3876 L 876 3840 L 864 3840 L 864 3204 L 876 3180 L 888 3180 "/>
<glyph glyph-name="degree" unicode="&#xb0;" horiz-adv-x="0" d="M 888 3384 L 912 3396 L 1008 3492 L 1020 3504 L 1020 3552 L 1032 3624 Q 1056 3684 1104 3720 L 1380 3912 L 1548 4080 Q 1596 4128 1620 4200 L 1644 4260 L 1656 4344 L 1644 4368 Q 1632 4380 1608 4368 L 1512 4272 L 1500 4248 L 1500 4224 L 1488 4188 L 1464 4152 L 1392 4104 L 1140 3972 Q 1068 3936 1020 3876 L 1020 3972 Q 1032 4080 1104 4140 L 1380 4332 L 1548 4500 Q 1596 4548 1620 4620 L 1644 4680 L 1656 4764 L 1644 4788 Q 1632 4800 1608 4788 L 1512 4692 L 1500 4668 L 1500 4644 L 1488 4608 L 1464 4572 L 1392 4524 L 1176 4416 L 1116 4380 L 1080 4356 L 924 4200 L 888 4128 L 876 4092 L 876 4056 L 864 4056 L 864 3420 L 876 3396 L 888 3384 "/>
<glyph glyph-name="plusminus" unicode="&#xb1;" horiz-adv-x="0" d="M 888 3600 L 912 3600 L 1008 3696 L 1020 3720 L 1020 3768 L 1032 3828 Q 1056 3888 1104 3936 L 1380 4128 L 1548 4296 Q 1596 4344 1620 4404 L 1644 4476 L 1656 4548 L 1644 4584 Q 1632 4584 1608 4584 L 1512 4488 L 1500 4464 L 1500 4428 L 1488 4404 L 1464 4356 L 1392 4308 L 1140 4188 Q 1068 4140 1020 4092 L 1020 4188 Q 1032 4284 1104 4356 L 1380 4548 L 1548 4716 Q 1596 4764 1620 4824 L 1644 4896 L 1656 4968 L 1644 5004 Q 1632 5004 1608 5004 L 1512 4908 L 1500 4884 L 1500 4848 L 1488 4824 L 1464 4776 L 1392 4728 L 1176 4632 L 1116 4584 L 1080 4560 L 924 4404 L 888 4344 L 876 4296 L 876 4260 L 864 4260 L 864 3624 L 876 3600 L 888 3600 "/>
<glyph glyph-name="twosuperior" unicode="&#xb2;" horiz-adv-x="0" d="M 888 3804 L 912 3816 L 1008 3912 L 1020 3924 L 1020 3972 L 1032 4044 Q 1056 4104 1104 4140 L 1380 4332 L 1548 4500 Q 1596 4548 1620 4620 L 1644 4680 L 1656 4764 L 1644 4788 Q 1632 4800 1608 4788 L 1512 4692 L 1500 4668 L 1500 4644 L 1488 4608 L 1464 4572 L 1392 4524 L 1140 4392 Q 1068 4356 1020 4296 L 1020 4392 Q 1032 4500 1104 4560 L 1380 4752 L 1548 4920 Q 1596 4968 1620 5040 L 1644 5100 L 1656 5184 L 1644 5208 Q 1632 5220 1608 5208 L 1512 5112 L 1500 5088 L 1500 5064 L 1488 5028 L 1464 4992 L 1392 4944 L 1176 4836 L 1116 4800 L 1080 4776 L 924 4620 L 888 4548 L 876 4512 L 876 4476 L 864 4476 L 864 3840 L 876 3816 L 888 3804 "/>
<glyph glyph-name="threesuperior" unicode="&#xb3;" horiz-adv-x="0" d="M 888 4020 L 912 4020 L 1008 4116 L 1020 4140 L 1020 4188 L 1032 4248 Q 1056 4308 1104 4356 L 1380 4548 L 1548 4716 Q 1596 4764 1620 4824 L 1644 4896 L 1656 4968 L 1644 5004 Q 1632 5004 1608 5004 L 1512 4908 L 1500 4884 L 1500 4848 L 1488 4824 L 1464 4776 L 1392 4728 L 1140 4608 Q 1068 4560 1020 4512 L 1020 4608 Q 1032 4704 1104 4776 L 1380 4968 L 1548 5136 Q 1596 5184 1620 5244 L 1644 5316 L 1656 5388 L 1644 5424 Q 1632 5424 1608 5424 L 1512 5328 L 1500 5304 L 1500 5268 L 1488 5244 L 1464 5196 L 1392 5148 L 1176 5052 L 1116 5004 L 1080 4980 L 924 4824 L 888 4764 L 876 4716 L 876 4680 L 864 4680 L 864 4044 L 876 4020 L 888 4020 "/>
<glyph glyph-name="acute" unicode="&#xb4;" horiz-adv-x="0" d="M 1764 1656 L 1788 1656 L 1908 1776 L 1920 1800 L 1908 1812 L 1824 1908 L 1800 1908 L 1788 1908 L 1668 1788 L 1656 1764 L 1668 1740 L 1752 1656 L 1764 1656 "/>
<glyph glyph-name="mu" unicode="&#xb5;" horiz-adv-x="0" d="M 1764 2076 L 1788 2076 L 1908 2196 L 1920 2220 L 1908 2232 L 1824 2328 L 1800 2328 L 1788 2328 L 1668 2208 L 1656 2184 L 1668 2160 L 1752 2076 L 1764 2076 "/>
<glyph glyph-name="paragraph" unicode="&#xb6;" horiz-adv-x="0" d="M 1764 2496 L 1788 2496 L 1908 2616 L 1920 2640 L 1908 2652 L 1824 2748 L 1800 2748 L 1788 2748 L 1668 2628 L 1656 2604 L 1668 2580 L 1752 2496 L 1764 2496 "/>
<glyph glyph-name="middot" unicode="&#xb7;" horiz-adv-x="0" d="M 1764 2916 L 1788 2916 L 1908 3036 L 1920 3060 L 1908 3072 L 1824 3168 L 1800 3168 L 1788 3168 L 1668 3048 L 1656 3024 L 1668 3000 L 1752 2916 L 1764 2916 "/>
<glyph glyph-name="cedilla" unicode="&#xb8;" horiz-adv-x="0" d="M 1764 3336 L 1788 3336 L 1908 3456 L 1920 3480 L 1908 3492 L 1824 3588 L 1800 3588 L 1788 3588 L 1668 3468 L 1656 3444 L 1668 3420 L 1752 3336 L 1764 3336 "/>
<glyph glyph-name="onesuperior" unicode="&#xb9;" horiz-adv-x="0" d="M 1764 3756 L 1788 3756 L 1908 3876 L 1920 3900 L 1908 3912 L 1824 4008 L 1800 4008 L 1788 4008 L 1668 3888 L 1656 3864 L 1668 3840 L 1752 3756 L 1764 3756 "/>
<glyph glyph-name="ordmasculine" unicode="&#xba;" horiz-adv-x="0" d="M 1764 4176 L 1788 4176 L 1908 4296 L 1920 4320 L 1908 4332 L 1824 4428 L 1800 4428 L 1788 4428 L 1668 4308 L 1656 4284 L 1668 4260 L 1752 4176 L 1764 4176 "/>
<glyph glyph-name="guillemotright" unicode="&#xbb;" horiz-adv-x="0" d="M 1764 4596 L 1788 4596 L 1908 4716 L 1920 4740 L 1908 4752 L 1824 4848 L 1800 4848 L 1788 4848 L 1668 4728 L 1656 4704 L 1668 4680 L 1752 4596 L 1764 4596 "/>
<glyph glyph-name="onequarter" unicode="&#xbc;" horiz-adv-x="0" d="M 1764 5016 L 1788 5016 L 1908 5136 L 1920 5160 L 1908 5172 L 1824 5268 L 1800 5268 L 1788 5268 L 1668 5148 L 1656 5124 L 1668 5100 L 1752 5016 L 1764 5016 "/>
<glyph glyph-name="onehalf" unicode="&#xbd;" horiz-adv-x="0" d="M 1764 5436 L 1788 5436 L 1908 5556 L 1920 5580 L 1908 5592 L 1824 5688 L 1800 5688 L 1788 5688 L 1668 5568 L 1656 5544 L 1668 5520 L 1752 5436 L 1764 5436 "/>
<glyph glyph-name="threequarters" unicode="&#xbe;" horiz-adv-x="0" d="M 264 1284 L 252 1296 L 240 1320 L 240 1560 L 72 1500 Q 48 1500 36 1500 L 24 1524 L 36 1548 L 132 1632 L 228 1668 L 240 1680 L 240 1764 L 72 1704 Q 48 1704 36 1716 L 24 1740 L 36 1752 L 132 1848 L 228 1884 L 240 1884 L 240 2148 L 252 2172 L 348 2268 Q 372 2280 384 2268 L 396 2232 L 396 1932 L 444 1956 L 444 2148 L 456 2172 L 564 2268 Q 588 2280 588 2268 L 600 2232 L 600 2004 L 780 2064 L 804 2064 L 816 2040 L 804 2016 L 708 1920 L 612 1896 L 600 1884 L 600 1800 L 780 1860 L 804 1848 L 816 1824 L 804 1812 L 708 1716 L 612 1680 L 600 1668 L 600 1416 L 588 1392 L 492 1284 Q 468 1284 456 1296 L 444 1320 L 444 1620 L 396 1608 L 396 1416 L 384 1392 L 288 1296 L 264 1284 M 396 1728 L 444 1740 L 444 1836 L 444 1836 L 396 1824 L 396 1728 "/>
<glyph glyph-name="questiondown" unicode="&#xbf;" horiz-adv-x="0" d="M 264 1500 L 252 1500 L 240 1536 L 240 1764 L 72 1704 Q 48 1704 36 1716 L 24 1740 L 36 1752 L 132 1848 L 228 1884 L 240 1884 L 240 1968 L 72 1920 Q 48 1920 36 1920 L 24 1944 L 36 1968 L 132 2064 L 228 2088 L 240 2100 L 240 2352 L 252 2388 L 348 2484 Q 372 2484 384 2484 L 396 2448 L 396 2148 L 444 2160 L 444 2352 L 456 2388 L 564 2484 Q 588 2484 588 2484 L 600 2448 L 600 2220 L 780 2280 L 804 2268 L 816 2244 L 804 2232 L 708 2136 L 612 2100 L 600 2088 L 600 2004 L 780 2064 L 804 2064 L 816 2040 L 804 2016 L 708 1920 L 612 1896 L 600 1884 L 600 1632 L 588 1596 L 492 1500 Q 468 1500 456 1500 L 444 1536 L 444 1836 L 396 1824 L 396 1632 L 384 1596 L 288 1500 L 264 1500 M 396 1932 L 444 1956 L 444 2040 L 444 2040 L 396 2028 L 396 1932 "/>
<glyph glyph-name="Agrave" unicode="&#xc0;" horiz-adv-x="0" d="M 264 1704 L 252 1716 L 240 1740 L 240 1980 L 72 1920 Q 48 1920 36 1920 L 24 1944 L 36 1968 L 132 2052 L 228 2088 L 240 2100 L 240 2184 L 72 2124 Q 48 2124 36 2136 L 24 2160 L 36 2172 L 132 2268 L 228 2304 L 240 2304 L 240 2568 L 252 2592 L 348 2688 Q 372 2700 384 2688 L 396 2652 L 396 2352 L 444 2376 L 444 2568 L 456 2592 L 564 2688 Q 588 2700 588 2688 L 600 2652 L 600 2424 L 780 2484 L 804 2484 L 816 2460 L 804 2436 L 708 2340 L 612 2316 L 600 2304 L 600 2220 L 780 2280 L 804 2268 L 816 2244 L 804 2232 L 708 2136 L 612 2100 L 600 2088 L 600 1836 L 588 1812 L 492 1704 Q 468 1704 456 1716 L 444 1740 L 444 2040 L 396 2028 L 396 1836 L 384 1812 L 288 1716 L 264 1704 M 396 2148 L 444 2160 L 444 2256 L 444 2256 L 396 2244 L 396 2148 "/>
<glyph glyph-name="Aacute" unicode="&#xc1;" horiz-adv-x="0" d="M 264 1920 L 252 1920 L 240 1956 L 240 2184 L 72 2124 Q 48 2124 36 2136 L 24 2160 L 36 2172 L 132 2268 L 228 2304 L 240 2304 L 240 2388 L 72 2340 Q 48 2340 36 2340 L 24 2364 L 36 2388 L 132 2484 L 228 2508 L 240 2520 L 240 2772 L 252 2808 L 348 2904 Q 372 2904 384 2904 L 396 2868 L 396 2568 L 444 2580 L 444 2772 L 456 2808 L 564 2904 Q 588 2904 588 2904 L 600 2868 L 600 2640 L 780 2700 L 804 2688 L 816 2664 L 804 2652 L 708 2556 L 612 2520 L 600 2508 L 600 2424 L 780 2484 L 804 2484 L 816 2460 L 804 2436 L 708 2340 L 612 2316 L 600 2304 L 600 2052 L 588 2016 L 492 1920 Q 468 1920 456 1920 L 444 1956 L 444 2256 L 396 2244 L 396 2052 L 384 2016 L 288 1920 L 264 1920 M 396 2352 L 444 2376 L 444 2460 L 444 2460 L 396 2448 L 396 2352 "/>
<glyph glyph-name="Acircumflex" unicode="&#xc2;" horiz-adv-x="0" d="M 264 2124 L 252 2136 L 240 2160 L 240 2400 L 72 2340 Q 48 2340 36 2340 L 24 2364 L 36 2388 L 132 2472 L 228 2508 L 240 2520 L 240 2604 L 72 2544 Q 48 2544 36 2556 L 24 2580 L 36 2592 L 132 2688 L 228 2724 L 240 2724 L 240 2988 L 252 3012 L 348 3108 Q 372 3120 384 3108 L 396 3072 L 396 2772 L 444 2796 L 444 2988 L 456 3012 L 564 3108 Q 588 3120 588 3108 L 600 3072 L 600 2844 L 780 2904 L 804 2904 L 816 2880 L 804 2856 L 708 2760 L 612 2736 L 600 2724 L 600 2640 L 780 2700 L 804 2688 L 816 2664 L 804 2652 L 708 2556 L 612 2520 L 600 2508 L 600 2256 L 588 2232 L 492 2124 Q 468 2124 456 2136 L 444 2160 L 444 2460 L 396 2448 L 396 2256 L 384 2232 L 288 2136 L 264 2124 M 396 2568 L 444 2580 L 444 2676 L 444 2676 L 396 2664 L 396 2568 "/>
<glyph glyph-name="Atilde" unicode="&#xc3;" horiz-adv-x="0" d="M 264 2340 L 252 2340 L 240 2376 L 240 2604 L 72 2544 Q 48 2544 36 2556 L 24 2580 L 36 2592 L 132 2688 L 228 2724 L 240 2724 L 240 2808 L 72 2760 Q 48 2760 36 2760 L 24 2784 L 36 2808 L 132 2904 L 228 2928 L 240 2940 L 240 3192 L 252 3228 L 348 3324 Q 372 3324 384 3324 L 396 3288 L 396 2988 L 444 3000 L 444 3192 L 456 3228 L 564 3324 Q 588 3324 588 3324 L 600 3288 L 600 3060 L 780 3120 L 804 3108 L 816 3084 L 804 3072 L 708 2976 L 612 2940 L 600 2928 L 600 2844 L 780 2904 L 804 2904 L 816 2880 L 804 2856 L 708 2760 L 612 2736 L 600 2724 L 600 2472 L 588 2436 L 492 2340 Q 468 2340 456 2340 L 444 2376 L 444 2676 L 396 2664 L 396 2472 L 384 2436 L 288 2340 L 264 2340 M 396 2772 L 444 2796 L 444 2880 L 444 2880 L 396 2868 L 396 2772 "/>
<glyph glyph-name="Adieresis" unicode="&#xc4;" horiz-adv-x="0" d="M 264 2544 L 252 2556 L 240 2580 L 240 2820 L 72 2760 Q 48 2760 36 2760 L 24 2784 L 36 2808 L 132 2892 L 228 2928 L 240 2940 L 240 3024 L 72 2964 Q 48 2964 36 2976 L 24 3000 L 36 3012 L 132 3108 L 228 3144 L 240 3144 L 240 3408 L 252 3432 L 348 3528 Q 372 3540 384 3528 L 396 3492 L 396 3192 L 444 3216 L 444 3408 L 456 3432 L 564 3528 Q 588 3540 588 3528 L 600 3492 L 600 3264 L 780 3324 L 804 3324 L 816 3300 L 804 3276 L 708 3180 L 612 3156 L 600 3144 L 600 3060 L 780 3120 L 804 3108 L 816 3084 L 804 3072 L 708 2976 L 612 2940 L 600 2928 L 600 2676 L 588 2652 L 492 2544 Q 468 2544 456 2556 L 444 2580 L 444 2880 L 396 2868 L 396 2676 L 384 2652 L 288 2556 L 264 2544 M 396 2988 L 444 3000 L 444 3096 L 444 3096 L 396 3084 L 396 2988 "/>
<glyph glyph-name="Aring" unicode="&#xc5;" horiz-adv-x="0" d="M 264 2760 L 252 2760 L 240 2796 L 240 3024 L 72 2964 Q 48 2964 36 2976 L 24 3000 L 36 3012 L 132 3108 L 228 3144 L 240 3144 L 240 3228 L 72 3180 Q 48 3180 36 3180 L 24 3204 L 36 3228 L 132 3324 L 228 3348 L 240 3360 L 240 3612 L 252 3648 L 348 3744 Q 372 3744 384 3744 L 396 3708 L 396 3408 L 444 3420 L 444 3612 L 456 3648 L 564 3744 Q 588 3744 588 3744 L 600 3708 L 600 3480 L 780 3540 L 804 3528 L 816 3504 L 804 3492 L 708 3396 L 612 3360 L 600 3348 L 600 3264 L 780 3324 L 804 3324 L 816 3300 L 804 3276 L 708 3180 L 612 3156 L 600 3144 L 600 2892 L 588 2856 L 492 2760 Q 468 2760 456 2760 L 444 2796 L 444 3096 L 396 3084 L 396 2892 L 384 2856 L 288 2760 L 264 2760 M 396 3192 L 444 3216 L 444 3300 L 444 3300 L 396 3288 L 396 3192 "/>
<glyph glyph-name="AE" unicode="&#xc6;" horiz-adv-x="0" d="M 264 2964 L 252 2976 L 240 3000 L 240 3240 L 72 3180 Q 48 3180 36 3180 L 24 3204 L 36 3228 L 132 3312 L 228 3348 L 240 3360 L 240 3444 L 72 3384 Q 48 3384 36 3396 L 24 3420 L 36 3432 L 132 3528 L 228 3564 L 240 3564 L 240 3828 L 252 3852 L 348 3948 Q 372 3960 384 3948 L 396 3912 L 396 3612 L 444 3636 L 444 3828 L 456 3852 L 564 3948 Q 588 3960 588 3948 L 600 3912 L 600 3684 L 780 3744 L 804 3744 L 816 3720 L 804 3696 L 708 3600 L 612 3576 L 600 3564 L 600 3480 L 780 3540 L 804 3528 L 816 3504 L 804 3492 L 708 3396 L 612 3360 L 600 3348 L 600 3096 L 588 3072 L 492 2964 Q 468 2964 456 2976 L 444 3000 L 444 3300 L 396 3288 L 396 3096 L 384 3072 L 288 2976 L 264 2964 M 396 3408 L 444 3420 L 444 3516 L 444 3516 L 396 3504 L 396 3408 "/>
<glyph glyph-name="Ccedilla" unicode="&#xc7;" horiz-adv-x="0" d="M 264 3180 L 252 3180 L 240 3216 L 240 3444 L 72 3384 Q 48 3384 36 3396 L 24 3420 L 36 3432 L 132 3528 L 228 3564 L 240 3564 L 240 3648 L 72 3600 Q 48 3600 36 3600 L 24 3624 L 36 3648 L 132 3744 L 228 3768 L 240 3780 L 240 4032 L 252 4068 L 348 4164 Q 372 4164 384 4164 L 396 4128 L 396 3828 L 444 3840 L 444 4032 L 456 4068 L 564 4164 Q 588 4164 588 4164 L 600 4128 L 600 3900 L 780 3960 L 804 3948 L 816 3924 L 804 3912 L 708 3816 L 612 3780 L 600 3768 L 600 3684 L 780 3744 L 804 3744 L 816 3720 L 804 3696 L 708 3600 L 612 3576 L 600 3564 L 600 3312 L 588 3276 L 492 3180 Q 468 3180 456 3180 L 444 3216 L 444 3516 L 396 3504 L 396 3312 L 384 3276 L 288 3180 L 264 3180 M 396 3612 L 444 3636 L 444 3720 L 444 3720 L 396 3708 L 396 3612 "/>
<glyph glyph-name="Egrave" unicode="&#xc8;" horiz-adv-x="0" d="M 264 3384 L 252 3396 L 240 3420 L 240 3660 L 72 3600 Q 48 3600 36 3600 L 24 3624 L 36 3648 L 132 3732 L 228 3768 L 240 3780 L 240 3864 L 72 3804 Q 48 3804 36 3816 L 24 3840 L 36 3852 L 132 3948 L 228 3984 L 240 3984 L 240 4248 L 252 4272 L 348 4368 Q 372 4380 384 4368 L 396 4332 L 396 4032 L 444 4056 L 444 4248 L 456 4272 L 564 4368 Q 588 4380 588 4368 L 600 4332 L 600 4104 L 780 4164 L 804 4164 L 816 4140 L 804 4116 L 708 4020 L 612 3996 L 600 3984 L 600 3900 L 780 3960 L 804 3948 L 816 3924 L 804 3912 L 708 3816 L 612 3780 L 600 3768 L 600 3516 L 588 3492 L 492 3384 Q 468 3384 456 3396 L 444 3420 L 444 3720 L 396 3708 L 396 3516 L 384 3492 L 288 3396 L 264 3384 M 396 3828 L 444 3840 L 444 3936 L 444 3936 L 396 3924 L 396 3828 "/>
<glyph glyph-name="Eacute" unicode="&#xc9;" horiz-adv-x="0" d="M 264 3600 L 252 3600 L 240 3636 L 240 3864 L 72 3804 Q 48 3804 36 3816 L 24 3840 L 36 3852 L 132 3948 L 228 3984 L 240 3984 L 240 4068 L 72 4020 Q 48 4020 36 4020 L 24 4044 L 36 4068 L 132 4164 L 228 4188 L 240 4200 L 240 4452 L 252 4488 L 348 4584 Q 372 4584 384 4584 L 396 4548 L 396 4248 L 444 4260 L 444 4452 L 456 4488 L 564 4584 Q 588 4584 588 4584 L 600 4548 L 600 4320 L 780 4380 L 804 4368 L 816 4344 L 804 4332 L 708 4236 L 612 4200 L 600 4188 L 600 4104 L 780 4164 L 804 4164 L 816 4140 L 804 4116 L 708 4020 L 612 3996 L 600 3984 L 600 3732 L 588 3696 L 492 3600 Q 468 3600 456 3600 L 444 3636 L 444 3936 L 396 3924 L 396 3732 L 384 3696 L 288 3600 L 264 3600 M 396 4032 L 444 4056 L 444 4140 L 444 4140 L 396 4128 L 396 4032 "/>
<glyph glyph-name="Ecircumflex" unicode="&#xca;" horiz-adv-x="0" d="M 264 3804 L 252 3816 L 240 3840 L 240 4080 L 72 4020 Q 48 4020 36 4020 L 24 4044 L 36 4068 L 132 4152 L 228 4188 L 240 4200 L 240 4284 L 72 4224 Q 48 4224 36 4236 L 24 4260 L 36 4272 L 132 4368 L 228 4404 L 240 4404 L 240 4668 L 252 4692 L 348 4788 Q 372 4800 384 4788 L 396 4752 L 396 4452 L 444 4476 L 444 4668 L 456 4692 L 564 4788 Q 588 4800 588 4788 L 600 4752 L 600 4524 L 780 4584 L 804 4584 L 816 4560 L 804 4536 L 708 4440 L 612 4416 L 600 4404 L 600 4320 L 780 4380 L 804 4368 L 816 4344 L 804 4332 L 708 4236 L 612 4200 L 600 4188 L 600 3936 L 588 3912 L 492 3804 Q 468 3804 456 3816 L 444 3840 L 444 4140 L 396 4128 L 396 3936 L 384 3912 L 288 3816 L 264 3804 M 396 4248 L 444 4260 L 444 4356 L 444 4356 L 396 4344 L 396 4248 "/>
<glyph glyph-name="Edieresis" unicode="&#xcb;" horiz-adv-x="0" d="M 264 4020 L 252 4020 L 240 4056 L 240 4284 L 72 4224 Q 48 4224 36 4236 L 24 4260 L 36 4272 L 132 4368 L 228 4404 L 240 4404 L 240 4488 L 72 4440 Q 48 4440 36 4440 L 24 4464 L 36 4488 L 132 4584 L 228 4608 L 240 4620 L 240 4872 L 252 4908 L 348 5004 Q 372 5004 384 5004 L 396 4968 L 396 4668 L 444 4680 L 444 4872 L 456 4908 L 564 5004 Q 588 5004 588 5004 L 600 4968 L 600 4740 L 780 4800 L 804 4788 L 816 4764 L 804 4752 L 708 4656 L 612 4620 L 600 4608 L 600 4524 L 780 4584 L 804 4584 L 816 4560 L 804 4536 L 708 4440 L 612 4416 L 600 4404 L 600 4152 L 588 4116 L 492 4020 Q 468 4020 456 4020 L 444 4056 L 444 4356 L 396 4344 L 396 4152 L 384 4116 L 288 4020 L 264 4020 M 396 4452 L 444 4476 L 444 4560 L 444 4560 L 396 4548 L 396 4452 "/>
<glyph glyph-name="Igrave" unicode="&#xcc;" horiz-adv-x="0" d="M 264 4224 L 252 4236 L 240 4260 L 240 4500 L 72 4440 Q 48 4440 36 4440 L 24 4464 L 36 4488 L 132 4572 L 228 4608 L 240 4620 L 240 4704 L 72 4644 Q 48 4644 36 4656 L 24 4680 L 36 4692 L 132 4788 L 228 4824 L 240 4824 L 240 5088 L 252 5112 L 348 5208 Q 372 5220 384 5208 L 396 5172 L 396 4872 L 444 4896 L 444 5088 L 456 5112 L 564 5208 Q 588 5220 588 5208 L 600 5172 L 600 4944 L 780 5004 L 804 5004 L 816 4980 L 804 4956 L 708 4860 L 612 4836 L 600 4824 L 600 4740 L 780 4800 L 804 4788 L 816 4764 L 804 4752 L 708 4656 L 612 4620 L 600 4608 L 600 4356 L 588 4332 L 492 4224 Q 468 4224 456 4236 L 444 4260 L 444 4560 L 396 4548 L 396 4356 L 384 4332 L 288 4236 L 264 4224 M 396 4668 L 444 4680 L 444 4776 L 444 4776 L 396 4764 L 396 4668 "/>
<glyph glyph-name="Iacute" unicode="&#xcd;" horiz-adv-x="0" d="M 264 4440 L 252 4440 L 240 4476 L 240 4704 L 72 4644 Q 48 4644 36 4656 L 24 4680 L 36 4692 L 132 4788 L 228 4824 L 240 4824 L 240 4908 L 72 4860 Q 48 4860 36 4860 L 24 4884 L 36 4908 L 132 5004 L 228 5028 L 240 5040 L 240 5292 L 252 5328 L 348 5424 Q 372 5424 384 5424 L 396 5388 L 396 5088 L 444 5100 L 444 5292 L 456 5328 L 564 5424 Q 588 5424 588 5424 L 600 5388 L 600 5160 L 780 5220 L 804 5208 L 816 5184 L 804 5172 L 708 5076 L 612 5040 L 600 5028 L 600 4944 L 780 5004 L 804 5004 L 816 4980 L 804 4956 L 708 4860 L 612 4836 L 600 4824 L 600 4572 L 588 4536 L 492 4440 Q 468 4440 456 4440 L 444 4476 L 444 4776 L 396 4764 L 396 4572 L 384 4536 L 288 4440 L 264 4440 M 396 4872 L 444 4896 L 444 4980 L 444 4980 L 396 4968 L 396 4872 "/>
<glyph glyph-name="Icircumflex" unicode="&#xce;" horiz-adv-x="0" d="M 264 4644 L 252 4656 L 240 4680 L 240 4920 L 72 4860 Q 48 4860 36 4860 L 24 4884 L 36 4908 L 132 4992 L 228 5028 L 240 5040 L 240 5124 L 72 5064 Q 48 5064 36 5076 L 24 5100 L 36 5112 L 132 5208 L 228 5244 L 240 5244 L 240 5508 L 252 5532 L 348 5628 Q 372 5640 384 5628 L 396 5592 L 396 5292 L 444 5316 L 444 5508 L 456 5532 L 564 5628 Q 588 5640 588 5628 L 600 5592 L 600 5364 L 780 5424 L 804 5424 L 816 5400 L 804 5376 L 708 5280 L 612 5256 L 600 5244 L 600 5160 L 780 5220 L 804 5208 L 816 5184 L 804 5172 L 708 5076 L 612 5040 L 600 5028 L 600 4776 L 588 4752 L 492 4644 Q 468 4644 456 4656 L 444 4680 L 444 4980 L 396 4968 L 396 4776 L 384 4752 L 288 4656 L 264 4644 M 396 5088 L 444 5100 L 444 5196 L 444 5196 L 396 5184 L 396 5088 "/>
<glyph glyph-name="Idieresis" unicode="&#xcf;" horiz-adv-x="0" d="M 264 4860 L 252 4860 L 240 4896 L 240 5124 L 72 5064 Q 48 5064 36 5076 L 24 5100 L 36 5112 L 132 5208 L 228 5244 L 240 5244 L 240 5328 L 72 5280 Q 48 5280 36 5280 L 24 5304 L 36 5328 L 132 5424 L 228 5448 L 240 5460 L 240 5712 L 252 5748 L 348 5844 Q 372 5844 384 5844 L 396 5808 L 396 5508 L 444 5520 L 444 5712 L 456 5748 L 564 5844 Q 588 5844 588 5844 L 600 5808 L 600 5580 L 780 5640 L 804 5628 L 816 5604 L 804 5592 L 708 5496 L 612 5460 L 600 5448 L 600 5364 L 780 5424 L 804 5424 L 816 5400 L 804 5376 L 708 5280 L 612 5256 L 600 5244 L 600 4992 L 588 4956 L 492 4860 Q 468 4860 456 4860 L 444 4896 L 444 5196 L 396 5184 L 396 4992 L 384 4956 L 288 4860 L 264 4860 M 396 5292 L 444 5316 L 444 5400 L 444 5400 L 396 5388 L 396 5292 "/>
<glyph glyph-name="Eth" unicode="&#xd0;" horiz-adv-x="0" d="M 264 5064 L 252 5076 L 240 5100 L 240 5340 L 72 5280 Q 48 5280 36 5280 L 24 5304 L 36 5328 L 132 5412 L 228 5448 L 240 5460 L 240 5544 L 72 5484 Q 48 5484 36 5496 L 24 5520 L 36 5532 L 132 5628 L 228 5664 L 240 5664 L 240 5928 L 252 5952 L 348 6048 Q 372 6060 384 6048 L 396 6012 L 396 5712 L 444 5736 L 444 5928 L 456 5952 L 564 6048 Q 588 6060 588 6048 L 600 6012 L 600 5784 L 780 5844 L 804 5844 L 816 5820 L 804 5796 L 708 5700 L 612 5676 L 600 5664 L 600 5580 L 780 5640 L 804 5628 L 816 5604 L 804 5592 L 708 5496 L 612 5460 L 600 5448 L 600 5196 L 588 5172 L 492 5064 Q 468 5064 456 5076 L 444 5100 L 444 5400 L 396 5388 L 396 5196 L 384 5172 L 288 5076 L 264 5064 M 396 5508 L 444 5520 L 444 5616 L 444 5616 L 396 5604 L 396 5508 "/>
<glyph glyph-name="Ntilde" unicode="&#xd1;" horiz-adv-x="0" d="M 264 1284 L 288 1296 L 588 1596 L 612 1644 L 636 1752 L 636 1800 L 648 1812 L 648 1860 L 648 1860 L 648 1908 L 648 1920 L 636 1968 L 624 2004 L 588 2064 Q 588 2064 564 2064 L 396 1896 L 396 2448 L 384 2484 Q 372 2484 348 2484 L 252 2388 L 240 2364 L 240 1320 L 252 1296 L 264 1284 M 396 1476 L 396 1812 L 480 1908 L 492 1848 L 492 1788 L 504 1788 L 492 1776 L 492 1728 L 492 1716 L 492 1668 L 456 1548 L 396 1476 "/>
<glyph glyph-name="Ograve" unicode="&#xd2;" horiz-adv-x="0" d="M 264 1500 L 288 1500 L 588 1812 L 612 1848 L 636 1956 L 636 2016 L 648 2016 L 648 2064 L 648 2064 L 648 2124 L 648 2124 L 636 2172 L 624 2220 L 588 2268 Q 588 2280 564 2268 L 396 2112 L 396 2664 L 384 2688 Q 372 2700 348 2688 L 252 2592 L 240 2568 L 240 1536 L 252 1500 L 264 1500 M 396 1692 L 396 2028 L 480 2112 L 492 2052 L 492 1992 L 504 1992 L 492 1980 L 492 1932 L 492 1932 L 492 1872 L 456 1752 L 396 1692 "/>
<glyph glyph-name="Oacute" unicode="&#xd3;" horiz-adv-x="0" d="M 264 1704 L 288 1716 L 588 2016 L 612 2064 L 636 2172 L 636 2220 L 648 2232 L 648 2280 L 648 2280 L 648 2328 L 648 2340 L 636 2388 L 624 2424 L 588 2484 Q 588 2484 564 2484 L 396 2316 L 396 2868 L 384 2904 Q 372 2904 348 2904 L 252 2808 L 240 2784 L 240 1740 L 252 1716 L 264 1704 M 396 1896 L 396 2232 L 480 2328 L 492 2268 L 492 2208 L 504 2208 L 492 2196 L 492 2148 L 492 2136 L 492 2088 L 456 1968 L 396 1896 "/>
<glyph glyph-name="Ocircumflex" unicode="&#xd4;" horiz-adv-x="0" d="M 264 1920 L 288 1920 L 588 2232 L 612 2268 L 636 2376 L 636 2436 L 648 2436 L 648 2484 L 648 2484 L 648 2544 L 648 2544 L 636 2592 L 624 2640 L 588 2688 Q 588 2700 564 2688 L 396 2532 L 396 3084 L 384 3108 Q 372 3120 348 3108 L 252 3012 L 240 2988 L 240 1956 L 252 1920 L 264 1920 M 396 2112 L 396 2448 L 480 2532 L 492 2472 L 492 2412 L 504 2412 L 492 2400 L 492 2352 L 492 2352 L 492 2292 L 456 2172 L 396 2112 "/>
<glyph glyph-name="Otilde" unicode="&#xd5;" horiz-adv-x="0" d="M 264 2124 L 288 2136 L 588 2436 L 612 2484 L 636 2592 L 636 2640 L 648 2652 L 648 2700 L 648 2700 L 648 2748 L 648 2760 L 636 2808 L 624 2844 L 588 2904 Q 588 2904 564 2904 L 396 2736 L 396 3288 L 384 3324 Q 372 3324 348 3324 L 252 3228 L 240 3204 L 240 2160 L 252 2136 L 264 2124 M 396 2316 L 396 2652 L 480 2748 L 492 2688 L 492 2628 L 504 2628 L 492 2616 L 492 2568 L 492 2556 L 492 2508 L 456 2388 L 396 2316 "/>
<glyph glyph-name="Odieresis" unicode="&#xd6;" horiz-adv-x="0" d="M 264 2340 L 288 2340 L 588 2652 L 612 2688 L 636 2796 L 636 2856 L 648 2856 L 648 2904 L 648 2904 L 648 2964 L 648 2964 L 636 3012 L 624 3060 L 588 3108 Q 588 3120 564 3108 L 396 2952 L 396 3504 L 384 3528 Q 372 3540 348 3528 L 252 3432 L 240 3408 L 240 2376 L 252 2340 L 264 2340 M 396 2532 L 396 2868 L 480 2952 L 492 2892 L 492 2832 L 504 2832 L 492 2820 L 492 2772 L 492 2772 L 492 2712 L 456 2592 L 396 2532 "/>
<glyph glyph-name="multiply" unicode="&#xd7;" horiz-adv-x="0" d="M 264 2544 L 288 2556 L 588 2856 L 612 2904 L 636 3012 L 636 3060 L 648 3072 L 648 3120 L 648 3120 L 648 3168 L 648 3180 L 636 3228 L 624 3264 L 588 3324 Q 588 3324 564 3324 L 396 3156 L 396 3708 L 384 3744 Q 372 3744 348 3744 L 252 3648 L 240 3624 L 240 2580 L 252 2556 L 264 2544 M 396 2736 L 396 3072 L 480 3168 L 492 3108 L 492 3048 L 504 3048 L 492 3036 L 492 2988 L 492 2976 L 492 2928 L 456 2808 L 396 2736 "/>
<glyph glyph-name="Oslash" unicode="&#xd8;" horiz-adv-x="0" d="M 264 2760 L 288 2760 L 588 3072 L 612 3108 L 636 3216 L 636 3276 L 648 3276 L 648 3324 L 648 3324 L 648 3384 L 648 3384 L 636 3432 L 624 3480 L 588 3528 Q 588 3540 564 3528 L 396 3372 L 396 3924 L 384 3948 Q 372 3960 348 3948 L 252 3852 L 240 3828 L 240 2796 L 252 2760 L 264 2760 M 396 2952 L 396 3288 L 480 3372 L 492 3312 L 492 3252 L 504 3252 L 492 3240 L 492 3192 L 492 3192 L 492 3132 L 456 3012 L 396 2952 "/>
<glyph glyph-name="Ugrave" unicode="&#xd9;" horiz-adv-x="0" d="M 264 2964 L 288 2976 L 588 3276 L 612 3324 L 636 3432 L 636 3480 L 648 3492 L 648 3540 L 648 3540 L 648 3588 L 648 3600 L 636 3648 L 624 3684 L 588 3744 Q 588 3744 564 3744 L 396 3576 L 396 4128 L 384 4164 Q 372 4164 348 4164 L 252 4068 L 240 4044 L 240 3000 L 252 2976 L 264 2964 M 396 3156 L 396 3492 L 480 3588 L 492 3528 L 492 3468 L 504 3468 L 492 3456 L 492 3408 L 492 3396 L 492 3348 L 456 3228 L 396 3156 "/>
<glyph glyph-name="Uacute" unicode="&#xda;" horiz-adv-x="0" d="M 264 3180 L 288 3180 L 588 3492 L 612 3528 L 636 3636 L 636 3696 L 648 3696 L 648 3744 L 648 3744 L 648 3804 L 648 3804 L 636 3852 L 624 3900 L 588 3948 Q 588 3960 564 3948 L 396 3792 L 396 4344 L 384 4368 Q 372 4380 348 4368 L 252 4272 L 240 4248 L 240 3216 L 252 3180 L 264 3180 M 396 3372 L 396 3708 L 480 3792 L 492 3732 L 492 3672 L 504 3672 L 492 3660 L 492 3612 L 492 3612 L 492 3552 L 456 3432 L 396 3372 "/>
<glyph glyph-name="Ucircumflex" unicode="&#xdb;" horiz-adv-x="0" d="M 264 3384 L 288 3396 L 588 3696 L 612 3744 L 636 3852 L 636 3900 L 648 3912 L 648 3960 L 648 3960 L 648 4008 L 648 4020 L 636 4068 L 624 4104 L 588 4164 Q 588 4164 564 4164 L 396 3996 L 396 4548 L 384 4584 Q 372 4584 348 4584 L 252 4488 L 240 4464 L 240 3420 L 252 3396 L 264 3384 M 396 3576 L 396 3912 L 480 4008 L 492 3948 L 492 3888 L 504 3888 L 492 3876 L 492 3828 L 492 3816 L 492 3768 L 456 3648 L 396 3576 "/>
<glyph glyph-name="Udieresis" unicode="&#xdc;" horiz-adv-x="0" d="M 264 3600 L 288 3600 L 588 3912 L 612 3948 L 636 4056 L 636 4116 L 648 4116 L 648 4164 L 648 4164 L 648 4224 L 648 4224 L 636 4272 L 624 4320 L 588 4368 Q 588 4380 564 4368 L 396 4212 L 396 4764 L 384 4788 Q 372 4800 348 4788 L 252 4692 L 240 4668 L 240 3636 L 252 3600 L 264 3600 M 396 3792 L 396 4128 L 480 4212 L 492 4152 L 492 4092 L 504 4092 L 492 4080 L 492 4032 L 492 4032 L 492 3972 L 456 3852 L 396 3792 "/>
<glyph glyph-name="Yacute" unicode="&#xdd;" horiz-adv-x="0" d="M 264 3804 L 288 3816 L 588 4116 L 612 4164 L 636 4272 L 636 4320 L 648 4332 L 648 4380 L 648 4380 L 648 4428 L 648 4440 L 636 4488 L 624 4524 L 588 4584 Q 588 4584 564 4584 L 396 4416 L 396 4968 L 384 5004 Q 372 5004 348 5004 L 252 4908 L 240 4884 L 240 3840 L 252 3816 L 264 3804 M 396 3996 L 396 4332 L 480 4428 L 492 4368 L 492 4308 L 504 4308 L 492 4296 L 492 4248 L 492 4236 L 492 4188 L 456 4068 L 396 3996 "/>
<glyph glyph-name="Thorn" unicode="&#xde;" horiz-adv-x="0" d="M 264 4020 L 288 4020 L 588 4332 L 612 4368 L 636 4476 L 636 4536 L 648 4536 L 648 4584 L 648 4584 L 648 4644 L 648 4644 L 636 4692 L 624 4740 L 588 4788 Q 588 4800 564 4788 L 396 4632 L 396 5184 L 384 5208 Q 372 5220 348 5208 L 252 5112 L 240 5088 L 240 4056 L 252 4020 L 264 4020 M 396 4212 L 396 4548 L 480 4632 L 492 4572 L 492 4512 L 504 4512 L 492 4500 L 492 4452 L 492 4452 L 492 4392 L 456 4272 L 396 4212 "/>
<glyph glyph-name="germandbls" unicode="&#xdf;" horiz-adv-x="0" d="M 264 4224 L 288 4236 L 588 4536 L 612 4584 L 636 4692 L 636 4740 L 648 4752 L 648 4800 L 648 4800 L 648 4848 L 648 4860 L 636 4908 L 624 4944 L 588 5004 Q 588 5004 564 5004 L 396 4836 L 396 5388 L 384 5424 Q 372 5424 348 5424 L 252 5328 L 240 5304 L 240 4260 L 252 4236 L 264 4224 M 396 4416 L 396 4752 L 480 4848 L 492 4788 L 492 4728 L 504 4728 L 492 4716 L 492 4668 L 492 4656 L 492 4608 L 456 4488 L 396 4416 "/>
<glyph glyph-name="agrave" unicode="&#xe0;" horiz-adv-x="0" d="M 264 4440 L 288 4440 L 588 4752 L 612 4788 L 636 4896 L 636 4956 L 648 4956 L 648 5004 L 648 5004 L 648 5064 L 648 5064 L 636 5112 L 624 5160 L 588 5208 Q 588 5220 564 5208 L 396 5052 L 396 5604 L 384 5628 Q 372 5640 348 5628 L 252 5532 L 240 5508 L 240 4476 L 252 4440 L 264 4440 M 396 4632 L 396 4968 L 480 5052 L 492 4992 L 492 4932 L 504 4932 L 492 4920 L 492 4872 L 492 4872 L 492 4812 L 456 4692 L 396 4632 "/>
<glyph glyph-name="aacute" unicode="&#xe1;" horiz-adv-x="0" d="M 264 4644 L 288 4656 L 588 4956 L 612 5004 L 636 5112 L 636 5160 L 648 5172 L 648 5220 L 648 5220 L 648 5268 L 648 5280 L 636 5328 L 624 5364 L 588 5424 Q 588 5424 564 5424 L 396 5256 L 396 5808 L 384 5844 Q 372 5844 348 5844 L 252 5748 L 240 5724 L 240 4680 L 252 4656 L 264 4644 M 396 4836 L 396 5172 L 480 5268 L 492 5208 L 492 5148 L 504 5148 L 492 5136 L 492 5088 L 492 5076 L 492 5028 L 456 4908 L 396 4836 "/>
<glyph glyph-name="acircumflex" unicode="&#xe2;" horiz-adv-x="0" d="M 264 4860 L 288 4860 L 588 5172 L 612 5208 L 636 5316 L 636 5376 L 648 5376 L 648 5424 L 648 5424 L 648 5484 L 648 5484 L 636 5532 L 624 5580 L 588 5628 Q 588 5640 564 5628 L 396 5472 L 396 6024 L 384 6048 Q 372 6060 348 6048 L 252 5952 L 240 5928 L 240 4896 L 252 4860 L 264 4860 M 396 5052 L 396 5388 L 480 5472 L 492 5412 L 492 5352 L 504 5352 L 492 5340 L 492 5292 L 492 5292 L 492 5232 L 456 5112 L 396 5052 "/>
<glyph glyph-name="atilde" unicode="&#xe3;" horiz-adv-x="0" d="M 264 5064 L 288 5076 L 588 5376 L 612 5424 L 636 5532 L 636 5580 L 648 5592 L 648 5640 L 648 5640 L 648 5688 L 648 5700 L 636 5748 L 624 5784 L 588 5844 Q 588 5844 564 5844 L 396 5676 L 396 6228 L 384 6264 Q 372 6264 348 6264 L 252 6168 L 240 6144 L 240 5100 L 252 5076 L 264 5064 M 396 5256 L 396 5592 L 480 5688 L 492 5628 L 492 5568 L 504 5568 L 492 5556 L 492 5508 L 492 5496 L 492 5448 L 456 5328 L 396 5256 "/>
<glyph glyph-name="adieresis" unicode="&#xe4;" horiz-adv-x="0" d="M 900 3384 L 1320 3384 L 1332 3396 L 1428 3492 L 1440 3504 L 1440 3720 L 1428 3744 L 1404 3744 L 996 3744 L 972 3744 L 876 3648 L 864 3624 L 864 3420 L 876 3396 L 900 3384 "/>
<glyph glyph-name="aring" unicode="&#xe5;" horiz-adv-x="0" d="M 900 3600 L 1320 3600 L 1332 3600 L 1428 3696 L 1440 3720 L 1440 3924 L 1428 3948 L 1404 3960 L 996 3960 L 972 3948 L 876 3852 L 864 3828 L 864 3624 L 876 3600 L 900 3600 "/>
<glyph glyph-name="ae" unicode="&#xe6;" horiz-adv-x="0" d="M 888 2964 L 912 2976 L 1008 3072 L 1020 3096 L 1008 3108 L 984 3120 L 960 3120 L 924 3120 Q 876 3144 852 3180 Q 828 3204 816 3240 L 1116 3384 L 1224 3492 L 1236 3504 L 1224 3528 L 1020 3732 L 1020 3792 L 1020 3792 L 1020 3828 L 1032 3864 L 1056 3936 Q 1128 4044 1224 4116 L 1224 4152 L 1224 4164 L 1200 4164 L 1128 4176 L 1044 4200 Q 972 4224 912 4284 Q 864 4344 828 4416 L 816 4476 L 816 4560 L 804 4584 Q 792 4584 768 4584 L 672 4488 L 660 4452 L 660 4452 L 672 4380 L 696 4296 Q 744 4188 816 4116 L 888 4080 L 672 3852 L 660 3828 L 948 3540 L 948 3528 L 900 3516 L 852 3492 L 708 3348 L 672 3264 L 660 3192 L 660 3192 L 672 3144 L 684 3084 Q 720 3048 756 3012 L 804 2988 L 852 2964 L 888 2964 L 888 2964 "/>
<glyph glyph-name="ccedilla" unicode="&#xe7;" horiz-adv-x="0" d="M 900 2964 L 912 2976 L 1008 3072 L 1440 4128 L 1440 4152 L 1428 4164 L 1404 4164 L 1392 4164 L 1272 4044 L 1188 3984 L 1116 3960 L 1068 3960 L 1068 3960 L 972 3960 L 948 3960 L 948 3972 L 1068 4092 L 1068 4116 L 984 4212 L 948 4212 L 828 4092 L 816 4068 L 828 4056 L 780 3996 L 768 3936 L 780 3888 L 816 3840 L 864 3804 L 924 3804 L 924 3804 L 1020 3816 L 1104 3840 Q 1188 3876 1236 3936 L 1248 3924 L 876 3012 L 876 2988 L 876 2976 L 900 2964 "/>
<glyph glyph-name="egrave" unicode="&#xe8;" horiz-adv-x="0" d="M 900 2964 L 912 2976 L 1008 3072 L 1440 4128 L 1440 4152 L 1428 4164 L 1404 4164 L 1392 4164 L 1272 4044 L 1188 3984 L 1116 3960 L 1068 3960 L 1068 3960 L 972 3960 L 948 3960 L 948 3972 L 1068 4092 L 1068 4116 L 984 4212 L 948 4212 L 828 4092 L 816 4068 L 828 4056 L 780 3996 L 768 3936 L 780 3888 L 816 3840 L 864 3804 L 924 3804 L 924 3804 L 1020 3816 L 1104 3840 Q 1188 3876 1236 3936 L 1248 3924 L 1164 3720 L 1104 3660 L 1020 3588 L 960 3552 L 852 3540 L 756 3540 L 744 3540 L 744 3552 L 852 3672 L 864 3696 L 768 3792 L 744 3792 L 612 3672 L 612 3648 L 612 3636 L 564 3576 L 552 3516 L 564 3468 L 612 3420 L 660 3384 L 708 3384 L 720 3384 L 804 3396 L 900 3420 Q 1020 3480 1104 3576 L 1104 3564 L 876 3012 L 876 2988 L 876 2976 L 900 2964 "/>
<glyph glyph-name="eacute" unicode="&#xe9;" horiz-adv-x="0" d="M 264 3600 L 288 3600 L 384 3696 L 396 3720 L 396 4560 L 384 4584 Q 372 4584 348 4584 L 36 4272 L 36 4248 L 36 4236 Q 48 4224 72 4224 L 240 4392 L 240 3624 L 252 3600 L 264 3600 "/>
<glyph glyph-name="ecircumflex" unicode="&#xea;" horiz-adv-x="0" d="M 948 3552 L 1032 3552 L 1056 3564 L 1104 3588 L 1224 3696 L 1224 3732 L 1224 3744 Q 1212 3744 1188 3744 L 1140 3708 L 1104 3696 L 1056 3696 L 996 3708 L 768 3780 L 672 3792 L 624 3780 L 600 3768 L 600 3792 L 624 3912 Q 636 3972 660 4020 L 732 4020 L 804 4044 L 828 4056 L 972 4212 L 1008 4284 L 1020 4356 L 1020 4356 L 1008 4416 L 996 4464 Q 960 4512 924 4536 L 852 4584 L 768 4584 L 768 4584 L 732 4584 L 696 4572 L 636 4536 L 492 4392 L 468 4344 L 456 4308 L 444 4260 L 456 4236 Q 468 4224 492 4224 L 588 4332 Q 600 4344 600 4380 L 612 4428 L 648 4440 L 720 4440 L 792 4416 L 828 4380 L 840 4356 L 864 4296 L 864 4224 L 852 4176 L 816 4164 L 744 4164 L 708 4140 L 552 3996 Q 504 3924 480 3828 L 456 3744 L 444 3624 L 456 3600 Q 468 3600 492 3600 L 552 3636 Q 588 3648 636 3636 L 720 3624 L 876 3576 L 948 3552 "/>
<glyph glyph-name="edieresis" unicode="&#xeb;" horiz-adv-x="0" d="M 660 3600 L 732 3600 L 804 3624 L 828 3636 L 972 3792 L 1008 3864 L 1020 3936 L 1020 3936 L 1008 3996 L 996 4044 Q 960 4092 924 4116 L 900 4128 L 900 4140 Q 960 4176 996 4236 L 1020 4296 L 1020 4356 L 1020 4356 L 1008 4416 L 996 4464 Q 960 4512 924 4536 L 852 4584 L 768 4584 L 768 4584 L 732 4584 L 696 4572 L 636 4536 L 492 4392 L 468 4344 L 456 4308 Q 456 4272 444 4260 L 456 4236 Q 468 4224 492 4224 L 588 4332 Q 600 4344 600 4380 L 612 4428 L 648 4440 L 720 4440 L 792 4416 L 828 4380 L 840 4356 L 864 4296 L 864 4224 L 852 4176 L 816 4164 Q 780 4176 768 4164 L 672 4068 L 660 4032 L 672 4020 L 696 4020 L 720 4020 L 756 4008 Q 804 3984 828 3960 L 840 3936 L 864 3876 L 864 3804 L 852 3756 L 816 3744 L 708 3744 L 624 3768 L 564 3792 Q 456 3852 384 3948 L 348 3948 L 252 3852 L 240 3828 L 312 3756 L 408 3672 L 480 3624 L 576 3600 L 660 3600 L 660 3600 "/>
<glyph glyph-name="igrave" unicode="&#xec;" horiz-adv-x="0" d="M 888 3600 L 912 3600 L 1008 3696 L 1020 3720 L 1020 3960 Q 1068 3972 1104 3996 L 1224 4116 L 1224 4152 L 1224 4164 Q 1212 4164 1188 4164 L 1128 4116 L 1068 4104 L 1020 4104 L 1020 4560 L 1008 4584 Q 1008 4584 984 4584 L 876 4488 L 864 4464 L 864 4140 L 648 4212 L 564 4224 Q 564 4236 564 4224 L 636 4272 L 756 4404 L 792 4464 L 804 4512 L 816 4560 L 804 4584 Q 792 4584 768 4584 L 672 4488 L 660 4464 L 660 4428 L 648 4392 L 636 4368 L 444 4248 Q 336 4164 252 4068 L 240 4032 L 252 4020 Q 252 4020 276 4020 L 336 4056 L 408 4080 L 456 4080 L 576 4056 L 768 3984 L 864 3960 L 864 3624 L 876 3600 L 888 3600 "/>
<glyph glyph-name="iacute" unicode="&#xed;" horiz-adv-x="0" d="M 480 3600 L 492 3600 L 540 3600 L 600 3612 L 696 3660 L 768 3696 L 912 3852 Q 960 3900 984 3972 L 1008 4056 L 1020 4128 L 1020 4128 L 1008 4164 Q 960 4212 876 4212 L 864 4212 L 792 4200 L 708 4176 L 600 4164 L 600 4440 L 900 4440 L 912 4440 L 1008 4536 L 1020 4572 L 1008 4584 L 984 4584 L 576 4584 L 552 4584 L 456 4488 L 444 4464 L 444 4044 L 456 4020 L 492 4020 L 492 4020 L 552 4020 L 552 4020 L 624 4032 L 756 4056 L 816 4056 L 864 4032 L 864 3996 L 852 3936 L 828 3852 L 792 3816 L 732 3780 L 684 3756 L 624 3744 L 576 3744 L 552 3744 L 456 3648 L 456 3612 L 456 3600 L 480 3600 "/>
<glyph glyph-name="icircumflex" unicode="&#xee;" horiz-adv-x="0" d="M 684 3600 L 732 3600 L 804 3624 L 828 3636 L 972 3792 L 1008 3864 L 1020 3936 L 1020 3936 L 1008 3996 L 996 4044 Q 960 4092 924 4116 Q 888 4152 828 4164 L 792 4164 L 792 4164 L 600 4164 Q 612 4296 672 4368 L 744 4404 L 792 4428 L 852 4440 L 900 4440 L 912 4440 L 1008 4536 L 1020 4572 L 1008 4584 L 984 4584 L 984 4584 L 936 4584 L 876 4572 L 768 4524 L 708 4476 L 552 4332 Q 516 4284 480 4212 L 456 4128 L 444 4020 L 456 4020 L 456 3960 L 456 3948 L 468 3900 L 492 3804 L 540 3696 L 600 3624 L 636 3612 L 684 3600 M 756 3744 L 720 3768 Q 624 3852 612 4020 L 720 4020 L 792 3984 L 804 3972 L 840 3936 L 864 3876 L 864 3804 L 852 3756 L 816 3744 L 756 3744 "/>
<glyph glyph-name="idieresis" unicode="&#xef;" horiz-adv-x="0" d="M 684 3600 L 708 3600 L 804 3696 L 816 3720 L 816 3828 L 816 3840 L 816 3924 L 840 4020 L 864 4104 Q 924 4212 996 4296 L 1224 4536 L 1236 4560 L 1224 4584 L 1200 4584 L 1068 4548 L 936 4524 L 852 4524 L 852 4512 L 756 4512 L 756 4524 L 696 4524 L 648 4536 Q 612 4548 588 4584 L 564 4584 L 252 4272 L 240 4248 L 252 4236 Q 252 4224 276 4224 L 480 4428 Q 528 4392 600 4380 L 648 4368 L 660 4368 L 780 4368 L 780 4368 L 816 4368 L 816 4380 L 900 4380 L 1008 4404 L 996 4392 L 828 4212 Q 768 4140 732 4044 L 696 3960 L 672 3864 L 672 3804 L 672 3804 L 672 3756 L 660 3756 L 660 3660 Q 648 3648 660 3624 L 672 3600 L 684 3600 "/>
</font>
</defs>
</svg>
