<?xml version="1.0" encoding="UTF-8" standalone="no"?>
<!-- Created with Inkscape (http://www.inkscape.org/) -->

<svg
   xmlns:dc="http://purl.org/dc/elements/1.1/"
   xmlns:cc="http://creativecommons.org/ns#"
   xmlns:rdf="http://www.w3.org/1999/02/22-rdf-syntax-ns#"
   xmlns:svg="http://www.w3.org/2000/svg"
   xmlns="http://www.w3.org/2000/svg"
   xmlns:sodipodi="http://sodipodi.sourceforge.net/DTD/sodipodi-0.dtd"
   xmlns:inkscape="http://www.inkscape.org/namespaces/inkscape"
   width="1200"
   height="450"
   viewBox="0 0 1200 450"
   id="svg2"
   version="1.1"
   inkscape:version="0.91 r13725"
   sodipodi:docname="cass-flag.svg">
  <defs
     id="defs4" />
  <sodipodi:namedview
     id="base"
     pagecolor="#ffffff"
     bordercolor="#666666"
     borderopacity="1.0"
     inkscape:pageopacity="0.0"
     inkscape:pageshadow="2"
     inkscape:zoom="1"
     inkscape:cx="611.8193"
     inkscape:cy="232.32983"
     inkscape:document-units="px"
     inkscape:current-layer="layer1"
     showgrid="false"
     units="px"
     inkscape:window-width="1855"
     inkscape:window-height="1056"
     inkscape:window-x="65"
     inkscape:window-y="24"
     inkscape:window-maximized="1" />
  <metadata
     id="metadata7">
    <rdf:RDF>
      <cc:Work
         rdf:about="">
        <dc:format>image/svg+xml</dc:format>
        <dc:type
           rdf:resource="http://purl.org/dc/dcmitype/StillImage" />
        <dc:title />
      </cc:Work>
    </rdf:RDF>
  </metadata>
  <g
     inkscape:label="Layer 1"
     inkscape:groupmode="layer"
     id="layer1"
     transform="translate(0,-602.3622)">
    <rect
       style="opacity:1;fill:#ffe043;fill-opacity:1;fill-rule:nonzero;stroke:none;stroke-opacity:1"
       id="rect4474"
       width="1200"
       height="450"
       x="0"
       y="602.36218" />
    <path
       style="fill:#a88e84;fill-opacity:1"
       d="m 351.24528,921.86016 c -4.02729,-1.3268 -6.25302,-3.02736 -8.22604,-6.2852 -1.18672,-1.95952 -3.91751,-5.58776 -6.06843,-8.06272 -2.15092,-2.47504 -4.82643,-6.3 -5.94559,-8.5 -1.11916,-2.2 -2.87146,-5.07128 -3.894,-6.38056 -5.35738,-6.85984 -4.31674,-14.65744 3.02874,-22.69456 5.38618,-5.89336 7.05057,-9.68832 5.40755,-12.32968 -0.54575,-0.87736 -3.4068,-2.5708 -6.35788,-3.7632 -2.95108,-1.1924 -6.82178,-3.32992 -8.60155,-4.75 -4.0613,-3.24056 -4.3428,-3.2232 -4.3428,0.2688 0,1.56792 -0.4128,4.15536 -0.91733,5.75 -0.50453,1.59456 -1.18809,4.13672 -1.51905,5.6492 -0.33095,1.51248 -1.2324,2.75 -2.00322,2.75 -0.7735,0 -1.70952,1.45632 -2.08891,3.25 -0.37808,1.78752 -1.48323,4.15 -2.45591,5.25 -0.97266,1.1 -2.08766,3.7844 -2.47776,5.96544 -1.0107,5.65056 -3.13381,9.27424 -6.43356,10.98064 -1.57404,0.814 -3.0902,2.07488 -3.36923,2.802 -0.27903,0.7272 -2.47106,2.65592 -4.87118,4.28608 -2.40012,1.63024 -6.19144,4.80688 -8.42516,7.0592 -2.23371,2.25232 -5.38371,4.40904 -7,4.79272 -1.61628,0.38368 -4.73869,1.55512 -6.93869,2.60328 -2.2,1.04816 -4.675,2.172 -5.5,2.49744 -0.825,0.32536 -2.625,1.24232 -4,2.03768 -2.95073,1.70672 -10.13357,1.94192 -11.69264,0.38288 -0.79019,-0.79024 -1.65778,-0.79024 -3.13426,0 -2.62144,1.40296 -6.0307,1.3868 -10.14652,-0.048 L 230,914.23104 l 0.76547,-5.10944 c 0.42102,-2.81016 0.71252,-6.78344 0.64779,-8.82952 -0.1187,-3.75192 4.87183,-16.80344 9.08492,-23.75952 2.55629,-4.22056 13.41203,-17.79568 16.23755,-20.30512 1.10525,-0.9816 3.00537,-2.2016 4.22249,-2.71112 1.21711,-0.50952 3.31752,-2.67624 4.66759,-4.81488 1.35005,-2.13864 6.36913,-7.4436 11.15348,-11.7888 4.78436,-4.34528 10.24277,-10.30504 12.12981,-13.244 1.88704,-2.93888 5.3538,-7.43888 7.70392,-10 2.35011,-2.56104 5.2436,-6.0616 6.42997,-7.77904 5.79201,-8.38472 34.41871,-28.86448 51.54394,-36.87504 9.08285,-4.24856 38.95928,-12.50056 45.27091,-12.50392 1.58809,-8e-4 7.61244,-0.89488 13.38744,-1.98664 15.97991,-3.02112 29.58991,-3.29288 40.5,-0.80872 4.95,1.12704 10.66957,2.8924 12.71016,3.92304 2.04059,1.03064 4.51559,1.88536 5.5,1.89944 0.98441,0.0144 4.24399,1.58912 7.2435,3.5 2.99952,1.91088 5.87419,3.4744 6.38817,3.4744 0.51398,0 2.85054,1.68752 5.19237,3.75 5.03661,4.43584 11.04584,8.25 12.99801,8.25 1.76849,0 9.46779,7.94672 9.46779,9.772 0,1.89488 8.01113,11.228 9.6376,11.228 0.72849,0 4.25805,1.44656 7.84347,3.21464 7.71578,3.8048 8.47497,6.07008 2.82542,8.43064 -2.03143,0.8488 -5.29393,1.74912 -7.25,2.00072 -5.39782,0.69432 -11.05649,2.5572 -11.05649,3.63992 0,0.53112 -2.67474,6.27496 -5.94386,12.764 -3.98707,7.91408 -6.47332,14.36152 -7.55216,19.58456 -0.88457,4.28248 -2.08994,8.36664 -2.67859,9.07592 -1.13311,1.36528 -6.81993,1.8144 -6.83319,0.5396 -0.004,-0.41248 -1.01679,-1.2536 -2.25,-1.86904 -9.07799,-4.5308 -9.58391,-5.2176 -12.80263,-17.38096 -0.65495,-2.47504 -1.75537,-5.85 -2.44538,-7.5 -0.69001,-1.65 -2.0253,-5.37952 -2.96731,-8.28784 -2.02665,-6.25696 -4.80715,-8.50616 -9.38398,-7.59072 -4.23575,0.84712 -4.79118,2.0596 -2.20473,4.81272 1.18124,1.25736 3.05095,4.66328 4.15492,7.56872 1.10397,2.90536 3.2696,7.1308 4.81251,9.38984 1.5429,2.25896 3.37131,5.84344 4.06312,7.96552 1.40576,4.312 0.78001,10.54984 -1.18329,11.79552 -2.06925,1.31296 -5.66418,0.97176 -8.3578,-0.79312 -2.36685,-1.55088 -2.62503,-1.52384 -4.77927,0.5 -4.16272,3.91064 -9.32616,1.89968 -10.28443,-4.00544 -0.34916,-2.1516 0.2058,-5.33264 1.5451,-8.8564 1.14948,-3.02432 2.09019,-6.42648 2.09047,-7.56024 7.5e-4,-3.08096 -3.23307,-5.98312 -10.75108,-9.64848 -6.30357,-3.0732 -7.40762,-3.28568 -16.74842,-3.22368 -10.91284,0.072 -19.92769,1.76976 -22.89518,4.3108 -1.04235,0.89256 -2.79148,3.64776 -3.88697,6.1228 -3.74215,8.45456 -9.48899,15.55768 -15.02189,18.56712 -2.85778,1.55448 -5.64596,3.19408 -6.19596,3.64368 -1.55574,1.2716 -7.52683,5.0708 -12.69832,8.07952 -2.58407,1.50336 -4.93868,3.12232 -5.23247,3.59768 -0.29378,0.47536 1.37046,2.15104 3.69832,3.72376 2.32786,1.57264 7.33057,5.56592 11.11714,8.87384 13.59855,11.8796 15.25181,19.5144 4.22571,19.5144 -5.1288,0 -8.07871,-2.30288 -9.14006,-7.13512 -0.39956,-1.8192 -1.2666,-2.86488 -2.37546,-2.86488 -0.96043,0 -2.83717,-1.16952 -4.17055,-2.59904 -1.33337,-1.42944 -4.53048,-3.67112 -7.1047,-4.98152 -2.57421,-1.3104 -5.38107,-3.38296 -6.23746,-4.6056 l -1.55708,-2.22304 -2.76253,2.05344 c -3.57097,2.6544 -4.04499,7.11976 -1.34308,12.652 2.5556,5.23264 12.32172,16.26 16.15658,18.24304 6.31749,3.26696 5.53848,9.05248 -1.6217,12.04424 -3.57863,1.4952 -4.06215,1.55248 -6.45434,0.7644 z m 151.81955,-90.59792 c -0.17575,-1.23752 -0.99455,-2.25 -1.81955,-2.25 -0.825,0 -1.6438,1.01248 -1.81955,2.25 -0.24594,1.73168 0.17321,2.25 1.81955,2.25 1.64634,0 2.06549,-0.51832 1.81955,-2.25 z"
       id="path4325"
       inkscape:connector-curvature="0" />
    <path
       style="fill:#a88e84;fill-opacity:1"
       d="m 848.75485,921.86016 c 4.02728,-1.3268 6.25301,-3.02736 8.22603,-6.2852 1.18672,-1.95952 3.9175,-5.58776 6.06842,-8.06272 2.15092,-2.47504 4.82642,-6.3 5.94558,-8.5 1.11916,-2.2 2.87146,-5.07128 3.894,-6.38056 5.35737,-6.85984 4.31673,-14.65744 -3.02874,-22.69456 -5.38617,-5.89336 -7.05056,-9.68832 -5.40754,-12.32968 0.54575,-0.87736 3.40679,-2.5708 6.35787,-3.7632 2.95108,-1.1924 6.82177,-3.32992 8.60154,-4.75 4.0613,-3.24056 4.3428,-3.2232 4.3428,0.2688 0,1.56792 0.41279,4.15536 0.91732,5.75 0.50453,1.59456 1.18809,4.13672 1.51905,5.6492 0.33095,1.51248 1.2324,2.75 2.00322,2.75 0.7735,0 1.70952,1.45632 2.08891,3.25 0.37808,1.78752 1.48323,4.15 2.4559,5.25 0.97266,1.1 2.08766,3.7844 2.47776,5.96544 1.0107,5.65056 3.13381,9.27424 6.43355,10.98064 1.57404,0.814 3.0902,2.07488 3.36923,2.802 0.27903,0.7272 2.47106,2.65592 4.87117,4.28608 2.40012,1.63024 6.19144,4.80688 8.42515,7.0592 2.23371,2.25232 5.38371,4.40904 6.99999,4.79272 1.61628,0.38368 4.73869,1.55512 6.93869,2.60328 2.19999,1.04816 4.67499,2.172 5.49999,2.49744 0.825,0.32536 2.625,1.24232 3.99999,2.03768 2.95073,1.70672 10.13356,1.94192 11.69263,0.38288 0.79019,-0.79024 1.65778,-0.79024 3.13426,0 2.62143,1.40296 6.03069,1.3868 10.14648,-0.048 L 970,914.23104 969.2345,909.1216 c -0.421,-2.81016 -0.7125,-6.78344 -0.6478,-8.82952 0.1187,-3.75192 -4.87179,-16.80344 -9.08489,-23.75952 -2.55628,-4.22056 -13.41201,-17.79568 -16.23753,-20.30512 -1.10525,-0.9816 -3.00536,-2.2016 -4.22248,-2.71112 -1.21711,-0.50952 -3.31752,-2.67624 -4.66759,-4.81488 -1.35004,-2.13864 -6.36912,-7.4436 -11.15346,-11.7888 -4.78436,-4.34528 -10.24276,-10.30504 -12.1298,-13.244 -1.88704,-2.93888 -5.35379,-7.43888 -7.70391,-10 -2.35011,-2.56104 -5.24359,-6.0616 -6.42996,-7.77904 -5.792,-8.38472 -34.41867,-28.86448 -51.54388,-36.87504 -9.08284,-4.24856 -38.95923,-12.50056 -45.27085,-12.50392 -1.58809,-8e-4 -7.61243,-0.89488 -13.38743,-1.98664 -15.97989,-3.02112 -29.58987,-3.29288 -40.49995,-0.80872 -4.94999,1.12704 -10.66955,2.8924 -12.71014,3.92304 -2.04059,1.03064 -4.51559,1.88536 -5.49999,1.89944 -0.98441,0.0144 -4.24399,1.58912 -7.2435,3.5 -2.99951,1.91088 -5.87418,3.4744 -6.38816,3.4744 -0.51398,0 -2.85053,1.68752 -5.19236,3.75 -5.0366,4.43584 -11.04583,8.25 -12.998,8.25 -1.76848,0 -9.46777,7.94672 -9.46777,9.772 0,1.89488 -8.01112,11.228 -9.63759,11.228 -0.72849,0 -4.25805,1.44656 -7.84346,3.21464 -7.71577,3.8048 -8.47496,6.07008 -2.82542,8.43064 2.03143,0.8488 5.29392,1.74912 7.24999,2.00072 5.39782,0.69432 11.05648,2.5572 11.05648,3.63992 0,0.53112 2.67474,6.27496 5.94385,12.764 3.98707,7.91408 6.47331,14.36152 7.55215,19.58456 0.88457,4.28248 2.08994,8.36664 2.67859,9.07592 1.13311,1.36528 6.81992,1.8144 6.83318,0.5396 0.004,-0.41248 1.01679,-1.2536 2.25,-1.86904 9.07798,-4.5308 9.5839,-5.2176 12.80261,-17.38096 0.65495,-2.47504 1.75537,-5.85 2.44538,-7.5 0.69001,-1.65 2.0253,-5.37952 2.96731,-8.28784 2.02664,-6.25696 4.80714,-8.50616 9.38396,-7.59072 4.23575,0.84712 4.79118,2.0596 2.20473,4.81272 -1.18124,1.25736 -3.05094,4.66328 -4.15491,7.56872 -1.10397,2.90536 -3.2696,7.1308 -4.81251,9.38984 -1.5429,2.25896 -3.3713,5.84344 -4.06311,7.96552 -1.40576,4.312 -0.78001,10.54984 1.18329,11.79552 2.06924,1.31296 5.66417,0.97176 8.35779,-0.79312 2.36684,-1.55088 2.62502,-1.52384 4.77926,0.5 4.16271,3.91064 9.32615,1.89968 10.28442,-4.00544 0.34916,-2.1516 -0.2058,-5.33264 -1.5451,-8.8564 -1.14948,-3.02432 -2.09019,-6.42648 -2.09047,-7.56024 -7.5e-4,-3.08096 3.23307,-5.98312 10.75107,-9.64848 6.30356,-3.0732 7.40761,-3.28568 16.7484,-3.22368 10.91282,0.072 19.92766,1.76976 22.89515,4.3108 1.04235,0.89256 2.79148,3.64776 3.88697,6.1228 3.74214,8.45456 9.48897,15.55768 15.02187,18.56712 2.85777,1.55448 5.64595,3.19408 6.19595,3.64368 1.55574,1.2716 7.52682,5.0708 12.6983,8.07952 2.58407,1.50336 4.93868,3.12232 5.23247,3.59768 0.29378,0.47536 -1.37046,2.15104 -3.69832,3.72376 -2.32786,1.57264 -7.33056,5.56592 -11.11712,8.87384 -13.59854,11.8796 -15.2518,19.5144 -4.22571,19.5144 5.12879,0 8.0787,-2.30288 9.14005,-7.13512 0.39956,-1.8192 1.2666,-2.86488 2.37546,-2.86488 0.96043,0 2.83716,-1.16952 4.17054,-2.59904 1.33337,-1.42944 4.53048,-3.67112 7.10469,-4.98152 2.57421,-1.3104 5.38107,-3.38296 6.23746,-4.6056 l 1.55707,-2.22304 2.76253,2.05344 c 3.57097,2.6544 4.04499,7.11976 1.34308,12.652 -2.5556,5.23264 -12.32171,16.26 -16.15656,18.24304 -6.31748,3.26696 -5.53848,9.05248 1.6217,12.04424 3.57862,1.4952 4.06214,1.55248 6.45433,0.7644 z M 696.93548,831.26224 c 0.17575,-1.23752 0.99455,-2.25 1.81955,-2.25 0.825,0 1.6438,1.01248 1.81955,2.25 0.24594,1.73168 -0.17321,2.25 -1.81955,2.25 -1.64634,0 -2.06549,-0.51832 -1.81955,-2.25 z"
       id="path4325-5"
       inkscape:connector-curvature="0" />
    <rect
       style="fill:#4900ed;fill-opacity:1;fill-rule:nonzero;stroke:none;stroke-opacity:1"
       id="rect4390"
       width="1200"
       height="30"
       x="0"
       y="602.36218" />
    <rect
       style="fill:#4900ed;fill-opacity:1;fill-rule:nonzero;stroke:none;stroke-opacity:1"
       id="rect4390-6"
       width="1200"
       height="30"
       x="0"
       y="1022.3622" />
    <circle
       style="fill:#fcf6c6;fill-opacity:1;fill-rule:nonzero;stroke:none;stroke-opacity:1"
       id="path4410"
       cx="600"
       cy="714.36218"
       r="68" />
    <path
       sodipodi:type="star"
       style="fill:#4900ed;fill-opacity:1;fill-rule:nonzero;stroke:none;stroke-opacity:1"
       id="path4418"
       sodipodi:sides="3"
       sodipodi:cx="134"
       sodipodi:cy="804.36218"
       sodipodi:r1="264.31989"
       sodipodi:r2="132.15994"
       sodipodi:arg1="-2.0936965"
       sodipodi:arg2="-1.046499"
       inkscape:flatsided="false"
       inkscape:rounded="0"
       inkscape:randomized="0"
       d="M 2.0000051,575.36218 200.15991,689.9545 398.31982,804.54684 200,918.86218 1.6801741,1033.1775 1.8400896,804.26986 Z"
       inkscape:transform-center-x="33.279579"
       inkscape:transform-center-y="-0.090715433"
       transform="matrix(-0.50423603,0,0,0.98292902,1200.8472,36.822023)" />
    <path
       sodipodi:type="star"
       style="fill:#4900ed;fill-opacity:1;fill-rule:nonzero;stroke:none;stroke-opacity:1"
       id="path4418-3"
       sodipodi:sides="3"
       sodipodi:cx="134"
       sodipodi:cy="804.36218"
       sodipodi:r1="264.31989"
       sodipodi:r2="132.15994"
       sodipodi:arg1="-2.0936965"
       sodipodi:arg2="-1.046499"
       inkscape:flatsided="false"
       inkscape:rounded="0"
       inkscape:randomized="0"
       d="M 2.0000051,575.36218 200.15991,689.9545 398.31982,804.54684 200,918.86218 1.6801741,1033.1775 1.8400896,804.26986 Z"
       inkscape:transform-center-x="-33.279579"
       inkscape:transform-center-y="-0.090715433"
       transform="matrix(0.50423603,0,0,0.98292902,-0.84720434,36.822018)" />
    <path
       style="fill:#b70009;fill-opacity:1"
       d="m 585.55351,997.11806 c -17.61922,-2.7946 -30.05853,-8.1985 -41.76604,-18.1438 -8.30644,-7.0562 -14.61068,-15.6774 -23.29607,-31.858 -2.65705,-4.95 -5.35039,-9.45 -5.98521,-10 -0.63481,-0.55 -2.4162,-2.7091 -3.95863,-4.7979 -3.01499,-4.083 -5.2126,-5.577 -9.97049,-6.7783 -1.66295,-0.4198 -5.59599,-1.8494 -8.74011,-3.1769 -4.35525,-1.839 -5.43878,-2.6916 -4.55,-3.5804 1.68202,-1.682 226.85106,-1.682 228.53308,0 0.88878,0.8888 -0.19475,1.7414 -4.55,3.5804 -3.14412,1.3275 -7.07717,2.7571 -8.74011,3.1769 -4.75789,1.2013 -6.9555,2.6953 -9.97049,6.7783 -1.54243,2.0888 -3.32382,4.2479 -3.95864,4.7979 -0.63481,0.55 -3.32815,5.05 -5.9852,10 -12.13473,22.6066 -23.03287,34.5821 -38.07364,41.8373 -17.32149,8.3553 -38.92962,11.34604 -58.98845,8.1645 z"
       id="path4487"
       inkscape:connector-curvature="0" />
    <g
       id="g4547"
       transform="matrix(0.02794443,0,0,-0.01520889,539.58083,908.22386)"
       style="fill:#fafef0;stroke:none;fill-opacity:0.89019608">
      <path
         id="path4549"
         d="m 2280,5914 c -99,-19 -237,-86 -345,-166 -99,-74 -283,-256 -376,-371 -384,-476 -609,-1068 -609,-1603 0,-400 97,-736 286,-986 97,-130 208,-235 447,-426 122,-97 261,-215 308,-262 194,-193 310,-398 375,-666 22,-92 26,-123 21,-199 C 2372,998 2291,812 2027,418 1940,287 1860,159 1849,134 1815,57 1803,60 2204,60 l 351,0 54,25 c 329,153 675,1020 622,1559 -23,232 -119,498 -253,701 -29,44 -96,123 -148,176 -146,148 -289,234 -662,403 -252,114 -382,194 -487,297 -139,137 -223,297 -273,521 -30,135 -32,405 -4,538 75,355 292,724 564,961 132,115 218,153 337,147 123,-7 219,-62 316,-184 97,-122 172,-298 204,-478 47,-270 -15,-422 -243,-592 -186,-140 -223,-184 -202,-238 11,-30 57,-56 99,-56 50,0 177,45 254,91 95,56 241,202 294,294 85,148 109,263 100,473 -20,415 -113,742 -275,958 -91,122 -178,192 -290,235 -56,21 -219,35 -282,23 z"
         inkscape:connector-curvature="0"
         style="fill:#fafef0;fill-opacity:0.89019608" />
      <path
         id="path4551"
         d="M 424,3251 C 311,3182 163,2908 85,2625 25,2404 16,2331 15,2080 15,1826 22,1771 71,1615 106,1506 147,1434 269,1271 375,1129 420,1045 454,928 524,684 508,543 373,202 338,112 310,31 312,22 315,7 332,5 426,2 535,-1 538,0 570,27 c 119,99 237,643 201,921 -25,186 -80,353 -149,454 -43,62 -94,110 -204,194 -143,109 -194,181 -240,341 -20,68 -23,101 -23,263 0,256 33,400 137,601 82,158 150,210 216,163 79,-55 153,-309 139,-475 -7,-85 -37,-154 -106,-244 -51,-66 -56,-79 -45,-109 17,-45 110,11 163,99 57,93 73,155 78,295 11,267 -57,588 -144,685 -51,57 -112,70 -169,36 z"
         inkscape:connector-curvature="0"
         style="fill:#fafef0;fill-opacity:0.89019608" />
      <path
         id="path4553"
         d="m 3953,3243 c -114,-77 -242,-312 -323,-588 -107,-368 -116,-755 -24,-1040 35,-108 74,-175 192,-334 56,-74 117,-168 137,-209 76,-157 110,-363 85,-518 -14,-90 -61,-238 -123,-385 -61,-145 -63,-157 -33,-165 14,-3 70,-4 124,-2 121,4 128,8 181,123 132,278 178,711 107,995 -33,130 -100,270 -162,339 -26,29 -91,86 -144,126 -163,123 -213,195 -256,362 -46,180 -42,372 11,584 42,167 121,332 194,409 67,71 134,49 189,-62 74,-152 98,-393 50,-508 -8,-19 -41,-69 -72,-110 -44,-58 -56,-82 -54,-105 2,-24 8,-31 30,-33 67,-8 172,146 204,298 25,118 5,401 -41,577 -61,231 -161,322 -272,246 z"
         inkscape:connector-curvature="0"
         style="fill:#fafef0;fill-opacity:0.89019608" />
    </g>
    <path
       style="fill:#000000"
       d="m 587.41855,782.83583 c -0.2216,-0.35484 -0.38165,-1.97276 -0.38165,-3.85808 0,-3.00469 0.0594,-3.30271 0.79555,-3.99434 0.43756,-0.41107 1.06867,-0.69505 1.40249,-0.63107 0.54006,0.1035 0.61726,0.52977 0.70065,3.86898 0.0766,3.06813 -0.003,3.85901 -0.43387,4.33565 -0.78222,0.86435 -1.64537,0.9799 -2.08317,0.27886 z m 12.18605,0.26575 c -0.2153,-0.2153 -0.3537,-1.81031 -0.34746,-4.00433 0.0101,-3.54536 0.0343,-3.66393 0.87222,-4.27502 1.54511,-1.12682 1.9087,-0.47865 2.0165,3.59485 0.0765,2.88991 -0.005,3.66534 -0.43387,4.13946 -0.6788,0.75008 -1.65093,1.0015 -2.10739,0.54504 z m 11.92989,-0.22382 c -0.24982,-0.40001 -0.40784,-1.87561 -0.40784,-3.80829 0,-2.98812 0.0462,-3.19809 0.87318,-3.96448 1.84923,-1.71381 2.42679,-0.91767 2.42679,3.3452 0,2.7279 -0.10898,3.48848 -0.57749,4.03033 -0.86855,1.00448 -1.83214,1.16986 -2.31464,0.39724 z M 587.4329,770.92975 c -0.58162,-0.58162 -0.48841,-1.05213 0.36776,-1.85648 0.75333,-0.70772 0.91732,-0.71752 12.01303,-0.71752 l 11.24926,0 0.11435,-1.6502 0.11435,-1.65021 -11.60539,2.1e-4 c -6.38296,1.1e-4 -11.84029,-0.0899 -12.12738,-0.2001 -0.43147,-0.16558 -0.52198,-0.81942 -0.52198,-3.77105 0,-5.3023 -0.95094,-4.93865 12.91437,-4.93865 l 11.17538,0 0,-1.485 0,-1.485 -11.64888,0 c -8.62024,0 -11.75184,-0.10295 -12.04487,-0.396 -0.2584,-0.2584 -0.396,-1.61663 -0.396,-3.90885 0,-2.9841 0.0908,-3.59506 0.60347,-4.059 0.53713,-0.48609 1.86163,-0.54615 12.04488,-0.54615 l 11.4414,0 0,-1.65 0,-1.65 -11.52289,0 c -6.33759,0 -11.75779,-0.0901 -12.04488,-0.2003 -0.7938,-0.30462 -0.62442,-1.32121 0.34751,-2.08575 0.844,-0.66389 1.22692,-0.68395 13.05657,-0.68395 7.76979,0 12.41842,0.12382 12.82536,0.34161 0.57149,0.30586 0.6383,0.72035 0.6383,3.96 0,5.37889 1.14797,4.93839 -12.86987,4.93839 l -11.54988,0 0,1.485 0,1.485 11.81388,0 c 8.74858,0 11.91663,0.10275 12.20987,0.396 0.25697,0.25697 0.396,1.59467 0.396,3.81 0,3.18474 -0.0544,3.4684 -0.80999,4.224 l -0.80999,0.81 -11.39989,0 -11.39988,0 0,1.32 0,1.32 11.57157,0 c 6.90793,0 11.81456,0.13004 12.17448,0.32267 0.52102,0.27884 0.60918,0.79983 0.64918,3.83631 0.0354,2.68378 -0.075,3.69874 -0.4672,4.29733 l -0.51349,0.78369 -12.79626,0 c -9.51265,0 -12.89788,-0.10162 -13.19225,-0.396 z m 0,-38.28 c -0.2811,-0.2811 -0.396,-2.27522 -0.396,-6.87248 0,-6.3431 0.0157,-6.49125 0.76376,-7.194 0.75662,-0.71081 0.8815,-0.71752 13.35326,-0.71752 12.10912,0 12.60252,0.0244 12.93109,0.63831 0.2009,0.37538 0.34161,3.20618 0.34161,6.87247 0,8.15167 0.41949,7.66922 -6.66839,7.66922 -4.38339,0 -5.17039,-0.0769 -5.34118,-0.52199 -0.11017,-0.28709 -0.20031,-1.97481 -0.20031,-3.7505 0,-2.78328 0.0959,-3.35038 0.69518,-4.11228 0.64658,-0.82201 0.8484,-0.87701 2.88747,-0.787 2.01195,0.0888 2.20127,0.16009 2.30131,0.86649 0.13831,0.97652 -0.80334,2.03528 -1.81015,2.03528 -0.70861,0 -0.77384,0.13908 -0.77384,1.65 l 0,1.65 2.80497,0 2.80497,0 0,-4.62463 0,-4.62464 -10.47739,0.0871 -10.47739,0.0871 -0.0918,4.5375 -0.0918,4.5375 3.16236,0 3.16235,0 -0.10057,-1.5675 c -0.10011,-1.56023 -0.10669,-1.56826 -1.42057,-1.7325 -1.07221,-0.13402 -1.34045,-0.30948 -1.42901,-0.93471 -0.19541,-1.37977 0.79148,-2.03529 3.06414,-2.03529 1.13721,0 2.20175,0.17392 2.42383,0.396 0.26062,0.26063 0.39599,1.6533 0.39599,4.07386 0,4.95736 0.24775,4.77014 -6.31241,4.77014 -3.53092,0 -5.2276,-0.12212 -5.50146,-0.396 z m -0.19569,-18.93599 c -0.11017,-0.28709 -0.20031,-2.71146 -0.20031,-5.38747 0,-6.95682 -1.4648,-6.30054 14.06263,-6.30054 9.30952,0 12.637,0.1019 12.93109,0.396 0.27309,0.27309 0.396,1.94522 0.396,5.38748 0,7.10962 1.51556,6.42652 -14.25831,6.42652 -11.30441,0 -12.75324,-0.0585 -12.9311,-0.52199 z m 24.29803,-5.33551 c 0.0888,-1.58812 0.0986,-2.99887 0.0219,-3.135 -0.0767,-0.13612 -4.95689,-0.2475 -10.84487,-0.2475 l -10.70541,0 0,2.915 c 0,1.60325 0.099,3.014 0.22,3.135 0.121,0.121 4.92857,0.22 10.6835,0.22 l 10.46351,0 0.16136,-2.8875 z m -24.29803,-10.17449 c -0.11017,-0.28709 -0.20031,-6.79521 -0.20031,-14.46247 l 0,-13.94049 0.79555,-0.74739 c 0.43756,-0.41107 1.06867,-0.69485 1.40249,-0.63063 0.57424,0.11048 0.61582,0.84534 0.77193,13.64237 l 0.165,13.5256 10.59179,0.087 10.59178,0.087 0.18586,-11.96415 c 0.10222,-6.58028 0.11623,-12.0768 0.0311,-12.2145 -0.0851,-0.1377 -3.56143,-0.25036 -7.72518,-0.25036 l -7.57044,0 0,9.075 0,9.075 4.61995,0 4.61995,0 0,-5.89682 0,-5.89682 -1.23749,-0.20455 c -0.68061,-0.1125 -1.4231,-0.20618 -1.64998,-0.20817 -0.30686,-0.003 -0.4125,0.99174 -0.4125,3.88293 0,4.10445 -0.37391,5.35343 -1.60269,5.35343 -1.21531,0 -1.36728,-0.64351 -1.36728,-5.78985 0,-6.38047 -0.19256,-6.14812 4.98833,-6.01887 l 3.75659,0.0937 0.0884,8.22247 c 0.11511,10.70792 0.8768,9.76253 -7.86551,9.76253 -5.62921,0 -6.53413,-0.0704 -6.70741,-0.52199 -0.11016,-0.28709 -0.20029,-5.53583 -0.20029,-11.66385 0,-10.37496 0.0415,-11.17946 0.60347,-11.68801 0.53231,-0.48174 1.73092,-0.54615 10.1639,-0.54615 6.99588,0 9.66664,0.10623 9.95641,0.396 0.29561,0.29562 0.396,3.96189 0.396,14.46248 l 0,14.06647 -0.76376,0.71753 c -0.75692,0.7111 -0.87773,0.71752 -13.49455,0.71752 -11.30441,0 -12.75324,-0.0585 -12.9311,-0.52199 z m 0.19569,-35.18401 c -0.2811,-0.2811 -0.396,-2.27522 -0.396,-6.87248 0,-6.3431 0.0157,-6.49125 0.76376,-7.194 0.75662,-0.71081 0.8815,-0.71752 13.35326,-0.71752 12.10912,0 12.60252,0.0244 12.93109,0.63831 0.2009,0.37538 0.34161,3.20618 0.34161,6.87248 0,8.15166 0.41949,7.66921 -6.66839,7.66921 -4.38339,0 -5.17039,-0.0769 -5.34118,-0.52199 -0.11017,-0.28709 -0.20031,-1.97481 -0.20031,-3.7505 0,-2.78328 0.0959,-3.35038 0.69518,-4.11228 0.64658,-0.82201 0.8484,-0.87701 2.88747,-0.787 2.01195,0.0888 2.20127,0.16009 2.30131,0.86649 0.13831,0.97652 -0.80334,2.03528 -1.81015,2.03528 -0.70861,0 -0.77384,0.13908 -0.77384,1.65 l 0,1.65 2.80497,0 2.80497,0 0,-4.62463 0,-4.62464 -10.47739,0.0871 -10.47739,0.0871 -0.0918,4.5375 -0.0918,4.5375 3.16236,0 3.16235,0 -0.10057,-1.5675 c -0.10011,-1.56023 -0.10669,-1.56826 -1.42057,-1.7325 -1.07221,-0.13402 -1.34045,-0.30948 -1.42901,-0.93471 -0.19541,-1.37977 0.79148,-2.03529 3.06414,-2.03529 1.13721,0 2.20175,0.17392 2.42383,0.396 0.26062,0.26063 0.39599,1.6533 0.39599,4.07386 0,4.95736 0.24775,4.77014 -6.31241,4.77014 -3.53092,0 -5.2276,-0.12212 -5.50146,-0.396 z"
       id="path4166"
       inkscape:connector-curvature="0" />
  </g>
</svg>
