<svg xmlns="http://www.w3.org/2000/svg">
<defs>
<font id="merlindian" horiz-adv-x="0">
<font-face 
  font-family="merlindian"
  font-weight="400"
  font-style="normal"
  font-stretch="normal"
  units-per-em="3072"
  panose-1="1 1 1 1 1 1 1 1 1 1"
  ascent="3072"
  descent="456"
  x-height="924"
  cap-height="3072"
  underline-thickness="96"
  underline-position="-384"
  slope="41"
  unicode-range="U+0020-FFFD"
/>
<missing-glyph horiz-adv-x="0"
d="M529 701q51 0 89 -15t56.5 -39.5t27 -48.5t8.5 -48q0 -52 -22 -93.5t-55 -69.5t-67 -53t-64 -57.5t-41 -70.5l-10 -47h-90l12 55q9 41 37.5 76t62 60.5t66 52t54 60.5t21.5 75q0 38 -30 62t-77 24q-66 0 -103.5 -37.5t-54.5 -119.5h-85q47 234 265 234zM431 63l-22 -103h-90l22 103h90zM-15 -139l200 939h730l-200 -939h-730zM83 -69h564l170 799h-564z" />
<glyph glyph-name="y" unicode="&#x79;" horiz-adv-x="1716" d="M 888 864 L 912 876 L 1008 972 L 1020 996 L 1020 1536 L 1500 1692 L 1500 1536 L 1512 1500 Q 1512 1500 1536 1500 L 1644 1596 L 1656 1620 L 1656 1824 L 1644 1848 L 1620 1860 L 1020 1656 L 1020 1824 L 1008 1848 L 996 1860 L 396 1656 L 396 1824 L 384 1848 Q 372 1860 348 1848 L 252 1752 L 240 1728 L 240 1524 L 252 1500 Q 252 1500 288 1500 L 864 1692 L 864 900 L 876 876 L 888 864 "/>
<glyph glyph-name="v" unicode="&#x76;" horiz-adv-x="1872" d="M 468 864 L 492 864 L 1080 1068 L 1080 900 L 1092 876 Q 1092 864 1116 864 L 1224 972 L 1236 996 L 1236 1536 L 1704 1692 L 1704 900 L 1716 876 Q 1728 864 1752 864 L 1848 972 L 1860 996 L 1860 1824 L 1848 1848 L 1836 1860 L 1236 1656 L 1236 1824 L 1224 1848 Q 1212 1860 1188 1848 L 1092 1752 L 1080 1728 L 1080 1188 L 600 1020 L 600 1824 L 588 1848 Q 588 1860 564 1848 L 432 1740 L 360 1680 L 276 1656 L 228 1656 L 228 1644 Q 168 1656 144 1644 L 36 1548 L 36 1512 L 36 1500 L 84 1500 L 84 1500 L 180 1500 L 264 1524 Q 372 1584 444 1668 L 444 900 L 456 876 L 468 864 "/>
<glyph glyph-name="w" unicode="&#x77;" horiz-adv-x="1248" d="M 1104 24 L 1128 36 L 1224 132 L 1236 156 L 1236 1824 L 1224 1848 L 1200 1860 L 600 1656 L 600 1824 L 588 1848 Q 588 1860 564 1848 L 432 1740 L 360 1680 L 276 1656 L 228 1656 L 228 1644 Q 168 1656 144 1644 L 36 1548 L 36 1512 L 36 1500 L 84 1500 L 84 1500 L 180 1500 L 264 1524 Q 372 1584 444 1668 L 444 900 L 456 876 Q 468 864 492 864 L 588 972 L 600 996 L 600 1536 L 1080 1692 L 1080 60 L 1092 36 L 1104 24 "/>
<glyph glyph-name="s" unicode="&#x73;" horiz-adv-x="1248" d="M 480 24 L 696 24 L 708 24 L 780 36 L 852 60 Q 924 84 984 132 L 1116 276 Q 1176 336 1200 408 L 1224 480 L 1236 576 L 1224 576 L 1224 648 L 1188 744 Q 1152 840 1068 912 Q 996 984 864 1008 L 792 1008 L 792 1020 L 600 1020 L 600 1536 L 612 1536 L 1080 1692 L 1080 1536 L 1092 1500 Q 1092 1500 1116 1500 L 1224 1596 L 1236 1620 L 1236 1824 L 1224 1848 L 1200 1860 L 600 1656 L 600 1824 L 588 1848 Q 588 1860 564 1848 L 432 1740 L 360 1680 L 276 1656 L 228 1656 L 228 1644 Q 168 1656 144 1644 L 36 1548 L 36 1512 L 36 1500 L 84 1500 L 84 1500 L 180 1500 L 264 1524 Q 372 1584 444 1668 L 444 900 L 456 876 L 480 864 L 732 864 Q 744 852 768 864 Q 900 828 972 744 Q 1032 684 1068 588 L 1080 528 L 1080 432 L 1056 336 Q 1044 288 1008 240 Q 948 204 864 180 Q 840 192 828 180 L 576 180 L 564 168 L 456 72 L 456 48 L 456 36 L 480 24 "/>
<glyph glyph-name="r" unicode="&#x72;" horiz-adv-x="1872" d="M 468 864 L 492 864 L 1080 1068 L 1080 900 L 1092 876 Q 1092 864 1116 864 L 1224 972 L 1236 996 L 1236 1536 L 1704 1692 L 1704 900 L 1716 876 Q 1728 864 1752 864 L 1848 972 L 1860 996 L 1860 1824 L 1848 1848 L 1836 1860 L 1236 1656 L 1236 1824 L 1224 1848 L 1200 1860 L 600 1656 L 600 1812 L 588 1848 Q 588 1860 564 1848 L 432 1740 L 360 1680 L 276 1656 L 228 1656 L 228 1644 Q 168 1656 144 1644 L 36 1548 L 36 1512 L 36 1500 L 84 1500 L 84 1500 L 180 1500 L 264 1524 Q 372 1584 444 1668 L 444 900 L 456 876 L 468 864 M 600 1020 L 600 1536 L 1080 1692 L 1080 1188 L 600 1020 "/>
<glyph glyph-name="quotesingle" unicode="&#x27;" horiz-adv-x="1092" d="M 468 864 L 492 864 L 1080 1068 L 1080 900 L 1092 876 Q 1092 864 1116 864 L 1224 972 L 1236 984 L 1236 1200 L 1224 1224 L 1200 1224 L 600 1020 L 600 1824 L 588 1848 Q 588 1860 564 1848 L 432 1740 L 360 1680 L 276 1656 L 228 1656 L 228 1644 L 156 1644 L 144 1644 L 36 1548 L 36 1512 L 36 1500 Q 48 1488 84 1500 L 84 1500 L 180 1500 L 264 1524 Q 372 1584 444 1668 L 444 900 L 456 876 L 468 864 "/>
<glyph glyph-name="d" unicode="&#x64;" horiz-adv-x="1248" d="M 468 864 L 492 864 L 1080 1068 L 1080 900 L 1092 876 Q 1092 864 1116 864 L 1224 972 L 1236 996 L 1236 1824 L 1224 1848 Q 1212 1860 1188 1848 L 1092 1752 L 1080 1728 L 1080 1188 L 600 1020 L 600 1824 L 588 1848 Q 588 1860 564 1848 L 432 1740 L 360 1680 L 276 1656 L 228 1656 L 228 1644 Q 168 1656 144 1644 L 36 1548 L 36 1512 L 36 1500 L 84 1500 L 84 1500 L 180 1500 L 264 1524 Q 372 1584 444 1668 L 444 900 L 456 876 L 468 864 "/>
<glyph glyph-name="j" unicode="&#x6a;" horiz-adv-x="1872" d="M 1104 24 L 1128 36 L 1224 132 L 1236 156 L 1236 1536 L 1704 1692 L 1704 900 L 1716 876 Q 1728 864 1752 864 L 1848 972 L 1860 996 L 1860 1812 L 1848 1848 L 1836 1860 L 1236 1656 L 1236 1812 L 1224 1848 L 1200 1860 L 600 1656 L 600 1812 L 588 1848 Q 588 1860 564 1848 L 432 1740 L 360 1680 L 276 1656 L 228 1656 L 228 1644 L 156 1644 L 144 1644 L 36 1548 L 36 1512 L 36 1500 L 84 1500 L 84 1500 L 180 1500 L 276 1536 Q 372 1584 444 1668 L 444 900 L 456 876 Q 468 864 492 864 L 588 972 L 600 996 L 600 1536 L 1080 1692 L 1080 60 L 1092 36 L 1104 24 "/>
<glyph glyph-name="q" unicode="&#x71;" horiz-adv-x="1248" d="M 852 24 L 912 24 L 912 36 L 1008 132 L 1020 156 L 1008 168 L 984 180 L 960 180 L 924 180 L 888 204 L 804 276 L 744 348 L 684 468 L 648 600 L 612 756 L 612 828 L 600 828 L 600 876 L 600 888 L 600 1536 L 1080 1692 L 1080 900 L 1092 876 Q 1092 864 1116 864 L 1224 972 L 1236 996 L 1236 1824 L 1224 1848 L 1200 1860 L 600 1656 L 600 1824 L 588 1848 Q 588 1860 564 1848 L 432 1740 L 360 1680 L 276 1656 L 228 1656 L 228 1644 Q 168 1656 144 1644 L 36 1548 L 36 1512 L 36 1500 L 84 1500 L 84 1500 L 180 1500 L 264 1524 Q 372 1584 444 1668 L 444 876 L 456 876 L 456 720 L 468 720 L 468 696 L 468 684 L 468 660 L 468 648 L 480 576 L 516 432 L 576 288 Q 636 168 720 96 Q 780 48 852 24 "/>
<glyph glyph-name="f" unicode="&#x66;" horiz-adv-x="1248" d="M 468 24 L 492 36 L 588 132 L 600 156 L 600 912 L 1116 1080 L 1128 1080 L 1224 1176 L 1236 1200 L 1236 1824 L 1224 1848 L 1200 1860 L 600 1656 L 600 1824 L 588 1848 Q 588 1860 564 1848 L 432 1740 L 360 1680 L 276 1656 L 228 1656 L 228 1644 Q 168 1656 144 1644 L 36 1548 L 36 1512 L 36 1500 L 84 1500 L 84 1500 L 180 1500 L 264 1524 Q 372 1584 444 1668 L 444 60 L 456 36 L 468 24 M 600 1020 L 600 1536 L 1080 1692 L 1080 1188 L 600 1020 "/>
<glyph glyph-name="t" unicode="&#x74;" horiz-adv-x="1092" d="M 276 24 L 288 24 L 372 36 L 444 48 L 516 72 L 576 108 L 684 168 L 840 324 Q 912 396 960 492 L 996 600 L 1020 708 L 1020 768 L 1020 768 L 1020 1824 L 1008 1848 L 996 1860 L 396 1656 L 396 1824 L 384 1848 Q 372 1860 348 1848 L 252 1752 L 240 1728 L 240 1536 L 252 1500 Q 252 1500 288 1500 L 864 1692 L 864 1020 L 576 1020 L 564 1008 L 456 912 L 456 888 L 456 876 L 480 864 L 864 864 L 864 624 L 864 624 L 852 552 Q 816 396 732 300 Q 660 240 552 204 L 480 180 L 348 168 L 252 72 L 240 48 L 252 36 L 276 24 "/>
<glyph glyph-name="k" unicode="&#x6b;" horiz-adv-x="1092" d="M 1104 24 L 1128 36 L 1224 132 L 1236 156 L 1236 1824 L 1224 1848 Q 1212 1860 1188 1848 L 1092 1752 L 1080 1728 L 1080 1188 L 600 1020 L 600 1824 L 588 1848 Q 588 1860 564 1848 L 432 1740 L 360 1680 L 276 1656 L 228 1656 L 228 1644 Q 168 1656 144 1644 L 36 1548 L 36 1512 L 36 1500 L 84 1500 L 84 1500 L 180 1500 L 264 1524 Q 372 1584 444 1668 L 444 900 L 456 876 Q 468 864 492 864 L 1080 1068 L 1080 60 L 1092 36 L 1104 24 "/>
<glyph glyph-name="comma" unicode="&#x2c;" horiz-adv-x="624" d="M 492 816 L 528 816 L 648 936 L 648 972 L 564 1068 L 528 1068 L 408 948 L 396 912 L 492 816 L 492 816 M 492 1440 L 528 1452 L 648 1572 L 648 1596 L 564 1692 L 528 1692 L 408 1572 L 396 1548 L 492 1452 L 492 1440 "/>
<glyph glyph-name="semicolon" unicode="&#x3b;" horiz-adv-x="624" d="M 492 816 L 528 816 L 648 936 L 648 972 L 564 1068 L 528 1068 L 408 948 L 396 912 L 492 816 L 492 816 M 492 1440 L 528 1452 L 648 1572 L 648 1596 L 564 1692 L 528 1692 L 408 1572 L 396 1548 L 492 1452 L 492 1440 "/>
<glyph glyph-name="i" unicode="&#x69;" horiz-adv-x="1716" d="M 1104 864 L 1188 864 L 1200 876 L 1248 876 L 1320 900 L 1356 924 L 1452 984 L 1644 1176 L 1644 1212 L 1644 1224 Q 1632 1224 1608 1224 L 1488 1104 L 1392 1044 L 1332 1020 L 1284 1020 L 1272 1020 L 1164 1020 L 1104 1044 L 1068 1080 L 1044 1104 L 1020 1164 L 1020 1536 L 1500 1692 L 1500 1536 L 1512 1500 Q 1512 1500 1536 1500 L 1644 1596 L 1656 1620 L 1656 1824 L 1644 1848 L 1620 1860 L 1020 1656 L 1020 1824 L 1008 1848 L 996 1860 L 396 1656 L 396 1824 L 384 1848 Q 372 1860 348 1848 L 252 1752 L 240 1728 L 240 1536 L 252 1500 Q 252 1500 288 1500 L 864 1692 L 864 1092 L 876 1092 L 876 1056 Q 900 960 972 912 L 1020 888 L 1056 864 L 1092 864 L 1104 864 "/>
<glyph glyph-name="n" unicode="&#x6e;" horiz-adv-x="1248" d="M 468 864 L 492 864 L 1080 1068 L 1080 900 L 1092 876 Q 1092 864 1116 864 L 1224 972 L 1236 996 L 1236 1824 L 1224 1848 Q 1212 1860 1188 1848 L 1092 1752 L 1080 1728 L 1080 1188 L 600 1020 L 600 2448 L 588 2484 Q 588 2484 564 2484 L 432 2364 L 360 2316 L 276 2280 L 228 2280 L 228 2280 Q 168 2280 144 2268 L 36 2172 L 36 2148 L 36 2136 L 84 2124 L 84 2124 L 180 2136 L 264 2160 Q 372 2208 444 2292 L 444 900 L 456 876 L 468 864 "/>
<glyph glyph-name="z" unicode="&#x7a;" horiz-adv-x="1872" d="M 468 864 L 492 876 L 588 972 L 600 996 L 600 1536 L 1080 1692 L 1080 900 L 1092 876 Q 1092 864 1116 864 L 1224 972 L 1236 996 L 1236 1536 L 1704 1692 L 1704 900 L 1716 876 Q 1728 864 1752 864 L 1848 972 L 1860 996 L 1860 1824 L 1848 1848 L 1836 1860 L 1236 1656 L 1236 1824 L 1224 1848 L 1200 1860 L 600 1656 L 600 1824 L 588 1848 Q 588 1860 564 1848 L 432 1740 L 360 1680 L 276 1656 L 228 1656 L 228 1644 Q 168 1656 144 1644 L 36 1548 L 36 1512 L 36 1500 L 84 1500 L 84 1500 L 180 1500 L 264 1524 Q 372 1584 444 1668 L 444 900 L 456 876 L 468 864 "/>
<glyph glyph-name="h" unicode="&#x68;" horiz-adv-x="1248" d="M 468 24 L 492 36 L 588 132 L 600 156 L 600 912 L 1080 1068 L 1080 900 L 1092 876 Q 1092 864 1116 864 L 1224 972 L 1236 996 L 1236 1824 L 1224 1848 Q 1212 1860 1188 1848 L 1092 1752 L 1080 1728 L 1080 1188 L 600 1020 L 600 1824 L 588 1848 Q 588 1860 564 1848 L 432 1740 L 360 1680 L 276 1656 L 228 1656 L 228 1644 Q 168 1656 144 1644 L 36 1548 L 36 1512 L 36 1500 L 84 1500 L 84 1500 L 180 1500 L 264 1524 Q 372 1584 444 1668 L 444 60 L 456 36 L 468 24 "/>
<glyph glyph-name="p" unicode="&#x70;" horiz-adv-x="1248" d="M 852 24 L 912 24 L 912 36 L 1008 132 L 1020 156 L 1008 168 L 984 180 L 960 180 L 924 180 L 888 204 L 804 276 L 744 348 L 684 468 L 648 600 L 612 756 L 612 828 L 600 828 L 600 876 L 600 888 L 600 1536 L 1080 1692 L 1080 900 L 1092 876 Q 1092 864 1116 864 L 1224 972 L 1236 996 L 1236 1824 L 1224 1848 L 1200 1860 L 600 1656 L 600 1824 L 588 1848 Q 588 1860 564 1848 L 456 1752 L 444 1728 L 444 876 L 456 876 L 456 780 L 456 768 L 456 720 L 468 720 L 468 660 L 492 528 L 528 408 L 576 288 L 612 216 Q 660 144 720 96 Q 780 48 852 24 "/>
<glyph glyph-name="m" unicode="&#x6d;" horiz-adv-x="0" d="M 264 1500 L 288 1500 L 1056 2268 L 1056 2256 L 1032 2172 L 1032 2064 L 1032 2064 L 1044 2016 L 1056 1980 L 1092 1920 L 1116 1920 L 1128 1920 L 1224 2016 L 1236 2040 L 1200 2076 L 1188 2112 L 1176 2208 L 1188 2208 L 1188 2256 L 1188 2256 L 1188 2316 L 1236 2460 L 1224 2484 L 1200 2484 L 1188 2484 L 252 1548 L 240 1524 L 252 1500 L 264 1500 "/>
<glyph glyph-name="l" unicode="&#x6c;" horiz-adv-x="1248" d="M 492 24 L 492 24 L 576 36 L 660 48 L 720 72 L 792 108 L 888 168 L 1056 324 Q 1128 396 1164 492 L 1200 600 L 1224 708 L 1224 768 L 1236 768 L 1236 1824 L 1224 1848 L 1200 1860 L 600 1656 L 600 1824 L 588 1848 Q 588 1860 564 1848 L 432 1740 L 360 1680 L 276 1656 L 228 1656 L 228 1644 Q 168 1656 144 1644 L 36 1548 L 36 1512 L 36 1500 L 84 1500 L 84 1500 L 180 1500 L 264 1524 Q 372 1584 444 1668 L 444 900 L 456 876 Q 468 864 492 864 L 588 972 L 600 996 L 600 1536 L 1080 1692 L 1080 1020 L 792 1020 L 768 1008 L 672 912 L 660 888 L 672 876 L 696 864 L 1080 864 L 1080 624 L 1080 624 L 1068 552 Q 1032 396 948 300 Q 864 240 768 204 L 696 180 L 564 168 L 456 72 L 456 48 L 456 36 L 492 24 "/>
<glyph glyph-name="g" unicode="&#x67;" horiz-adv-x="1248" d="M 1488 24 L 1536 24 L 1548 36 L 1644 132 L 1644 156 L 1644 168 L 1620 180 L 1584 180 L 1560 180 L 1512 204 L 1440 276 L 1380 348 L 1320 468 L 1272 600 L 1248 756 L 1236 828 L 1236 828 L 1236 876 L 1236 888 L 1236 1824 L 1224 1848 Q 1212 1860 1188 1848 L 1092 1752 L 1080 1728 L 1080 1188 L 600 1020 L 600 1824 L 588 1848 Q 588 1860 564 1848 L 432 1740 L 360 1680 L 276 1656 L 228 1656 L 228 1644 Q 168 1656 144 1644 L 36 1548 L 36 1512 L 36 1500 L 84 1500 L 84 1500 L 180 1500 L 264 1524 Q 372 1584 444 1668 L 444 900 L 456 876 Q 468 864 492 864 L 1080 1068 L 1080 876 L 1080 876 L 1092 720 L 1092 720 L 1092 696 L 1092 684 L 1092 660 L 1104 648 L 1104 576 L 1128 492 L 1164 372 L 1236 240 Q 1284 156 1356 96 Q 1404 48 1488 24 "/>
<glyph glyph-name="u" unicode="&#x75;" horiz-adv-x="1404" d="M 684 864 L 744 864 L 804 888 L 912 924 L 984 972 L 1116 1116 Q 1176 1176 1200 1248 L 1224 1320 L 1236 1416 L 1224 1416 L 1224 1488 L 1188 1584 Q 1152 1680 1068 1752 Q 1020 1800 936 1824 L 864 1848 L 768 1860 L 768 1848 L 720 1848 L 660 1836 L 564 1800 L 492 1752 L 348 1608 Q 300 1548 276 1488 L 252 1404 L 240 1308 L 240 1296 L 252 1224 L 276 1140 Q 324 1044 396 972 Q 456 924 516 900 L 600 876 L 672 864 L 684 864 M 732 1020 L 672 1032 L 612 1056 Q 552 1080 516 1116 Q 420 1200 396 1356 L 396 1452 Q 396 1464 396 1488 Q 420 1572 456 1632 Q 504 1668 552 1680 L 636 1704 L 732 1704 L 804 1692 Q 900 1668 960 1596 Q 1056 1512 1080 1368 L 1080 1272 Q 1068 1260 1080 1236 Q 1056 1152 1008 1092 Q 960 1056 888 1032 L 828 1020 L 732 1020 "/>
<glyph glyph-name="seven" unicode="&#x37;" horiz-adv-x="1560" d="M 444 24 Q 480 24 492 36 L 588 132 L 600 156 L 588 168 Q 576 180 552 180 L 528 192 L 480 228 Q 420 300 408 408 L 396 456 L 396 480 L 396 492 L 396 612 Q 408 696 444 744 L 612 840 L 864 960 L 864 60 L 876 36 Q 888 24 912 24 L 1008 132 L 1020 156 L 1020 1020 L 1032 1020 Q 1188 1092 1332 1176 Q 1452 1260 1536 1368 Q 1596 1416 1620 1488 L 1644 1548 L 1644 1620 L 1656 1620 L 1644 1620 L 1644 1656 L 1644 1692 L 1620 1728 Q 1596 1776 1548 1812 L 1488 1848 L 1404 1860 L 1404 1848 L 1368 1848 L 1320 1848 L 1236 1800 L 1176 1764 L 1044 1632 L 1020 1596 L 1020 1824 L 1008 1848 L 996 1860 L 396 1656 L 396 1812 L 384 1848 Q 372 1860 348 1848 L 252 1752 L 240 1728 L 240 1536 L 252 1500 Q 252 1500 288 1500 L 864 1692 L 864 1068 L 648 972 L 552 912 Q 444 828 348 720 Q 300 672 264 600 L 240 528 L 240 456 L 240 444 L 240 384 L 252 384 L 252 324 L 276 228 L 312 144 Q 348 96 384 60 L 444 24 M 1020 1140 L 1020 1272 L 1020 1284 L 1032 1344 L 1044 1416 Q 1080 1560 1152 1656 Q 1200 1692 1284 1704 L 1356 1704 L 1416 1680 L 1440 1668 L 1476 1620 L 1500 1560 L 1500 1488 L 1488 1452 Q 1476 1392 1440 1344 L 1284 1248 L 1020 1140 "/>
<glyph glyph-name="six" unicode="&#x36;" horiz-adv-x="1560" d="M 1308 24 L 1332 36 L 1428 132 L 1440 168 L 1440 168 L 1440 264 L 1428 276 L 1428 312 L 1428 324 L 1428 384 L 1404 516 L 1368 636 Q 1332 732 1272 816 Q 1236 900 1164 948 Q 1116 996 1020 1008 L 1020 1536 L 1032 1536 L 1500 1692 L 1500 900 L 1512 876 Q 1512 864 1536 864 L 1644 972 L 1656 996 L 1656 1824 L 1644 1848 L 1620 1860 L 1020 1656 L 1020 1824 L 1008 1848 L 996 1860 L 396 1656 L 396 1812 L 384 1848 Q 372 1860 348 1848 L 252 1752 L 240 1728 L 240 1536 L 252 1500 Q 252 1500 288 1500 L 864 1692 L 864 900 L 876 876 L 900 864 L 936 864 L 960 852 L 1008 840 L 1080 768 Q 1140 696 1188 612 L 1248 444 L 1272 288 L 1272 252 L 1284 216 L 1284 156 L 1284 156 L 1284 60 L 1296 36 L 1308 24 "/>
<glyph glyph-name="five" unicode="&#x35;" horiz-adv-x="1404" d="M 684 24 L 672 36 L 660 48 L 672 72 L 768 168 L 876 180 L 972 204 Q 1080 240 1152 300 Q 1212 372 1248 456 L 1272 528 L 1284 624 L 1284 1068 L 708 864 Q 672 864 672 876 L 660 900 L 660 1692 L 72 1500 Q 48 1500 36 1500 L 24 1536 L 24 1728 L 36 1752 L 144 1848 Q 168 1860 168 1848 L 180 1812 L 180 1656 L 780 1860 L 804 1848 L 816 1812 L 816 1656 L 1416 1860 L 1428 1848 L 1440 1812 L 1440 780 L 1440 768 L 1440 708 L 1416 600 L 1380 492 Q 1332 396 1260 324 L 1104 168 L 996 108 Q 924 60 828 48 L 792 36 L 768 36 L 756 24 L 684 24 M 816 1020 L 1284 1188 L 1284 1692 L 816 1536 L 816 1020 "/>
<glyph glyph-name="four" unicode="&#x34;" horiz-adv-x="1716" d="M 264 864 L 864 1164 L 876 1056 L 888 1020 Q 912 948 972 912 L 1044 876 L 1128 864 L 1140 864 L 1188 864 L 1200 876 L 1248 876 L 1320 900 L 1356 924 L 1452 984 L 1644 1176 L 1644 1212 L 1644 1224 Q 1632 1224 1608 1224 L 1488 1104 L 1392 1044 L 1332 1020 L 1284 1020 L 1272 1020 L 1164 1020 L 1104 1044 L 1068 1080 L 1044 1104 L 1020 1164 L 1020 1236 L 1536 1500 L 1644 1596 L 1656 1632 L 1644 1632 L 1644 1680 L 1620 1728 Q 1596 1776 1548 1812 L 1476 1848 L 1404 1860 L 1404 1848 L 1368 1848 L 1320 1848 L 1236 1800 L 1176 1764 L 1044 1632 L 1020 1596 L 1020 1824 L 1008 1848 L 996 1860 L 396 1656 L 396 1824 L 384 1848 Q 372 1860 348 1848 L 252 1752 L 240 1728 L 240 1524 L 252 1500 Q 252 1500 288 1500 L 864 1692 L 864 1272 L 360 1020 L 252 912 L 240 888 L 252 876 L 264 864 M 1032 1356 Q 1068 1536 1152 1656 Q 1200 1692 1284 1704 L 1356 1704 L 1416 1680 L 1440 1668 Q 1476 1632 1488 1584 L 1032 1356 "/>
<glyph glyph-name="three" unicode="&#x33;" horiz-adv-x="2028" d="M 36 852 Q 72 840 84 852 L 636 1224 L 636 912 L 648 864 L 660 852 Q 672 840 708 852 L 1272 1224 L 1272 912 L 1272 912 L 1272 864 L 1296 852 L 1332 852 L 1344 852 L 1452 960 L 1452 1008 L 1464 1008 L 1464 1356 L 1464 1356 L 1896 1644 L 1896 912 L 1908 912 L 1908 864 L 1920 852 L 1968 852 L 1980 852 L 2088 960 L 2088 996 L 2088 1824 L 2088 1860 L 2064 1872 Q 2052 1884 2028 1872 L 1464 1500 L 1464 1812 L 1452 1860 L 1440 1872 Q 1428 1884 1392 1872 L 828 1500 L 828 1800 L 828 1812 L 828 1860 L 804 1872 L 768 1872 L 204 1680 L 192 1836 L 180 1872 L 132 1872 L 120 1872 L 12 1764 L 12 1728 L 12 1524 L 12 1500 L 36 1488 L 72 1476 L 636 1668 L 636 1368 L 132 1032 L 12 924 Q 12 912 12 876 L 36 852 L 36 852 M 48 852 L 36 864 L 12 876 L 24 912 L 144 1032 L 624 1356 L 648 1368 L 648 1668 L 72 1488 Q 48 1476 36 1488 L 12 1512 L 12 1524 L 12 1728 L 24 1764 L 120 1860 L 144 1872 Q 168 1872 180 1860 L 192 1836 Q 180 1812 192 1800 L 192 1680 L 768 1872 Q 792 1872 804 1860 L 828 1836 Q 816 1812 828 1800 L 828 1500 L 840 1500 L 1368 1848 L 1404 1872 Q 1428 1872 1440 1860 L 1452 1836 Q 1452 1812 1452 1812 L 1452 1500 L 1476 1500 L 1992 1848 L 2028 1872 Q 2052 1872 2064 1860 L 2088 1824 L 2088 996 L 2076 960 L 1980 864 L 1956 852 Q 1932 852 1920 864 L 1908 888 Q 1920 912 1908 912 L 1908 1644 L 1884 1644 L 1476 1368 L 1452 1356 L 1452 1008 Q 1440 1008 1452 972 L 1440 960 L 1344 864 L 1332 852 Q 1308 852 1296 864 L 1272 888 Q 1284 912 1272 912 L 1272 1224 L 1260 1224 L 732 864 L 696 852 Q 672 852 660 864 L 648 888 Q 648 912 648 912 L 648 1224 L 624 1224 L 108 864 L 72 852 L 48 852 "/>
<glyph glyph-name="eight" unicode="&#x38;" horiz-adv-x="1560" d="M 900 24 Q 924 36 960 24 L 1044 48 L 1152 96 L 1248 156 L 1416 312 Q 1500 408 1560 540 L 1608 684 L 1644 816 L 1644 888 L 1644 888 L 1644 972 L 1656 972 L 1656 1824 L 1644 1848 L 1620 1860 L 1020 1656 L 1020 1824 L 1008 1848 L 996 1860 L 396 1656 L 396 1824 L 384 1848 Q 372 1860 348 1848 L 252 1752 L 240 1728 L 240 1536 L 252 1500 Q 252 1500 288 1500 L 864 1692 L 864 900 L 876 876 Q 888 864 912 864 L 1008 972 L 1020 996 L 1020 1536 L 1500 1692 L 1500 804 L 1500 804 L 1500 768 L 1488 768 L 1488 732 L 1476 684 L 1476 660 L 1428 516 Q 1380 384 1296 276 Q 1224 228 1152 204 L 1044 180 Q 996 180 972 168 L 876 72 L 876 48 L 876 36 L 900 24 "/>
<glyph glyph-name="nine" unicode="&#x39;" horiz-adv-x="1560" d="M 888 24 L 912 36 L 1008 132 L 1020 156 L 1020 864 L 1524 864 L 1548 876 L 1644 972 L 1644 996 L 1644 1008 L 1608 1020 L 1020 1020 L 1020 1536 L 1032 1536 L 1500 1692 L 1500 1536 L 1512 1500 Q 1512 1500 1536 1500 L 1644 1596 L 1656 1632 L 1656 1812 L 1644 1848 L 1620 1860 L 1020 1656 L 1020 1812 L 1008 1848 L 996 1860 L 396 1656 L 396 1812 L 384 1848 Q 372 1860 348 1848 L 252 1752 L 240 1728 L 240 1536 L 252 1500 Q 252 1500 288 1500 L 864 1692 L 864 1020 L 372 1020 L 348 1008 L 252 912 L 240 888 L 252 876 L 276 864 L 864 864 L 864 60 L 876 36 L 888 24 "/>
<glyph glyph-name="zero" unicode="&#x30;" horiz-adv-x="1560" d="M 888 864 L 912 864 L 1500 1068 L 1500 900 L 1512 876 Q 1512 864 1536 864 L 1644 972 L 1656 996 L 1656 1824 L 1644 1848 L 1620 1860 L 1020 1656 L 1020 1824 L 1008 1848 L 996 1860 L 396 1656 L 396 1824 L 384 1848 Q 372 1860 348 1848 L 252 1752 L 240 1728 L 240 1536 L 252 1500 Q 252 1500 288 1500 L 864 1692 L 864 900 L 876 876 L 888 864 M 1020 1020 L 1020 1536 L 1500 1692 L 1500 1188 L 1020 1020 "/>
<glyph glyph-name="icircumflex" unicode="&#xee;" horiz-adv-x="1872" d="M 1524 24 L 1548 36 L 1644 132 L 1644 132 L 1644 228 L 1620 336 Q 1596 432 1560 504 Q 1488 624 1380 720 Q 1284 816 1140 888 L 1224 972 L 1236 996 L 1236 1536 L 1704 1692 L 1704 900 L 1716 876 Q 1728 864 1752 864 L 1848 972 L 1860 996 L 1860 1812 L 1848 1848 L 1836 1860 L 1236 1656 L 1236 1812 L 1224 1848 L 1200 1860 L 600 1656 L 600 1812 L 588 1848 Q 588 1860 564 1848 L 432 1740 L 360 1680 L 276 1656 L 228 1656 L 228 1644 L 156 1644 L 144 1644 L 36 1548 L 36 1512 L 36 1500 L 84 1500 L 84 1500 L 180 1500 L 276 1536 Q 372 1584 444 1668 L 444 900 L 456 876 L 480 864 L 576 864 L 576 864 L 648 852 L 648 852 L 720 840 L 864 816 L 948 780 Q 1176 684 1320 516 Q 1404 420 1464 288 L 1488 180 L 1500 120 L 1500 120 L 1500 60 L 1512 36 L 1524 24 M 1080 912 L 1020 936 L 912 972 L 804 996 L 720 1008 L 720 1008 L 684 1008 L 684 1008 L 600 1008 L 600 1020 L 600 1536 L 1068 1692 L 1080 1692 L 1080 912 "/>
<glyph glyph-name="ucircumflex" unicode="&#xfb;" horiz-adv-x="1248" d="M 888 24 L 1104 24 L 1116 24 L 1224 132 L 1224 156 L 1224 168 L 1200 180 L 948 180 Q 936 192 912 180 Q 780 216 708 300 Q 648 360 612 456 L 600 516 L 600 612 L 624 708 Q 636 756 672 804 Q 732 840 816 864 Q 840 852 852 864 L 1104 864 L 1116 864 L 1224 972 L 1236 996 L 1236 1812 L 1224 1848 Q 1212 1860 1188 1848 L 1092 1752 L 1080 1728 L 1080 1188 L 600 1020 L 600 1812 L 588 1848 Q 588 1860 564 1848 L 432 1740 L 360 1680 L 276 1656 L 228 1656 L 228 1644 Q 168 1656 144 1644 L 36 1548 L 36 1512 L 36 1500 L 84 1500 L 84 1500 L 180 1500 L 264 1524 Q 372 1584 444 1668 L 444 900 L 456 876 Q 468 864 492 864 L 780 972 L 780 960 Q 732 936 696 912 L 564 768 Q 516 708 480 648 L 456 564 L 444 468 L 456 456 L 456 384 L 480 300 Q 528 204 612 132 Q 660 84 732 60 L 816 36 L 888 24 L 888 24 "/>
<glyph glyph-name="idieresis" unicode="&#xef;" horiz-adv-x="2184" d="M 1536 864 L 1524 864 L 1488 864 L 1440 888 L 1380 912 Q 1320 960 1296 1056 L 1296 1104 L 1284 1104 L 1284 1692 L 816 1536 L 816 996 L 804 972 L 696 864 Q 672 864 672 876 L 660 912 L 660 1692 L 72 1500 Q 48 1500 36 1500 L 24 1536 L 24 1716 L 36 1752 L 144 1848 Q 168 1860 168 1848 L 180 1812 L 180 1656 L 780 1860 L 804 1848 L 816 1812 L 816 1656 L 1416 1860 L 1428 1848 L 1440 1812 L 1440 1656 L 2040 1860 L 2064 1848 L 2076 1812 L 2076 1632 L 2064 1596 L 1956 1500 Q 1932 1500 1932 1500 L 1920 1536 L 1920 1692 L 1440 1536 L 1440 1164 Q 1452 1104 1488 1080 Q 1524 1032 1584 1020 L 1692 1020 Q 1704 1032 1728 1020 L 1812 1044 L 1908 1104 L 2028 1224 Q 2052 1224 2064 1224 L 2064 1212 L 2064 1176 L 1872 984 L 1776 912 Q 1728 888 1668 876 L 1620 876 L 1608 864 L 1548 864 L 1536 864 "/>
<glyph glyph-name="odieresis" unicode="&#xf6;" horiz-adv-x="2184" d="M 684 864 L 672 876 L 660 900 L 660 1692 L 72 1500 Q 48 1500 36 1500 L 24 1536 L 24 1728 L 36 1752 L 144 1848 Q 168 1860 168 1848 L 180 1812 L 180 1656 L 780 1860 L 804 1848 L 816 1812 L 816 1656 L 1416 1860 L 1428 1848 L 1440 1812 L 1440 1656 L 2040 1860 L 2064 1848 L 2076 1812 L 2076 1632 L 2064 1596 L 1956 1500 Q 1932 1500 1932 1500 L 1920 1536 L 1920 1692 L 1440 1536 L 1440 996 L 1428 972 L 1332 864 Q 1308 864 1296 876 L 1284 900 L 1284 1692 L 816 1536 L 816 996 L 804 972 L 708 876 L 684 864 "/>
<glyph glyph-name="udieresis" unicode="&#xfc;" horiz-adv-x="1404" d="M 1104 24 L 1104 24 L 1032 36 L 948 60 Q 876 84 816 132 Q 696 228 660 420 L 660 528 L 672 600 Q 708 696 768 768 L 912 912 Q 960 948 1020 984 L 1080 996 L 1140 1008 L 1284 1020 L 1284 1692 L 816 1536 L 816 996 L 804 972 L 696 864 Q 672 864 672 876 L 660 900 L 660 1692 L 72 1500 Q 48 1500 36 1500 L 24 1536 L 24 1728 L 36 1752 L 144 1848 Q 168 1860 168 1848 L 180 1812 L 180 1656 L 780 1860 L 804 1848 L 816 1812 L 816 1656 L 1416 1860 L 1428 1848 L 1440 1812 L 1440 996 L 1428 972 L 1332 864 L 1308 864 L 1056 864 Q 1056 852 1032 864 Q 948 840 888 804 Q 852 756 828 708 L 816 624 L 816 516 L 828 456 Q 852 360 912 300 Q 996 216 1128 180 Q 1140 180 1152 180 L 1404 180 L 1428 168 L 1440 156 L 1428 132 L 1332 24 L 1308 24 L 1104 24 "/>
<glyph glyph-name="ydieresis" unicode="&#xff;" horiz-adv-x="1560" d="M 60 864 L 48 864 L 24 888 L 36 912 L 144 1020 L 660 1356 L 660 1692 L 72 1500 Q 48 1500 36 1500 L 24 1536 L 24 1728 L 36 1752 L 144 1848 Q 168 1860 168 1848 L 180 1812 L 180 1656 L 780 1860 L 804 1848 L 816 1812 L 816 1464 L 1404 1860 L 1428 1848 L 1440 1812 L 1440 996 L 1428 972 L 1332 864 Q 1308 864 1296 876 L 1284 900 L 1284 1680 L 816 1368 L 816 996 L 804 972 L 696 864 Q 672 864 672 876 L 660 900 L 660 1260 L 84 876 L 60 864 "/>
<glyph glyph-name="ccedilla" unicode="&#xe7;" horiz-adv-x="1872" d="M 468 864 L 492 864 L 1080 1068 L 1080 900 L 1092 876 Q 1092 864 1128 864 L 1704 1068 L 1704 900 L 1716 876 Q 1728 864 1752 864 L 1848 972 L 1860 996 L 1860 1812 L 1848 1848 Q 1848 1860 1824 1848 L 1716 1752 L 1704 1728 L 1704 1188 L 1236 1020 L 1236 1824 L 1224 1848 L 1200 1860 L 600 1656 L 600 1812 L 588 1848 Q 588 1860 564 1848 L 432 1740 L 360 1680 L 276 1656 L 228 1656 L 228 1644 Q 168 1656 144 1644 L 36 1548 L 36 1512 L 36 1500 L 84 1500 L 84 1500 L 180 1500 L 264 1524 Q 372 1584 444 1668 L 444 900 L 456 876 L 468 864 M 600 1020 L 600 1536 L 1080 1692 L 1080 1188 L 600 1020 "/>
<glyph glyph-name="dollar" unicode="&#x24;" horiz-adv-x="1872" d="M 468 864 L 492 876 L 588 972 L 600 996 L 600 1536 L 1080 1692 L 1080 900 L 1092 876 Q 1092 864 1128 864 L 1704 1068 L 1704 900 L 1716 876 Q 1728 864 1752 864 L 1848 972 L 1860 996 L 1860 1824 L 1848 1848 Q 1848 1860 1824 1848 L 1716 1752 L 1704 1728 L 1704 1188 L 1236 1020 L 1236 1824 L 1224 1848 L 1200 1860 L 600 1656 L 600 1824 L 588 1848 Q 588 1860 564 1848 L 432 1740 L 360 1680 L 276 1656 L 228 1656 L 228 1644 Q 168 1656 144 1644 L 36 1548 L 36 1512 L 36 1500 L 84 1500 L 84 1500 L 180 1500 L 264 1524 Q 372 1584 444 1668 L 444 900 L 456 876 L 468 864 "/>
<glyph glyph-name="acircumflex" unicode="&#xe2;" horiz-adv-x="1248" d="M 468 864 L 492 864 L 1080 1068 L 1080 900 L 1092 876 Q 1092 864 1116 864 L 1224 972 L 1236 996 L 1236 1824 L 1224 1848 L 1200 1860 L 600 1656 L 600 1824 L 588 1848 Q 588 1860 564 1848 L 456 1752 Q 444 1740 444 1716 L 444 1704 Q 384 1680 312 1656 L 264 1656 L 228 1656 L 228 1644 Q 180 1656 144 1644 L 36 1548 L 36 1512 L 36 1500 L 72 1500 L 84 1500 L 180 1500 L 288 1524 L 384 1572 L 444 1620 L 444 900 L 456 876 L 468 864 M 600 1020 L 600 1536 L 1080 1692 L 1080 1188 L 600 1020 "/>
<glyph glyph-name="numbersign" unicode="&#x23;" horiz-adv-x="1872" d="M 468 864 L 492 864 L 1080 1068 L 1080 900 L 1092 876 Q 1092 864 1116 864 L 1224 972 L 1236 996 L 1236 1536 L 1704 1692 L 1704 900 L 1716 876 Q 1728 864 1752 864 L 1848 972 L 1860 996 L 1860 1824 L 1848 1848 L 1836 1860 L 1236 1656 L 1236 2448 L 1224 2484 Q 1212 2484 1188 2484 L 1092 2388 L 1080 2352 L 1080 1188 L 600 1020 L 600 1812 L 588 1848 Q 588 1860 564 1848 L 432 1740 L 360 1680 L 276 1656 L 228 1656 L 228 1644 Q 168 1656 144 1644 L 36 1548 L 36 1512 L 36 1500 L 84 1500 L 84 1500 L 180 1500 L 264 1524 Q 372 1584 444 1668 L 444 900 L 456 876 L 468 864 "/>
<glyph glyph-name="uacute" unicode="&#xfa;" horiz-adv-x="0" d="M 684 1704 L 708 1716 L 804 1812 L 816 1824 L 816 2172 L 1284 2328 L 1284 2160 L 1296 2136 Q 1308 2124 1332 2124 L 1428 2232 L 1440 2244 L 1440 2460 L 1428 2484 L 1416 2484 L 816 2280 L 816 2460 L 804 2484 L 780 2484 L 180 2280 L 180 2460 L 168 2484 Q 168 2484 144 2484 L 36 2388 L 24 2364 L 24 2160 L 36 2136 Q 48 2124 72 2124 L 660 2328 L 660 1740 L 672 1716 L 684 1704 "/>
<glyph glyph-name="logicalnot" unicode="&#xac;" horiz-adv-x="0" d="M 1104 864 L 1128 876 L 1224 972 L 1236 996 L 1236 2448 L 1224 2484 Q 1212 2484 1188 2484 L 1068 2364 L 996 2316 L 912 2280 L 864 2280 L 852 2280 Q 804 2280 768 2268 L 672 2172 L 660 2148 L 672 2136 L 708 2124 L 720 2124 L 804 2136 L 900 2160 Q 1008 2208 1080 2292 L 1080 900 L 1092 876 L 1104 864 "/>
<glyph glyph-name="brokenbar" unicode="&#xa6;" horiz-adv-x="0" d="M 468 864 L 492 876 L 588 972 L 600 996 L 600 2448 L 588 2484 Q 588 2484 564 2484 L 432 2364 L 360 2316 L 276 2280 L 228 2280 L 228 2280 Q 168 2280 144 2268 L 36 2172 L 36 2148 L 36 2136 L 84 2124 L 84 2124 L 180 2136 L 264 2160 Q 372 2208 444 2292 L 444 900 L 456 876 L 468 864 "/>
<glyph glyph-name="a" unicode="&#x61;" horiz-adv-x="1092" d="M 888 864 L 912 876 L 1008 972 L 1020 996 L 1020 1824 L 1008 1848 L 996 1860 L 396 1656 L 396 1824 L 384 1848 Q 372 1860 348 1848 L 252 1752 L 240 1728 L 240 1524 L 252 1500 Q 252 1500 288 1500 L 864 1692 L 864 900 L 876 876 L 888 864 "/>
<glyph glyph-name="Z" unicode="&#x5a;" horiz-adv-x="1092" d="M 264 24 L 288 36 L 384 132 L 396 144 L 396 204 L 408 240 L 444 312 L 564 384 L 672 420 L 780 444 L 900 444 L 912 444 L 1008 552 L 1020 576 L 1020 588 L 1020 660 L 1008 660 L 1008 696 L 1008 696 L 1008 744 L 960 888 Q 912 1032 804 1128 L 756 1164 L 912 1320 Q 960 1380 996 1464 L 1008 1536 L 1020 1632 L 1020 1632 L 1008 1680 L 996 1728 Q 960 1776 924 1812 L 852 1848 L 768 1860 L 756 1848 L 696 1848 L 684 1848 L 612 1836 L 492 1800 L 408 1752 L 264 1608 L 240 1560 L 240 1512 L 252 1500 Q 252 1500 276 1500 L 384 1596 Q 396 1608 396 1644 L 396 1644 Q 468 1680 552 1692 L 612 1704 L 612 1704 L 720 1704 L 792 1680 L 828 1644 L 840 1620 L 864 1560 L 864 1476 L 852 1392 Q 828 1332 792 1296 Q 744 1260 684 1236 L 624 1224 L 576 1224 L 552 1224 L 456 1128 L 456 1092 L 456 1080 L 480 1080 L 540 1068 L 576 1056 L 624 1032 L 696 984 L 768 888 L 804 804 L 840 696 L 864 588 L 864 588 L 792 576 L 696 552 L 564 492 L 468 420 L 336 288 Q 300 240 264 192 L 252 120 L 240 60 L 240 60 L 252 36 L 264 24 "/>
<glyph glyph-name="B" unicode="&#x42;" horiz-adv-x="936" d="M 672 864 L 720 864 L 780 900 L 924 1044 Q 972 1104 996 1200 L 1020 1320 L 1020 1428 L 1020 1428 L 1008 1536 L 984 1656 L 948 1740 Q 912 1788 876 1824 L 816 1848 L 768 1860 L 756 1848 L 660 1848 L 552 1824 L 456 1776 L 396 1740 L 396 2448 L 384 2484 Q 372 2484 348 2484 L 252 2388 L 240 2364 L 240 900 L 252 876 Q 252 864 276 864 L 360 936 L 360 936 Q 432 900 516 888 L 600 876 L 600 864 L 660 864 L 672 864 M 708 1020 L 696 1020 L 660 1020 L 624 1032 L 540 1056 L 444 1104 Q 408 1128 396 1176 L 396 1644 Q 432 1668 492 1680 L 612 1704 L 708 1704 L 744 1680 Q 804 1632 828 1560 L 852 1476 L 864 1428 L 864 1392 L 864 1392 L 864 1236 L 864 1236 L 864 1200 L 852 1116 L 816 1020 L 804 1020 L 708 1020 "/>
<glyph glyph-name="A" unicode="&#x41;" horiz-adv-x="1092" d="M 468 864 L 888 864 L 912 876 L 960 912 L 1020 888 L 1056 864 L 1092 864 L 1104 864 L 1128 876 L 1224 972 L 1224 996 L 1224 1008 L 1200 1020 L 1164 1020 L 1140 1020 Q 1092 1044 1068 1080 L 1044 1104 L 1020 1164 L 1020 1632 Q 1008 1632 1020 1656 Q 996 1764 924 1812 L 852 1848 L 768 1860 L 756 1848 L 696 1848 L 684 1848 L 612 1836 L 492 1800 L 408 1752 L 264 1608 L 240 1560 L 240 1512 L 252 1500 Q 252 1500 276 1500 L 384 1596 Q 396 1608 396 1644 L 396 1644 Q 468 1680 552 1692 L 612 1704 L 612 1704 L 720 1704 L 792 1680 L 828 1644 L 840 1620 L 864 1560 L 864 1440 L 564 1440 L 552 1428 L 504 1428 L 432 1392 L 288 1248 L 252 1164 L 240 1092 L 240 1092 L 252 1044 L 264 984 Q 300 948 336 912 L 384 888 L 432 864 L 468 864 L 468 864 M 540 1020 L 468 1044 L 456 1056 L 420 1104 L 396 1164 L 396 1236 L 408 1272 L 444 1284 L 864 1284 L 864 1020 L 540 1020 "/>
<glyph glyph-name="question" unicode="&#x3f;" horiz-adv-x="1092" d="M 792 756 L 852 768 L 876 792 L 996 900 L 1008 936 L 1020 984 L 1008 1044 L 972 1092 L 948 1104 L 888 1116 L 828 1104 L 804 1092 L 684 972 L 672 948 L 660 888 L 672 840 L 708 792 L 732 768 L 792 756 M 684 1284 L 708 1296 L 804 1392 L 816 1404 L 816 1476 L 828 1512 Q 840 1548 876 1572 L 996 1668 L 1164 1836 Q 1224 1908 1236 2052 L 1224 2052 L 1224 2124 L 1188 2220 Q 1152 2316 1068 2376 Q 1020 2424 936 2460 L 864 2484 L 768 2484 L 768 2484 L 720 2484 L 660 2472 L 564 2424 L 492 2376 L 348 2232 Q 300 2184 276 2112 L 252 2028 L 240 1944 L 252 1920 Q 252 1920 276 1920 L 384 2016 L 396 2040 L 396 2088 L 408 2148 Q 420 2220 468 2268 Q 528 2316 612 2328 Q 636 2328 636 2340 L 732 2340 Q 888 2304 972 2220 Q 1032 2160 1056 2076 L 1080 1992 L 1080 1896 Q 1068 1824 1020 1776 L 888 1680 L 732 1524 Q 696 1476 684 1428 L 660 1368 L 660 1320 L 672 1296 L 684 1284 "/>
<glyph glyph-name="C" unicode="&#x43;" horiz-adv-x="936" d="M 468 864 L 576 864 L 576 864 L 696 864 L 708 876 L 744 876 L 828 888 L 888 912 Q 972 936 1032 996 L 1224 1176 L 1224 1212 L 1224 1224 Q 1212 1224 1188 1224 L 1044 1104 Q 996 1056 912 1032 L 852 1020 L 780 1020 L 780 1020 L 540 1020 L 468 1044 L 432 1080 L 420 1104 L 396 1164 L 396 1272 L 396 1284 L 408 1368 L 432 1488 Q 468 1584 516 1656 Q 564 1680 624 1704 L 648 1704 L 720 1704 L 792 1680 L 828 1644 L 864 1584 L 864 1560 L 864 1524 L 876 1500 Q 888 1500 912 1500 L 1008 1596 L 1020 1620 L 1020 2040 L 1008 2064 Q 1008 2064 984 2064 L 876 1968 L 864 1944 L 864 1836 L 828 1848 L 780 1860 L 768 1848 L 732 1848 L 696 1848 L 600 1800 L 552 1764 L 420 1632 Q 336 1536 288 1392 L 264 1308 L 252 1236 L 240 1092 L 240 1092 L 252 1044 L 264 984 Q 300 948 336 912 L 384 888 L 432 864 L 468 864 L 468 864 "/>
<glyph glyph-name="D" unicode="&#x44;" horiz-adv-x="1092" d="M 480 864 L 600 876 L 684 900 Q 792 948 864 1032 L 864 900 L 876 876 Q 888 864 912 864 L 1008 972 L 1020 996 L 1020 2448 L 1008 2484 Q 1008 2484 984 2484 L 672 2172 L 660 2148 L 672 2136 Q 672 2124 696 2124 L 864 2292 L 864 1776 L 852 1776 Q 804 1824 732 1836 L 660 1848 L 564 1860 L 516 1848 L 480 1824 L 336 1680 Q 300 1620 264 1536 L 240 1404 L 240 1296 L 240 1284 L 252 1188 L 264 1092 L 312 984 L 360 924 L 420 876 L 480 864 M 552 1020 L 516 1032 Q 456 1092 432 1164 L 408 1248 L 396 1296 L 396 1320 L 396 1332 L 396 1488 L 396 1488 L 396 1548 L 432 1656 L 456 1704 L 564 1704 L 636 1692 Q 720 1668 780 1608 L 864 1512 L 864 1116 Q 816 1068 732 1032 L 648 1020 L 552 1020 "/>
<glyph glyph-name="E" unicode="&#x45;" horiz-adv-x="936" d="M 480 864 L 564 864 L 576 876 L 624 876 L 708 900 L 768 924 L 852 972 L 996 1116 L 1020 1164 L 1020 1212 L 1008 1224 Q 1008 1224 984 1224 L 876 1128 Q 864 1104 864 1080 L 864 1080 Q 792 1044 708 1020 L 648 1020 L 648 1020 L 552 1020 Q 504 1032 480 1068 L 432 1164 L 408 1248 L 396 1320 L 396 1320 L 900 1500 L 912 1500 L 1008 1596 L 1020 1632 L 1020 1632 L 1008 1680 L 996 1728 Q 960 1776 924 1812 L 852 1848 L 768 1860 L 768 1848 L 720 1848 L 660 1836 L 564 1800 L 492 1752 L 348 1608 Q 300 1548 276 1488 L 252 1404 L 240 1296 L 240 1284 L 252 1188 L 264 1092 L 312 984 L 360 924 L 420 876 L 480 864 M 396 1440 L 396 1488 L 408 1548 L 456 1632 Q 504 1668 552 1680 L 636 1704 L 720 1704 L 792 1680 L 804 1668 L 840 1620 L 852 1608 L 852 1596 L 396 1440 "/>
<glyph glyph-name="F" unicode="&#x46;" horiz-adv-x="780" d="M 468 660 L 456 660 L 456 672 L 456 708 Q 504 744 540 816 L 552 864 L 576 948 L 576 1056 L 564 1068 L 564 1128 L 552 1212 L 504 1356 L 408 1632 L 396 1704 L 288 1704 L 252 1716 L 240 1728 L 252 1752 L 348 1860 L 336 1944 L 336 1980 L 336 1980 L 336 2112 L 348 2208 Q 384 2316 456 2376 L 564 2484 L 660 2484 L 780 2460 L 864 2436 L 936 2388 Q 996 2352 1020 2280 Q 1020 2244 1008 2232 L 912 2124 Q 888 2124 876 2136 L 864 2172 L 852 2220 Q 732 2328 516 2340 L 492 2280 L 480 2196 L 480 2076 Q 492 2064 480 2040 L 516 1860 L 528 1860 L 768 1860 L 804 1848 L 804 1836 L 804 1812 L 696 1704 Q 684 1716 672 1704 L 576 1704 L 684 1368 L 708 1248 L 708 1164 L 720 1164 L 720 1032 L 696 936 Q 660 828 600 768 L 492 660 L 468 660 "/>
<glyph glyph-name="G" unicode="&#x47;" horiz-adv-x="1092" d="M 684 444 L 708 456 L 816 564 Q 924 672 996 816 L 1020 948 L 1032 996 L 1032 1008 L 1032 1140 L 1032 1140 L 1032 1260 L 1032 1260 L 1020 1440 L 1020 1452 L 1020 1632 Q 1008 1632 1020 1656 Q 996 1764 924 1812 L 852 1848 L 768 1860 L 768 1848 L 720 1848 L 660 1836 L 564 1800 L 492 1752 L 348 1608 Q 300 1548 276 1488 L 252 1404 L 240 1296 L 240 1284 L 252 1188 L 264 1092 L 312 984 L 360 924 L 408 888 L 444 864 Q 468 876 480 864 L 684 864 L 708 876 L 828 984 L 888 1056 L 888 936 L 888 924 L 888 888 L 864 816 L 852 744 L 816 684 L 792 636 Q 768 684 732 708 Q 660 756 564 780 L 480 792 L 372 804 L 348 792 L 252 708 L 240 672 L 252 660 L 276 660 L 384 648 L 468 636 L 564 600 Q 612 576 636 540 L 660 492 Q 660 468 672 456 L 684 444 M 552 1020 L 516 1032 Q 456 1092 432 1164 L 408 1248 L 396 1296 L 396 1320 L 396 1332 L 396 1452 Q 396 1464 396 1488 Q 420 1572 456 1632 Q 504 1668 552 1680 L 636 1704 L 720 1704 L 792 1680 L 804 1668 L 840 1620 L 864 1560 L 864 1320 L 864 1320 L 864 1272 L 864 1272 L 852 1212 Q 828 1092 768 1020 L 768 1020 L 552 1020 "/>
<glyph glyph-name="H" unicode="&#x48;" horiz-adv-x="936" d="M 264 864 L 288 876 L 384 972 L 396 996 L 396 1644 L 396 1644 Q 468 1680 552 1692 L 612 1704 L 612 1704 L 708 1704 Q 756 1692 780 1656 Q 816 1620 828 1560 L 852 1512 L 864 1428 L 864 1392 L 864 1392 L 864 900 L 876 876 Q 888 864 912 864 L 1008 972 L 1020 996 L 1020 1428 L 1020 1428 L 1008 1536 L 984 1656 L 948 1740 Q 912 1788 876 1824 L 816 1848 L 768 1860 L 756 1848 L 660 1848 L 552 1824 L 456 1776 L 396 1740 L 396 2448 L 384 2484 Q 372 2484 348 2484 L 252 2388 L 240 2364 L 240 900 L 252 876 L 264 864 "/>
<glyph glyph-name="I" unicode="&#x49;" horiz-adv-x="780" d="M 276 864 L 684 864 L 708 876 L 804 972 L 804 996 L 804 1008 L 780 1020 L 600 1020 L 600 1668 Q 600 1680 624 1680 Q 624 1680 648 1680 L 684 1692 L 804 1812 L 804 1836 L 804 1848 Q 792 1860 768 1848 L 744 1836 L 696 1824 L 636 1836 L 480 1884 L 432 1884 Q 420 1872 396 1884 L 360 1860 L 252 1752 L 240 1728 L 252 1716 Q 252 1704 276 1704 L 312 1740 L 360 1740 L 444 1716 L 444 1020 L 444 1020 L 360 1020 L 348 1008 L 252 912 L 240 888 L 252 876 L 276 864 "/>
<glyph glyph-name="J" unicode="&#x4a;" horiz-adv-x="624" d="M 48 444 L 72 456 Q 168 552 276 648 L 480 840 Q 528 900 564 972 L 588 1044 L 600 1116 L 600 1176 L 600 1188 L 600 1824 L 588 1848 Q 588 1860 564 1848 L 252 1548 L 240 1512 L 252 1500 Q 252 1500 276 1500 L 444 1668 L 444 1032 L 432 936 L 396 852 Q 360 792 300 744 Q 168 624 36 492 L 36 468 L 36 456 L 48 444 M 468 1920 L 492 1920 L 588 2016 L 600 2040 L 600 2244 L 588 2268 Q 588 2280 564 2268 L 456 2172 L 444 2160 L 444 1944 L 456 1920 L 468 1920 "/>
<glyph glyph-name="K" unicode="&#x4b;" horiz-adv-x="936" d="M 972 804 L 924 816 L 852 864 L 744 972 L 600 1188 L 528 1260 L 456 1332 L 420 1344 Q 396 1344 396 1344 L 396 996 L 384 972 L 276 864 Q 252 864 252 876 L 240 900 L 240 2352 L 252 2388 L 348 2484 Q 372 2484 384 2484 L 396 2448 L 396 1488 L 444 1548 L 624 1728 L 696 1776 L 792 1824 L 912 1848 L 996 1848 L 1008 1848 L 1020 1836 L 1008 1812 L 912 1704 L 828 1704 L 732 1692 Q 648 1668 588 1608 L 480 1500 L 540 1488 L 624 1428 L 720 1320 L 876 1116 L 936 1044 L 1020 972 L 1056 960 Q 1068 960 1080 948 L 1116 960 L 1140 972 L 1188 1008 Q 1212 1020 1224 1008 L 1224 996 L 1224 972 Q 1164 888 1080 840 L 1032 816 L 972 804 "/>
<glyph glyph-name="L" unicode="&#x4c;" horiz-adv-x="780" d="M 576 756 L 636 768 L 660 792 L 780 900 L 804 960 L 804 996 L 804 1008 Q 792 1020 768 1008 L 660 912 L 648 912 L 612 936 L 600 960 L 600 2448 L 588 2484 Q 588 2484 564 2484 L 252 2172 L 240 2148 L 252 2136 Q 252 2124 276 2124 L 444 2292 L 444 888 L 468 840 L 504 792 L 528 768 L 576 756 "/>
<glyph glyph-name="N" unicode="&#x4e;" horiz-adv-x="1092" d="M 684 444 L 708 456 L 828 576 Q 912 648 972 732 L 984 780 L 1008 876 L 1020 960 L 1020 960 L 1020 1632 L 1020 1632 L 1008 1680 L 996 1728 Q 960 1776 924 1812 L 852 1848 L 768 1860 L 756 1848 L 660 1848 L 552 1824 L 456 1776 L 396 1740 L 396 1824 L 384 1848 Q 372 1860 348 1848 L 252 1752 L 240 1728 L 240 900 L 252 876 Q 252 864 276 864 L 384 972 L 396 996 L 396 1644 L 396 1644 Q 468 1680 552 1692 L 612 1704 L 612 1704 L 720 1704 L 792 1680 L 828 1644 L 840 1620 L 864 1560 L 864 816 L 852 732 L 828 684 L 780 612 L 672 492 L 660 468 L 672 456 L 684 444 "/>
<glyph glyph-name="O" unicode="&#x4f;" horiz-adv-x="936" d="M 672 864 L 720 864 L 780 900 L 924 1044 Q 972 1104 996 1200 L 1020 1320 L 1020 1428 L 1020 1428 L 1008 1536 L 984 1656 L 948 1740 Q 912 1788 864 1824 L 816 1848 L 768 1860 L 756 1848 L 696 1848 L 684 1848 L 612 1836 L 492 1800 L 408 1752 L 264 1608 L 252 1584 L 240 1524 L 240 1104 L 252 1044 L 300 984 L 360 936 L 468 900 L 564 876 L 660 864 L 672 864 M 708 1020 L 696 1020 L 660 1020 L 624 1032 L 540 1056 L 444 1104 Q 408 1128 396 1176 L 396 1644 Q 432 1668 492 1680 L 612 1704 L 708 1704 L 744 1680 Q 804 1632 828 1560 L 852 1476 L 864 1428 L 864 1392 L 864 1392 L 864 1236 L 864 1236 L 864 1200 L 852 1116 L 816 1020 L 804 1020 L 708 1020 "/>
<glyph glyph-name="P" unicode="&#x50;" horiz-adv-x="936" d="M 264 24 L 288 36 L 384 132 L 396 156 L 396 924 L 468 900 L 540 876 L 600 876 L 600 864 L 696 864 L 744 876 L 780 900 L 924 1044 Q 972 1104 996 1200 L 1020 1320 L 1020 1428 L 1020 1428 L 1008 1536 L 984 1656 L 948 1740 Q 912 1788 876 1824 L 816 1848 L 768 1860 L 756 1848 L 660 1848 L 552 1824 L 456 1776 L 396 1740 L 396 1824 L 384 1848 Q 372 1860 348 1848 L 36 1548 L 36 1512 L 36 1500 Q 48 1500 72 1500 L 240 1668 L 240 60 L 252 36 L 264 24 M 708 1020 L 696 1020 L 660 1020 L 624 1032 L 540 1056 L 444 1104 Q 408 1128 396 1176 L 396 1644 Q 432 1668 492 1680 L 612 1704 L 708 1704 L 744 1680 Q 804 1632 828 1560 L 852 1476 L 864 1428 L 864 1392 L 864 1392 L 864 1236 L 864 1236 L 864 1200 L 852 1116 L 816 1020 L 804 1020 L 708 1020 "/>
<glyph glyph-name="Q" unicode="&#x51;" horiz-adv-x="1092" d="M 888 24 L 912 36 L 1008 132 L 1020 156 L 1020 1824 L 1008 1848 Q 1008 1860 984 1848 L 876 1764 Q 816 1812 732 1836 L 660 1848 L 564 1860 L 516 1848 L 480 1824 L 336 1680 Q 300 1620 264 1536 L 240 1404 L 240 1296 L 240 1284 L 240 1224 L 252 1224 L 252 1164 L 276 1068 L 324 960 L 384 900 L 444 864 L 504 864 L 504 864 L 600 876 L 684 900 Q 792 948 864 1032 L 864 60 L 876 36 L 888 24 M 552 1020 L 516 1032 Q 456 1092 432 1164 L 408 1248 L 396 1296 L 396 1320 L 396 1332 L 396 1488 L 396 1488 L 396 1548 L 432 1656 L 456 1704 L 564 1704 L 636 1692 Q 720 1668 780 1608 L 864 1512 L 864 1116 Q 816 1068 732 1032 L 648 1020 L 552 1020 "/>
<glyph glyph-name="R" unicode="&#x52;" horiz-adv-x="936" d="M 264 660 L 288 660 L 384 756 L 396 780 L 396 1392 L 468 1488 L 600 1692 L 648 1704 L 720 1704 L 792 1680 L 828 1644 L 864 1584 L 864 1560 L 864 1524 L 876 1500 Q 888 1500 912 1500 L 1008 1596 L 1020 1632 L 1020 1632 L 1008 1680 L 996 1728 Q 960 1776 924 1812 L 852 1848 L 768 1860 L 768 1848 L 708 1848 L 648 1824 L 624 1800 L 504 1680 L 396 1524 L 396 1824 L 384 1848 Q 372 1860 348 1848 L 252 1752 L 240 1728 L 240 684 L 252 660 L 264 660 "/>
<glyph glyph-name="S" unicode="&#x53;" horiz-adv-x="936" d="M 456 864 L 564 864 L 576 876 L 624 876 L 708 900 L 768 924 L 852 972 L 996 1116 L 1020 1164 L 1020 1212 L 1020 1212 L 1008 1260 L 996 1308 Q 960 1356 924 1392 Q 888 1416 828 1428 L 708 1440 L 588 1452 L 492 1500 Q 444 1512 408 1560 L 396 1596 L 396 1656 L 408 1692 L 444 1704 L 540 1704 L 540 1704 L 624 1692 L 720 1668 L 804 1656 L 852 1668 L 888 1692 L 1008 1812 L 1020 1836 L 1008 1848 Q 1008 1860 984 1848 Q 960 1824 912 1812 L 852 1812 L 672 1848 L 564 1860 L 552 1848 L 528 1848 L 480 1836 L 432 1812 L 288 1668 L 252 1584 L 240 1524 L 252 1464 L 300 1404 L 360 1356 L 444 1320 L 564 1296 L 720 1284 L 792 1260 L 828 1224 Q 876 1176 864 1080 L 816 1056 L 708 1020 L 648 1020 L 648 1020 L 492 1020 L 492 1020 L 456 1020 L 408 1032 L 324 1056 Q 252 1080 204 1140 L 180 1176 Q 180 1200 168 1224 Q 168 1224 144 1224 L 36 1128 Q 24 1104 36 1068 L 48 1032 L 84 984 L 144 936 L 264 900 L 360 876 L 456 864 L 456 864 "/>
<glyph glyph-name="T" unicode="&#x54;" horiz-adv-x="780" d="M 468 444 L 492 456 L 588 552 L 600 576 L 600 1704 L 888 1704 L 912 1704 L 1008 1812 L 1020 1836 L 1008 1848 L 984 1860 L 600 1860 L 600 2448 L 588 2484 Q 588 2484 564 2484 L 456 2388 L 444 2364 L 444 1860 L 312 1848 L 240 1824 L 216 1812 L 72 1668 L 36 1584 L 36 1512 L 36 1500 Q 48 1500 72 1500 L 168 1596 Q 180 1620 180 1656 L 192 1692 L 228 1704 L 444 1704 L 444 480 L 456 456 L 468 444 "/>
<glyph glyph-name="U" unicode="&#x55;" horiz-adv-x="1092" d="M 900 864 L 876 876 L 840 972 L 804 1176 L 492 864 L 432 864 L 396 876 L 336 912 Q 288 948 264 996 L 240 1056 L 240 1104 L 240 1104 L 240 1728 L 252 1752 L 348 1848 Q 372 1860 384 1848 L 396 1812 L 396 1164 L 420 1104 L 432 1080 L 468 1044 L 540 1020 L 564 1020 L 768 1224 L 780 1224 L 792 1224 L 780 1272 L 780 1308 L 780 1308 L 780 1368 L 780 1380 L 780 1476 L 780 1476 L 780 1524 L 792 1596 Q 804 1656 840 1704 L 864 1740 L 984 1848 Q 1008 1860 1008 1848 L 1020 1836 L 1008 1812 Q 972 1764 948 1704 L 936 1644 L 924 1560 L 924 1560 L 924 1416 L 936 1404 L 936 1308 L 972 1164 L 996 1044 L 1008 1044 L 1188 1224 Q 1212 1224 1224 1224 L 1224 1212 L 1224 1176 L 912 876 L 900 864 "/>
<glyph glyph-name="V" unicode="&#x56;" horiz-adv-x="936" d="M 480 864 L 456 876 L 444 888 L 252 1680 L 72 1500 Q 48 1500 36 1500 L 36 1512 L 36 1548 L 348 1848 L 360 1860 L 384 1848 L 396 1824 L 588 1056 Q 576 1044 588 1044 Q 672 1128 744 1224 L 816 1344 L 852 1464 L 864 1536 L 864 1560 L 864 1560 L 864 1608 L 864 1620 L 864 1776 L 840 1836 L 828 1860 Q 804 1884 756 1908 L 720 1920 L 696 1920 L 672 1920 L 660 1932 L 672 1968 L 768 2064 Q 816 2064 840 2064 L 924 2016 Q 972 1980 1008 1908 L 1020 1872 L 1020 1824 L 1020 1824 L 1020 1812 L 1020 1704 L 1008 1704 L 1008 1620 L 984 1512 L 948 1416 Q 912 1332 864 1260 Q 780 1152 684 1056 L 492 876 L 480 864 "/>
<glyph glyph-name="W" unicode="&#x57;" horiz-adv-x="1092" d="M 480 864 L 492 876 L 588 972 L 600 984 L 720 1476 L 864 888 L 876 876 L 900 864 L 912 876 L 1008 972 L 1020 984 L 1224 1812 L 1236 1848 L 1224 1848 L 1224 1956 L 1188 2076 L 1152 2160 Q 1128 2208 1080 2244 L 1020 2268 L 984 2268 L 876 2172 L 876 2148 L 876 2136 Q 888 2124 924 2124 L 948 2112 L 984 2076 Q 1080 1956 1080 1728 L 960 1248 L 816 1824 L 804 1848 L 780 1860 L 768 1848 L 672 1752 L 660 1740 L 540 1248 L 396 1824 L 384 1848 L 360 1860 L 348 1848 L 36 1548 L 36 1512 L 36 1500 Q 48 1500 72 1500 L 252 1680 L 444 888 L 456 876 L 480 864 "/>
<glyph glyph-name="X" unicode="&#x58;" horiz-adv-x="1248" d="M 264 660 L 288 660 L 384 768 L 696 1236 L 780 1080 L 876 972 Q 924 912 996 888 L 1032 876 L 1116 864 L 1128 864 L 1152 864 L 1200 888 L 1248 912 L 1392 1056 L 1428 1104 L 1440 1152 Q 1428 1176 1440 1188 L 1428 1224 Q 1428 1224 1404 1224 L 1296 1128 Q 1284 1104 1284 1068 L 1272 1032 L 1236 1020 L 1164 1020 Q 1044 1044 972 1128 Q 876 1248 816 1404 L 1236 2040 L 1212 2064 L 1200 2064 L 1188 2064 L 1080 1956 L 768 1488 L 708 1608 L 600 1752 L 504 1824 L 432 1848 L 348 1860 L 348 1848 L 312 1848 L 276 1836 L 216 1812 L 72 1668 L 48 1620 L 36 1572 Q 36 1548 24 1536 L 36 1500 Q 48 1500 72 1500 L 168 1596 Q 180 1620 180 1656 L 192 1692 L 228 1704 L 312 1704 Q 432 1680 492 1584 Q 588 1464 660 1308 L 252 708 L 240 684 L 252 660 L 264 660 "/>
<glyph glyph-name="Y" unicode="&#x59;" horiz-adv-x="1248" d="M 888 24 L 912 36 L 1224 336 L 1224 372 L 1224 372 Q 1212 384 1188 384 L 984 180 L 948 180 Q 792 204 708 300 Q 648 360 612 456 L 600 516 L 600 636 L 624 744 Q 636 792 672 828 L 1032 1200 Q 1116 1272 1176 1368 L 1200 1404 L 1224 1476 L 1224 1536 L 1224 1536 L 1236 1632 L 1224 1644 L 1224 1740 L 1188 1860 L 1152 1944 Q 1128 2004 1080 2040 L 1020 2064 L 984 2064 L 876 1968 L 876 1932 L 876 1920 Q 888 1908 924 1920 L 948 1908 L 984 1872 Q 1044 1800 1068 1692 L 1080 1644 L 1080 1608 L 1080 1608 L 1080 1452 L 1068 1368 L 1032 1296 L 960 1200 L 768 1020 Q 732 1032 720 1056 L 684 1116 L 648 1224 L 624 1320 L 612 1404 L 612 1404 L 612 1440 L 600 1440 L 600 1644 Q 588 1692 552 1728 L 528 1740 L 468 1752 L 408 1740 L 384 1728 L 264 1608 L 240 1560 L 240 1512 L 252 1500 Q 252 1500 276 1500 L 384 1596 L 396 1596 L 432 1572 L 444 1548 L 456 1332 L 468 1332 L 480 1224 L 504 1116 L 528 1032 L 552 972 Q 576 924 612 900 L 636 888 L 636 876 L 528 768 L 480 684 L 456 600 L 444 468 L 456 456 L 456 384 L 480 300 Q 528 204 612 132 Q 660 84 732 60 L 816 36 L 888 24 L 888 24 "/>
<glyph glyph-name="b" unicode="&#x62;" horiz-adv-x="1248" d="M 492 24 L 492 24 L 576 36 L 660 48 L 720 72 L 792 108 L 888 168 L 1056 324 Q 1128 396 1164 492 L 1200 600 L 1224 708 L 1224 768 L 1236 768 L 1236 1824 L 1224 1848 Q 1212 1860 1188 1848 L 1092 1752 L 1080 1728 L 1080 1188 L 600 1020 L 600 1824 L 588 1848 Q 588 1860 564 1848 L 432 1740 L 360 1680 L 276 1656 L 228 1656 L 228 1644 Q 168 1656 144 1644 L 36 1548 L 36 1512 L 36 1500 L 84 1500 L 84 1500 L 180 1500 L 264 1524 Q 372 1584 444 1668 L 444 900 L 456 876 Q 468 864 492 864 L 1080 1068 L 1080 624 L 1068 528 L 1032 456 Q 996 372 948 300 Q 864 240 768 204 L 696 180 L 564 168 L 456 72 L 456 48 L 456 36 L 492 24 "/>
<glyph glyph-name="c" unicode="&#x63;" horiz-adv-x="1248" d="M 468 864 L 492 876 L 588 972 L 600 996 L 600 1536 L 1080 1692 L 1080 900 L 1092 876 Q 1092 864 1116 864 L 1224 972 L 1236 996 L 1236 1824 L 1224 1848 L 1200 1860 L 600 1656 L 600 1824 L 588 1848 Q 588 1860 564 1848 L 432 1740 L 360 1680 L 276 1656 L 228 1656 L 228 1644 Q 168 1656 144 1644 L 36 1548 L 36 1512 L 36 1500 L 84 1500 L 84 1500 L 180 1500 L 264 1524 Q 372 1584 444 1668 L 444 900 L 456 876 L 468 864 "/>
<glyph glyph-name="quotedbl" unicode="&#x22;" horiz-adv-x="624" d="M 264 1920 L 288 1920 L 384 2016 L 396 2040 L 396 2244 L 384 2268 Q 372 2280 348 2268 L 252 2172 L 240 2160 L 240 1944 L 252 1920 L 264 1920 M 468 1920 L 492 1920 L 588 2016 L 600 2040 L 600 2244 L 588 2268 Q 588 2280 564 2268 L 456 2172 L 444 2160 L 444 1944 L 456 1920 L 468 1920 "/>
<glyph glyph-name="parenleft" unicode="&#x28;" horiz-adv-x="624" d="M 468 864 L 492 876 L 588 972 L 600 996 L 480 1140 Q 432 1200 408 1272 L 396 1332 L 396 1404 L 396 1416 L 396 1824 L 396 1824 L 396 1872 L 396 1872 L 408 1920 L 432 2004 Q 492 2136 588 2232 L 600 2256 L 588 2268 Q 588 2280 564 2268 L 432 2148 Q 372 2088 324 2004 Q 288 1956 264 1884 L 252 1788 L 252 1752 L 240 1740 L 240 1428 L 240 1416 L 240 1308 L 252 1296 L 252 1260 L 264 1164 L 276 1116 Q 312 1044 348 996 L 456 876 L 468 864 "/>
<glyph glyph-name="parenright" unicode="&#x29;" horiz-adv-x="624" d="M 264 864 L 288 876 L 408 984 Q 468 1056 516 1140 Q 552 1188 576 1248 L 588 1296 L 588 1356 L 588 1356 L 588 1392 L 600 1392 L 600 1716 L 600 1716 L 588 1884 L 588 1884 L 588 1932 L 564 2004 L 552 2052 L 492 2136 L 384 2268 L 348 2268 L 252 2172 L 240 2148 L 360 2004 Q 408 1944 432 1872 L 444 1812 L 444 1728 L 444 1728 L 444 1320 L 444 1320 L 444 1272 L 444 1272 L 432 1212 L 408 1128 Q 348 1008 252 912 L 240 888 L 252 876 L 264 864 "/>
<glyph glyph-name="period" unicode="&#x2e;" horiz-adv-x="624" d="M 300 816 L 312 816 L 432 936 L 444 960 L 432 972 L 348 1068 L 324 1068 L 312 1068 L 192 948 L 180 924 L 192 900 L 276 816 L 300 816 "/>
<glyph glyph-name="exclam" unicode="&#x21;" horiz-adv-x="780" d="M 492 816 L 528 816 L 648 936 L 648 972 L 564 1068 L 528 1068 L 408 948 L 396 912 L 492 816 L 492 816 M 468 1284 L 492 1296 L 588 1392 L 600 1404 L 600 2244 L 588 2268 Q 588 2280 564 2268 L 456 2172 L 444 2148 L 444 1320 L 456 1296 L 468 1284 "/>
<glyph glyph-name="slash" unicode="&#x2f;" horiz-adv-x="780" d="M 264 660 L 288 660 L 384 756 L 396 792 L 816 2244 L 804 2268 L 780 2280 L 768 2268 L 672 2172 L 660 2148 L 240 684 L 252 660 L 264 660 "/>
<glyph glyph-name="M" unicode="&#x4d;" horiz-adv-x="1248" d="M 264 864 L 252 876 L 240 900 L 240 1728 L 252 1752 L 348 1848 Q 372 1860 384 1848 Q 396 1824 396 1776 Q 444 1836 528 1848 L 612 1848 Q 672 1836 720 1800 L 768 1752 L 768 1740 L 780 1740 L 864 1824 Q 900 1848 948 1848 L 1032 1848 Q 1092 1836 1140 1800 Q 1176 1776 1200 1728 L 1224 1656 L 1224 1620 L 1236 1620 L 1236 996 L 1224 972 L 1116 864 Q 1092 864 1092 876 L 1080 900 L 1080 1560 L 1056 1620 L 1032 1644 L 996 1680 L 936 1704 L 864 1704 L 828 1692 L 816 1656 L 816 1212 L 804 1176 L 696 1080 Q 672 1080 672 1080 L 660 1116 L 660 1560 L 636 1620 L 612 1644 L 576 1680 L 516 1704 L 444 1704 L 408 1692 L 396 1656 L 396 996 L 384 972 L 288 876 L 264 864 "/>
<glyph glyph-name="bracketright" unicode="&#x5d;" horiz-adv-x="624" d="M 276 864 L 468 864 L 492 864 L 588 972 L 600 996 L 600 2244 L 588 2268 L 564 2280 L 372 2280 L 348 2268 L 252 2172 L 240 2148 L 252 2136 L 276 2124 L 444 2124 L 444 1020 L 444 1020 L 372 1020 L 348 1008 L 252 912 L 240 888 L 252 876 L 276 864 "/>
<glyph glyph-name="bracketleft" unicode="&#x5b;" horiz-adv-x="624" d="M 276 864 L 468 864 L 492 864 L 588 972 L 600 996 L 588 1008 L 564 1020 L 396 1020 L 396 2124 L 396 2124 L 468 2124 L 492 2136 L 588 2232 L 600 2256 L 588 2268 L 564 2280 L 372 2280 L 348 2268 L 252 2172 L 240 2148 L 240 900 L 252 876 L 276 864 "/>
<glyph glyph-name="percent" unicode="&#x25;" horiz-adv-x="1572" vert-adv-y="1872" d="M707 1087Q707 1003 681 937T612 825T510 755T389 731Q321 731 264 755T163 824T96 936T72 1087Q72 1173 96 1240T163 1353T263 1423T389 1447Q456 1447 514 1423T615 1353T682 1240T707 1087ZM568 1087Q568 1153 554 1199T516 1274T459 1317T389 1330Q352 1330 320 1317T263 1275T226 1199T212 1087Q212 1022 225 977T263 903T319 862T389 849Q426 849 458 861T515 902T554 976T568 1087ZM1208 1397Q1221 1414 1235 1423T1274 1433H1402L355 29Q345 16 331 8T298 0H166L1208 1397ZM1499 338Q1499 254 1473 188T1404 77T1303 7T1182 -17Q1114 -17 1057 7T956 76T889 188T865 338Q865 424 889 491T956 605T1056 675T1182 699Q1249 699 1307 675T1408 605T1475 492T1499 338ZM1361 338Q1361 404 1347 450T1309 526T1252 568T1182 581Q1145 581 1113 568T1056 526T1019 451T1005 338Q1005 273 1018 228T1056 155T1112 114T1182 101Q1219 101 1251 113T1308 154T1347 228T1361 338Z"/>
<glyph glyph-name="ampersand" unicode="&#x26;" horiz-adv-x="1406" vert-adv-y="1872" d="M660 1449Q739 1449 804 1424T916 1356T991 1259T1023 1143L912 1121Q907 1120 903 1120Q890 1120 879 1127T862 1152Q855 1178 840 1206T800 1257T741 1295T660 1310Q610 1310 570 1294T502 1250T458 1183T442 1099Q442 1064 450 1032T476 968T520 901T585 828L997 409Q1035 476 1057 549T1088 697Q1090 716 1100 727T1128 738H1238Q1236 623 1201 512T1100 304L1400 0H1228Q1199 0 1181 7T1141 36L997 181Q903 90 781 37T511 -16Q431 -16 354 11T217 89T119 215T82 382Q82 452 105 514T170 630T269 725T394 797Q333 874 304 947T275 1098Q275 1171 301 1235T378 1346T499 1421T660 1449ZM263 396Q263 331 287 282T350 198T439 147T541 129Q653 129 742 170T899 279L476 706Q370 649 317 570T263 396Z"/>
<glyph glyph-name="asterisk" unicode="&#x2a;" horiz-adv-x="800" vert-adv-y="1872" d="M354 863V1060Q354 1079 356 1096T366 1129Q346 1104 313 1084L141 985L97 1060L269 1160Q305 1181 342 1184Q322 1186 305 1191T269 1209L96 1310L140 1385L313 1285Q348 1265 370 1233Q361 1251 358 1269T354 1308V1506H442V1309Q442 1268 428 1237Q439 1252 452 1263T483 1285L655 1384L699 1309L527 1209Q510 1198 494 1192T459 1184Q477 1182 493 1177T527 1160L700 1059L656 984L483 1084Q465 1095 451 1106T426 1133Q442 1100 442 1061V863H354Z"/>
<glyph glyph-name="one" unicode="&#x31;" horiz-adv-x="1160" vert-adv-y="1872" d="M287 136H595V1113Q595 1157 598 1202L342 983Q332 975 322 972T303 968Q288 968 276 974T258 990L202 1067L628 1436H773V136H1055V0H287V136Z"/>
<glyph glyph-name="two" unicode="&#x32;" horiz-adv-x="1160" vert-adv-y="1872" d="M601 1449Q692 1449 771 1422T907 1344T998 1218T1031 1050Q1031 970 1007 902T942 772T848 651T734 531L357 145Q397 156 438 162T517 169H997Q1026 169 1043 152T1060 108V0H104V61Q104 80 111 100T136 137L595 598Q652 656 699 709T779 817T831 926T849 1045Q849 1108 829 1155T774 1234T692 1280T591 1296Q537 1296 491 1280T410 1236T350 1168T315 1082Q307 1053 291 1040T249 1027Q244 1027 239 1027T226 1029L133 1045Q147 1143 187 1218T288 1345T429 1422T601 1449Z"/>
<glyph glyph-name="colon" unicode="&#x3a;" horiz-adv-x="504" vert-adv-y="1872" d="M128 110Q128 136 137 159T163 199T203 226T252 236Q278 236 301 226T341 199T367 159T377 110Q377 83 368 61T341 21T301 -5T252 -15Q226 -15 203 -6T164 21T138 60T128 110ZM128 860Q128 886 137 909T163 949T203 976T252 986Q278 986 301 976T341 949T367 909T377 860Q377 833 368 811T341 771T301 745T252 735Q226 735 203 744T164 771T138 810T128 860Z"/>
<glyph glyph-name="less" unicode="&#x3c;" horiz-adv-x="1160" vert-adv-y="1872" d="M148 710L922 1111V984Q922 967 914 955T886 932L437 704Q417 693 395 686T347 672Q372 667 394 659T437 641L886 414Q906 404 914 391T922 362V234L148 636V710Z"/>
<glyph glyph-name="equal" unicode="&#x3d;" horiz-adv-x="1160" vert-adv-y="1872" d="M150 574H1009V439H150V574ZM150 909H1009V774H150V909Z"/>
<glyph glyph-name="greater" unicode="&#x3e;" horiz-adv-x="1160" vert-adv-y="1872" d="M238 234V362Q238 378 246 391T274 414L723 641Q743 651 764 659T811 672Q786 678 765 685T723 704L274 932Q254 942 246 954T238 984V1111L1011 710V636L238 234Z"/>
<glyph glyph-name="at" unicode="&#x40;" horiz-adv-x="1644" vert-adv-y="1872" d="M1167 186Q1089 186 1040 223T978 339Q920 258 852 223T706 188Q646 188 602 208T529 265T485 352T470 460Q470 545 502 631T599 787T758 901T979 945Q1046 945 1096 935T1192 904L1099 543Q1080 468 1080 419Q1080 383 1089 360T1113 323T1149 304T1193 299Q1242 299 1286 327T1363 406T1416 528T1436 687Q1436 825 1392 929T1270 1102T1087 1206T859 1241Q725 1241 608 1190T404 1049T267 836T217 568Q217 398 270 270T416 54T633 -77T901 -121Q1053 -121 1169 -88T1371 -4Q1386 5 1398 5Q1419 5 1429 -19L1454 -85Q1347 -157 1211 -198T901 -239Q728 -239 579 -184T321 -26T149 228T86 568Q86 677 113 778T191 966T311 1126T467 1250T652 1330T859 1359Q951 1359 1039 1339T1205 1280T1350 1184T1463 1052T1537 886T1564 687Q1564 579 1534 488T1450 329T1324 224T1167 186ZM741 306Q772 306 803 316T864 351T918 419T960 527L1036 822Q997 831 951 831Q876 831 814 800T706 717T636 600T610 465Q610 393 643 350T741 306Z"/>
<glyph glyph-name="backslash" unicode="&#x5c;" horiz-adv-x="750" vert-adv-y="1872" d="M-20 1473H56Q89 1473 113 1456T150 1407L751 -90H676Q647 -90 619 -73T578 -21L-20 1473Z"/>
<glyph glyph-name="asciicircum" unicode="&#x5e;" horiz-adv-x="1160" vert-adv-y="1872" d="M516 1433H631L989 787H860Q843 787 831 797T811 821L615 1173Q602 1196 593 1217T576 1260Q562 1216 539 1173L345 821Q337 807 326 797T294 787H158L516 1433Z"/>
<glyph glyph-name="underscore" unicode="&#x5f;" horiz-adv-x="788" vert-adv-y="1872" d="M788 -165V-285H0V-165H788Z"/>
<glyph glyph-name="grave" unicode="&#x60;" horiz-adv-x="614" vert-adv-y="1872" d="M207 1449Q240 1449 256 1439T286 1405L435 1163H333Q312 1163 299 1169T272 1191L38 1449H207Z"/>
<glyph glyph-name="e" unicode="&#x65;" horiz-adv-x="1048" vert-adv-y="1872" d="M547 1029Q638 1029 715 999T848 911T935 769T967 576Q967 534 958 520T924 506H250Q252 410 276 339T342 221T442 150T572 126Q639 126 687 141T771 175T829 208T870 224Q892 224 904 207L954 142Q921 102 875 73T777 24T668 -4T557 -14Q452 -14 364 21T211 125T110 295T74 527Q74 633 106 725T200 884T349 990T547 1029ZM551 898Q422 898 348 824T256 617H807Q807 679 790 730T740 819T660 877T551 898Z"/>
<glyph glyph-name="o" unicode="&#x6f;" horiz-adv-x="1112" vert-adv-y="1872" d="M556 1029Q667 1029 756 992T908 887T1004 723T1038 507Q1038 387 1005 291T909 127T757 23T556 -14Q445 -14 356 22T203 127T106 291T72 507Q72 626 106 722T203 887T355 992T556 1029ZM556 125Q706 125 780 225T854 506Q854 687 780 788T556 889Q480 889 424 863T331 788T275 668T256 506Q256 416 274 345T330 226T424 151T556 125Z"/>
<glyph glyph-name="x" unicode="&#x78;" horiz-adv-x="1008" vert-adv-y="1872" d="M383 519L42 1013H213Q235 1013 245 1006T263 986L511 606Q520 634 537 662L755 982Q765 996 775 1004T800 1013H964L623 529L978 0H807Q785 0 773 11T752 37L497 434Q490 405 476 382L240 37Q230 23 219 12T187 0H28L383 519Z"/>
<glyph glyph-name="braceleft" unicode="&#x7b;" horiz-adv-x="600" vert-adv-y="1872" d="M181 425Q181 488 146 528T44 569V676Q111 676 146 716T181 820Q181 870 173 919T156 1017T138 1116T130 1218Q130 1287 150 1345T212 1445T315 1510T459 1533H512V1454Q512 1434 498 1425T472 1416H452Q375 1416 331 1366T286 1229Q286 1173 293 1121T309 1020T325 921T332 822Q332 784 321 752T290 694T242 650T181 622Q214 613 241 595T289 550T321 492T332 423Q332 373 325 324T309 226T293 124T286 16Q286 -71 330 -121T452 -171H472Q484 -171 498 -180T512 -209V-289H459Q377 -289 316 -266T213 -200T151 -100T130 27Q130 79 138 128T155 227T173 326T181 425Z"/>
<glyph glyph-name="braceright" unicode="&#x7d;" horiz-adv-x="600" vert-adv-y="1872" d="M419 425Q419 375 427 326T444 228T462 129T470 27Q470 -42 449 -100T387 -200T285 -265T141 -289H88V-209Q88 -189 102 -180T128 -171H148Q225 -171 269 -121T314 16Q314 72 307 124T291 225T275 324T268 423Q268 460 279 492T310 550T358 594T419 622Q386 631 359 649T311 693T279 751T268 822Q268 872 275 921T291 1019T307 1121T314 1229Q314 1315 270 1365T148 1416H128Q116 1416 102 1425T88 1454V1533H141Q223 1533 284 1510T387 1445T449 1345T470 1218Q470 1166 462 1116T445 1017T427 919T419 820Q419 756 454 716T556 676V569Q489 569 454 529T419 425Z"/>
<glyph glyph-name="asciitilde" unicode="&#x7e;" horiz-adv-x="1160" vert-adv-y="1872" d="M759 613Q824 613 860 655T898 768H1042Q1042 701 1024 645T971 549T885 487T770 465Q718 465 667 481T569 516T478 552T399 569Q334 569 298 527T260 414H116Q116 481 134 537T187 633T272 695T388 718Q440 718 491 702T589 666T680 630T759 613Z"/>
<glyph glyph-name="exclamdown" unicode="&#xa1;" horiz-adv-x="686" vert-adv-y="1872" d="M262 -343V198Q262 243 263 285T268 371T275 461T286 559H407Q413 507 417 461T425 372T429 286T431 198V-343H262ZM218 904Q218 931 227 953T254 993T293 1019T343 1029Q369 1029 391 1020T431 993T458 954T468 904Q468 878 458 855T431 815T392 788T343 778Q316 778 294 788T254 815T228 855T218 904Z"/>
<glyph glyph-name="cent" unicode="&#xa2;" horiz-adv-x="1160" vert-adv-y="1872" d="M561 -11Q469 -1 392 38T258 144T170 301T138 506Q138 617 171 710T267 873T422 982T633 1026L645 1205Q647 1225 660 1239T695 1254H761L745 1021Q827 1009 893 978T1013 897L967 835Q959 824 952 819T930 813Q918 813 902 821T863 842T809 866T735 885L683 123Q746 127 788 142T860 175T909 206T944 220Q955 220 964 216T978 204L1026 141Q966 69 874 32T674 -12L662 -187Q660 -206 647 -220T612 -235H546L561 -11ZM315 506Q315 344 382 248T571 129L623 889Q547 883 490 855T393 777T335 659T315 506Z"/>
<glyph glyph-name="sterling" unicode="&#xa3;" horiz-adv-x="1160" vert-adv-y="1872" d="M52 672Q52 698 68 716T113 734H247V995Q247 1089 274 1171T356 1315T493 1412T685 1448Q763 1448 823 1429T931 1375T1012 1296T1071 1199L999 1153Q989 1147 979 1145T958 1142Q944 1142 932 1147T908 1167Q888 1192 868 1215T822 1256T763 1284T685 1295Q622 1295 574 1274T494 1214T446 1120T430 997V734H871V662Q871 644 856 629T819 614H430V371Q430 296 402 242T323 142Q352 147 380 150T439 154H1115V78Q1115 64 1110 51T1094 26T1070 7T1038 0H74V115Q108 125 139 142T194 184T232 244T247 325V614H52V672Z"/>
<glyph glyph-name="currency" unicode="&#xa4;" horiz-adv-x="1160" vert-adv-y="1872" d="M223 672Q223 729 239 779T285 874L132 1027L223 1117L374 965Q418 996 470 1013T580 1030Q637 1030 688 1014T782 967L935 1120L1024 1029L873 877Q904 833 921 782T938 672Q938 615 922 564T876 470L1028 319L937 227L785 379Q741 349 689 332T580 315Q523 315 473 331T378 377L225 224L136 315L287 467Q257 511 240 562T223 672ZM355 672Q355 626 372 586T421 515T492 466T580 448Q627 448 668 466T740 514T789 585T807 672Q807 719 789 760T741 832T669 880T580 898Q533 898 493 881T421 832T373 760T355 672Z"/>
<glyph glyph-name="yen" unicode="&#xa5;" horiz-adv-x="1160" vert-adv-y="1872" d="M146 625H452L44 1433H193Q219 1433 234 1421T260 1388L536 822Q550 787 560 758T577 700Q584 729 593 758T616 822L891 1388Q899 1405 915 1419T957 1433H1107L698 625H1005V523H665V418H1005V315H665V0H486V315H146V418H486V523H146V625Z"/>
<glyph glyph-name="section" unicode="&#xa7;" horiz-adv-x="1006" vert-adv-y="1872" d="M817 1265Q805 1243 780 1243Q765 1243 746 1254T700 1278T634 1303T544 1315Q496 1315 458 1303T393 1269T352 1220T338 1161Q338 1123 362 1095T426 1043T517 998T620 953T724 903T814 840T878 758T903 651Q903 570 864 507T741 405Q790 368 821 319T852 201Q852 131 827 72T754 -31T634 -100T470 -125Q364 -125 278 -91T132 -2L173 66Q181 79 192 86T221 93Q239 93 259 79T308 48T379 16T485 2Q535 2 574 14T641 49T682 103T696 172Q696 217 671 250T605 308T512 355T405 398T298 445T205 506T139 587T114 698Q114 776 157 838T293 936Q243 974 212 1026T180 1154Q180 1212 204 1265T274 1359T387 1423T540 1447Q640 1447 719 1416T857 1330L817 1265ZM272 726Q272 675 307 640T396 576T517 521T645 463Q699 489 723 526T747 611Q747 647 732 675T691 726T630 768T556 804T474 839T392 877Q326 847 299 811T272 726Z"/>
<glyph glyph-name="dieresis" unicode="&#xa8;" horiz-adv-x="614" vert-adv-y="1872" d="M239 1289Q239 1266 230 1246T205 1211T169 1187T125 1178Q103 1178 83 1187T48 1211T23 1246T14 1289Q14 1312 23 1333T47 1369T83 1394T125 1403Q148 1403 168 1394T205 1370T230 1333T239 1289ZM598 1289Q598 1266 589 1246T565 1211T529 1187T485 1178Q462 1178 442 1187T406 1211T382 1246T373 1289Q373 1312 382 1333T406 1369T441 1394T485 1403Q508 1403 528 1394T564 1370T589 1333T598 1289Z"/>
<glyph glyph-name="copyright" unicode="&#xa9;" horiz-adv-x="1596" vert-adv-y="1872" d="M1030 463Q1038 468 1043 471T1055 475Q1066 475 1070 472T1080 463L1141 399Q1084 333 1001 297T802 260Q704 260 624 294T486 389T397 534T365 718Q365 819 399 903T495 1048T639 1142T821 1176Q929 1176 1005 1142T1138 1053L1092 988Q1087 982 1079 976T1059 970Q1045 970 1030 981T989 1005T926 1030T829 1042Q759 1042 703 1020T607 955T546 853T524 718Q524 641 545 581T605 479T696 417T811 395Q859 395 892 401T949 417T991 439T1030 463ZM68 716Q68 817 94 910T167 1085T282 1233T430 1348T604 1422T798 1448Q899 1448 992 1422T1167 1348T1315 1234T1429 1086T1503 911T1529 716Q1529 616 1503 523T1430 348T1315 201T1167 86T993 12T798 -14Q697 -14 604 12T430 86T282 200T168 348T94 522T68 716ZM168 716Q168 627 190 545T253 392T351 262T478 163T629 99T798 76Q930 76 1045 126T1246 262T1381 465T1431 716Q1431 805 1409 888T1345 1042T1247 1173T1119 1273T968 1338T798 1361Q666 1361 551 1311T351 1173T217 968T168 716Z"/>
<glyph glyph-name="ordfeminine" unicode="&#xaa;" horiz-adv-x="684" vert-adv-y="1872" d="M596 840H536Q518 840 509 845T492 869L480 918Q456 897 433 881T385 854T332 837T270 831Q232 831 200 841T143 871T106 922T92 993Q92 1027 111 1060T174 1120T290 1164T470 1184V1221Q470 1284 441 1314T355 1344Q317 1344 292 1335T249 1316T216 1297T185 1288Q171 1288 161 1295T146 1313L124 1355Q176 1404 236 1427T370 1450Q424 1450 466 1433T537 1386T581 1314T596 1221V840ZM309 923Q360 923 397 942T470 996V1101Q400 1099 352 1091T273 1069T230 1038T217 999Q217 957 243 940T309 923Z"/>
<glyph glyph-name="guillemotleft" unicode="&#xab;" horiz-adv-x="926" vert-adv-y="1872" d="M138 518V541L387 930L445 902Q459 895 466 884T473 860Q473 843 463 827L304 566Q290 542 276 529Q291 515 304 493L463 232Q468 224 470 215T473 198Q473 170 445 157L387 129L138 518ZM434 518V541L683 930L741 902Q755 895 762 884T769 860Q769 843 759 827L600 566Q586 542 572 529Q587 515 600 493L759 232Q764 224 766 215T769 198Q769 170 741 157L683 129L434 518Z"/>
<glyph glyph-name="uni00AD" unicode="&#xad;" horiz-adv-x="694" vert-adv-y="1872" d="M100 675H594V524H100V675Z"/>
<glyph glyph-name="registered" unicode="&#xae;" horiz-adv-x="1596" vert-adv-y="1872" d="M68 716Q68 817 94 910T167 1085T282 1233T430 1348T604 1422T798 1448Q899 1448 992 1422T1167 1348T1315 1234T1429 1086T1503 911T1529 716Q1529 616 1503 523T1430 348T1315 201T1167 86T993 12T798 -14Q697 -14 604 12T430 86T282 200T168 348T94 522T68 716ZM168 716Q168 627 190 545T253 392T351 262T478 163T629 99T798 76Q930 76 1045 126T1246 262T1381 465T1431 716Q1431 805 1409 888T1345 1042T1247 1173T1119 1273T968 1338T798 1361Q666 1361 551 1311T351 1173T217 968T168 716ZM654 626V272H498V1164H786Q958 1164 1041 1102T1124 917Q1124 823 1071 757T911 666Q928 656 940 641T964 606L1192 272H1044Q1011 272 995 297L794 599Q785 612 773 619T734 626H654ZM654 740H770Q825 740 863 750T925 781T959 830T970 897Q970 934 961 962T930 1008T873 1035T786 1044H654V740Z"/>
<glyph glyph-name="overscore" unicode="&#xaf;" horiz-adv-x="614" vert-adv-y="1872" d="M20 1348H594V1231H20V1348Z"/>
<glyph glyph-name="degree" unicode="&#xb0;" horiz-adv-x="794" vert-adv-y="1872" d="M70 1128Q70 1195 95 1254T164 1356T267 1425T396 1450Q465 1450 524 1425T628 1357T697 1254T722 1128Q722 1062 697 1004T628 902T525 833T396 807Q327 807 268 832T164 901T95 1003T70 1128ZM197 1127Q197 1085 212 1049T254 985T317 943T396 927Q438 927 474 942T537 985T579 1048T594 1127Q594 1169 579 1206T537 1270T474 1313T396 1329Q354 1329 318 1314T254 1271T212 1206T197 1127Z"/>
<glyph glyph-name="plusminus" unicode="&#xb1;" horiz-adv-x="1160" vert-adv-y="1872" d="M651 1202V826H1058V690H651V322H505V690H100V826H505V1202H651ZM100 215H1058V80H100V215Z"/>
<glyph glyph-name="twosuperior" unicode="&#xb2;" horiz-adv-x="664" vert-adv-y="1872" d="M346 1637Q398 1637 440 1622T513 1580T559 1515T576 1429Q576 1389 564 1355T530 1289T482 1229T425 1170L263 1005Q286 1011 309 1015T354 1019H549Q570 1019 581 1008T593 977V900H82V943Q82 956 87 970T104 996L325 1215Q350 1240 372 1266T410 1318T435 1371T445 1425Q445 1476 415 1503T340 1531Q294 1531 266 1507T223 1441Q215 1427 206 1419T179 1411Q175 1411 171 1411T161 1413L90 1425Q105 1531 174 1584T346 1637Z"/>
<glyph glyph-name="threesuperior" unicode="&#xb3;" horiz-adv-x="664" vert-adv-y="1872" d="M354 1637Q405 1637 446 1623T516 1583T562 1523T578 1449Q578 1321 459 1276Q525 1257 559 1218T594 1117Q594 1062 573 1020T518 950T438 907T344 892Q287 892 245 904T173 941T121 1002T84 1085L139 1109Q154 1115 168 1115Q197 1115 208 1092Q214 1079 223 1063T247 1033T283 1010T337 1000Q368 1000 391 1010T431 1035T455 1071T463 1112Q463 1142 455 1163T427 1199T375 1220T295 1227V1314Q382 1315 417 1345T453 1427Q453 1477 424 1503T347 1529Q299 1529 271 1506T230 1442Q222 1426 214 1419T190 1411Q186 1411 182 1411T172 1413L105 1425Q112 1478 134 1517T188 1583T263 1623T354 1637Z"/>
<glyph glyph-name="acute" unicode="&#xb4;" horiz-adv-x="614" vert-adv-y="1872" d="M597 1449L364 1191Q350 1176 337 1170T302 1163H196L344 1405Q358 1428 374 1438T423 1449H597Z"/>
<glyph glyph-name="mu" unicode="&#xb5;" horiz-adv-x="1112" vert-adv-y="1872" d="M300 1013V355Q300 246 354 186T513 126Q591 126 660 163T787 266V1013H965V0H859Q821 0 811 37L797 146Q730 74 660 40T502 6Q428 6 372 31T277 103Q284 61 287 18T290 -64V-343H201Q163 -343 143 -323T122 -267V1013H300Z"/>
<glyph glyph-name="paragraph" unicode="&#xb6;" horiz-adv-x="1338" vert-adv-y="1872" d="M1302 1433V1280H1083V-201H926V1280H649V-201H492V660Q388 660 305 690T164 773T74 897T42 1049Q42 1135 73 1205T163 1326T305 1405T492 1433H1302Z"/>
<glyph glyph-name="middot" unicode="&#xb7;" horiz-adv-x="546" vert-adv-y="1872" d="M124 593Q124 624 135 652T167 700T215 732T272 744Q303 744 331 732T379 700T411 652T423 593Q423 563 411 536T379 489T331 457T272 445Q242 445 215 456T168 488T136 536T124 593Z"/>
<glyph glyph-name="cedilla" unicode="&#xb8;" horiz-adv-x="614" vert-adv-y="1872" d="M172 -247Q178 -247 186 -250T205 -258T232 -266T269 -270Q311 -270 332 -254T354 -211Q354 -192 343 -179T312 -157T261 -142T193 -131L236 10H348L324 -70Q414 -90 454 -124T495 -213Q495 -245 479 -270T435 -314T366 -341T278 -351Q237 -351 200 -343T132 -320L149 -265Q155 -247 172 -247Z"/>
<glyph glyph-name="onesuperior" unicode="&#xb9;" horiz-adv-x="664" vert-adv-y="1872" d="M173 985H320V1425L324 1468L217 1380Q205 1371 191 1371Q168 1371 159 1385L120 1441L342 1631H450V985H580V900H173V985Z"/>
<glyph glyph-name="ordmasculine" unicode="&#xba;" horiz-adv-x="762" vert-adv-y="1872" d="M382 1449Q452 1449 508 1428T605 1366T667 1269T689 1140Q689 1068 667 1010T605 912T509 850T382 828Q311 828 254 849T157 911T94 1010T72 1140Q72 1211 94 1268T156 1366T254 1427T382 1449ZM382 934Q466 934 507 986T549 1139Q549 1239 508 1291T382 1343Q295 1343 254 1291T212 1139Q212 1039 253 987T382 934Z"/>
<glyph glyph-name="guillemotright" unicode="&#xbb;" horiz-adv-x="926" vert-adv-y="1872" d="M236 129L178 157Q150 170 150 198Q150 215 160 232L319 493Q332 517 346 529Q334 540 319 566L160 827Q150 844 150 861Q150 889 178 902L236 930L485 541V518L236 129ZM781 541V518L532 129L474 157Q446 170 446 198Q446 215 456 232L615 493Q628 517 642 529Q630 540 615 566L456 827Q446 844 446 861Q446 889 474 902L532 930L781 541Z"/>
<glyph glyph-name="onequarter" unicode="&#xbc;" horiz-adv-x="1424" vert-adv-y="1872" d="M1295 267H1404V202Q1404 191 1397 184T1377 176H1295V0H1186V176H880Q862 176 852 184T839 204L829 261L1171 729H1295V267ZM155 788H302V1228L306 1271L199 1183Q187 1174 173 1174Q150 1174 141 1188L102 1244L324 1434H432V788H562V703H155V788ZM1186 508Q1186 527 1187 549T1191 594L950 267H1186V508ZM434 53Q415 22 393 11T342 0H266L1084 1372Q1102 1401 1125 1417T1180 1433H1257L434 53Z"/>
<glyph glyph-name="onehalf" unicode="&#xbd;" horiz-adv-x="1424" vert-adv-y="1872" d="M1126 737Q1178 737 1220 722T1293 680T1339 615T1356 529Q1356 489 1344 455T1310 389T1262 329T1205 270L1043 105Q1066 111 1089 115T1134 119H1329Q1350 119 1361 108T1373 77V0H862V43Q862 56 867 70T884 96L1105 315Q1130 340 1152 366T1190 418T1215 471T1225 525Q1225 576 1195 603T1120 631Q1074 631 1046 607T1003 541Q995 527 986 519T959 511Q955 511 951 511T941 513L870 525Q885 631 954 684T1126 737ZM155 788H302V1228L306 1271L199 1183Q187 1174 173 1174Q150 1174 141 1188L102 1244L324 1434H432V788H562V703H155V788ZM390 53Q371 22 349 11T298 0H222L1040 1372Q1058 1401 1081 1417T1136 1433H1213L390 53Z"/>
<glyph glyph-name="threequarters" unicode="&#xbe;" horiz-adv-x="1426" vert-adv-y="1872" d="M1296 267H1405V202Q1405 191 1398 184T1378 176H1296V0H1187V176H881Q863 176 853 184T840 204L830 261L1172 729H1296V267ZM338 1440Q389 1440 430 1426T500 1386T546 1326T562 1252Q562 1124 443 1079Q509 1060 543 1021T578 920Q578 865 557 823T502 753T422 710T328 695Q271 695 229 707T157 744T105 805T68 888L123 912Q138 918 152 918Q181 918 192 895Q198 882 207 866T231 836T267 813T321 803Q352 803 375 813T415 838T439 874T447 915Q447 945 439 966T411 1002T359 1023T279 1030V1117Q366 1118 401 1148T437 1230Q437 1280 408 1306T331 1332Q283 1332 255 1309T214 1245Q206 1229 198 1222T174 1214Q170 1214 166 1214T156 1216L89 1228Q96 1281 118 1320T172 1386T247 1426T338 1440ZM1187 508Q1187 527 1188 549T1192 594L951 267H1187V508ZM439 53Q420 22 398 11T347 0H271L1089 1372Q1107 1401 1130 1417T1185 1433H1262L439 53Z"/>
<glyph glyph-name="questiondown" unicode="&#xbf;" horiz-adv-x="796" vert-adv-y="1872" d="M770 -212Q739 -241 702 -267T620 -313T524 -344T412 -356Q333 -356 266 -334T149 -271T72 -171T44 -37Q44 39 66 92T123 183T199 248T275 299T336 347T366 405L384 559H506L518 392V380Q518 336 496 305T439 249T365 201T291 147T234 77T211 -22Q211 -66 228 -100T274 -159T342 -197T427 -210Q488 -210 531 -195T605 -162T654 -129T685 -114Q699 -114 707 -120T723 -137L770 -212ZM324 903Q324 929 333 952T359 992T399 1019T448 1029Q474 1029 497 1019T537 992T563 952T573 903Q573 876 564 854T537 814T497 788T448 778Q422 778 399 787T360 814T334 853T324 903Z"/>
<glyph glyph-name="Agrave" unicode="&#xc0;" horiz-adv-x="1360" vert-adv-y="1872" d="M1353 0H1203Q1177 0 1161 13T1137 46L1003 392H360L226 46Q219 28 202 14T160 0H10L583 1433H780L1353 0ZM414 532H949L724 1115Q702 1169 681 1250Q670 1209 660 1175T639 1114L414 532ZM520 1782Q552 1782 568 1776T604 1749L815 1546H676Q655 1546 643 1549T614 1565L319 1782H520Z"/>
<glyph glyph-name="Aacute" unicode="&#xc1;" horiz-adv-x="1360" vert-adv-y="1872" d="M1353 0H1203Q1177 0 1161 13T1137 46L1003 392H360L226 46Q219 28 202 14T160 0H10L583 1433H780L1353 0ZM414 532H949L724 1115Q702 1169 681 1250Q670 1209 660 1175T639 1114L414 532ZM1021 1782L727 1566Q710 1554 697 1550T663 1546H525L736 1749Q746 1759 754 1765T772 1775T792 1780T820 1782H1021Z"/>
<glyph glyph-name="Acircumflex" unicode="&#xc2;" horiz-adv-x="1360" vert-adv-y="1872" d="M1353 0H1203Q1177 0 1161 13T1137 46L1003 392H360L226 46Q219 28 202 14T160 0H10L583 1433H780L1353 0ZM414 532H949L724 1115Q702 1169 681 1250Q670 1209 660 1175T639 1114L414 532ZM1006 1546H871Q859 1546 845 1549T822 1559L692 1654Q684 1658 680 1662Q672 1656 668 1654L538 1559Q529 1553 515 1550T489 1546H354L592 1756H768L1006 1546Z"/>
<glyph glyph-name="Atilde" unicode="&#xc3;" horiz-adv-x="1360" vert-adv-y="1872" d="M1353 0H1203Q1177 0 1161 13T1137 46L1003 392H360L226 46Q219 28 202 14T160 0H10L583 1433H780L1353 0ZM414 532H949L724 1115Q702 1169 681 1250Q670 1209 660 1175T639 1114L414 532ZM801 1663Q836 1663 854 1683T874 1741H972Q972 1698 961 1662T929 1600T877 1559T806 1544Q771 1544 739 1557T678 1585T622 1614T572 1627Q538 1627 520 1606T500 1548H400Q400 1591 411 1627T444 1690T497 1731T568 1746Q603 1746 635 1733T696 1705T751 1676T801 1663Z"/>
<glyph glyph-name="Adieresis" unicode="&#xc4;" horiz-adv-x="1360" vert-adv-y="1872" d="M1353 0H1203Q1177 0 1161 13T1137 46L1003 392H360L226 46Q219 28 202 14T160 0H10L583 1433H780L1353 0ZM414 532H949L724 1115Q702 1169 681 1250Q670 1209 660 1175T639 1114L414 532ZM578 1666Q578 1644 569 1625T545 1590T510 1567T466 1558Q445 1558 426 1566T391 1590T367 1624T358 1666Q358 1689 367 1709T391 1745T425 1769T466 1778Q489 1778 509 1769T545 1745T569 1710T578 1666ZM1004 1666Q1004 1644 995 1625T971 1590T936 1567T894 1558Q871 1558 851 1566T816 1590T793 1624T784 1666Q784 1689 792 1709T816 1745T851 1769T894 1778Q916 1778 936 1769T971 1745T995 1710T1004 1666Z"/>
<glyph glyph-name="Aring" unicode="&#xc5;" horiz-adv-x="1360" vert-adv-y="1872" d="M1353 0H1203Q1177 0 1161 13T1137 46L1003 392H360L226 46Q219 28 202 14T160 0H10L583 1433H780L1353 0ZM414 532H949L724 1115Q702 1169 681 1250Q670 1209 660 1175T639 1114L414 532ZM489 1659Q489 1698 504 1731T545 1787T605 1824T677 1837Q716 1837 750 1824T811 1788T853 1731T868 1659Q868 1621 853 1589T812 1534T751 1498T677 1485Q639 1485 605 1498T546 1534T505 1589T489 1659ZM578 1659Q578 1616 605 1588T679 1559Q724 1559 751 1587T779 1659Q779 1704 752 1732T679 1760Q632 1760 605 1732T578 1659Z"/>
<glyph glyph-name="AE" unicode="&#xc6;" horiz-adv-x="1858" vert-adv-y="1872" d="M733 1433H1754V1275H1005L1065 799H1624V647H1084L1145 158H1754V0H982L933 392H377L198 45Q187 25 169 13T124 0H-24L733 1433ZM450 532H915L821 1285Q809 1244 795 1210T766 1144L450 532Z"/>
<glyph glyph-name="Ccedilla" unicode="&#xc7;" horiz-adv-x="1370" vert-adv-y="1872" d="M643 -247Q649 -247 657 -250T676 -258T703 -266T740 -270Q782 -270 803 -254T825 -211Q825 -192 814 -179T783 -157T732 -142T664 -131L700 -13Q561 -1 448 57T256 211T133 435T90 716Q90 878 142 1013T290 1245T517 1395T810 1449Q968 1449 1082 1400T1286 1267L1223 1178Q1216 1168 1207 1162T1181 1155Q1168 1155 1154 1164T1119 1188T1072 1218T1008 1248T922 1271T809 1281Q694 1281 599 1242T434 1129T327 951T288 716Q288 582 326 477T431 300T589 189T785 151Q849 151 900 158T994 182T1075 222T1151 281Q1168 296 1184 296Q1200 296 1213 283L1289 200Q1206 103 1090 47T811 -15L795 -70Q885 -90 925 -124T966 -213Q966 -245 950 -270T906 -314T837 -341T749 -351Q708 -351 671 -343T603 -320L620 -265Q626 -247 643 -247Z"/>
<glyph glyph-name="Egrave" unicode="&#xc8;" horiz-adv-x="1162" vert-adv-y="1872" d="M1057 1433V1275H369V799H926V647H369V158H1057V0H174V1433H1057ZM468 1782Q500 1782 516 1776T552 1749L763 1546H624Q603 1546 591 1549T562 1565L267 1782H468Z"/>
<glyph glyph-name="Eacute" unicode="&#xc9;" horiz-adv-x="1162" vert-adv-y="1872" d="M1057 1433V1275H369V799H926V647H369V158H1057V0H174V1433H1057ZM969 1782L675 1566Q658 1554 645 1550T611 1546H473L684 1749Q694 1759 702 1765T720 1775T740 1780T768 1782H969Z"/>
<glyph glyph-name="Ecircumflex" unicode="&#xca;" horiz-adv-x="1162" vert-adv-y="1872" d="M1057 1433V1275H369V799H926V647H369V158H1057V0H174V1433H1057ZM954 1546H819Q807 1546 793 1549T770 1559L640 1654Q632 1658 628 1662Q620 1656 616 1654L486 1559Q477 1553 463 1550T437 1546H302L540 1756H716L954 1546Z"/>
<glyph glyph-name="Edieresis" unicode="&#xcb;" horiz-adv-x="1162" vert-adv-y="1872" d="M1057 1433V1275H369V799H926V647H369V158H1057V0H174V1433H1057ZM526 1666Q526 1644 517 1625T493 1590T458 1567T414 1558Q393 1558 374 1566T339 1590T315 1624T306 1666Q306 1689 315 1709T339 1745T373 1769T414 1778Q437 1778 457 1769T493 1745T517 1710T526 1666ZM952 1666Q952 1644 943 1625T919 1590T884 1567T842 1558Q819 1558 799 1566T764 1590T741 1624T732 1666Q732 1689 740 1709T764 1745T799 1769T842 1778Q864 1778 884 1769T919 1745T943 1710T952 1666Z"/>
<glyph glyph-name="Igrave" unicode="&#xcc;" horiz-adv-x="614" vert-adv-y="1872" d="M404 0H210V1433H404V0ZM405 1782Q437 1782 453 1776T489 1749L700 1546H561Q540 1546 528 1549T499 1565L204 1782H405Z"/>
<glyph glyph-name="Iacute" unicode="&#xcd;" horiz-adv-x="614" vert-adv-y="1872" d="M404 0H210V1433H404V0ZM906 1782L612 1566Q595 1554 582 1550T548 1546H410L621 1749Q631 1759 639 1765T657 1775T677 1780T705 1782H906Z"/>
<glyph glyph-name="Icircumflex" unicode="&#xce;" horiz-adv-x="614" vert-adv-y="1872" d="M404 0H210V1433H404V0ZM635 1546H500Q488 1546 474 1549T451 1559L321 1654Q313 1658 309 1662Q301 1656 297 1654L167 1559Q158 1553 144 1550T118 1546H-17L221 1756H397L635 1546Z"/>
<glyph glyph-name="Idieresis" unicode="&#xcf;" horiz-adv-x="614" vert-adv-y="1872" d="M404 0H210V1433H404V0ZM206 1666Q206 1644 197 1625T173 1590T138 1567T94 1558Q73 1558 54 1566T19 1590T-5 1624T-14 1666Q-14 1689 -5 1709T19 1745T53 1769T94 1778Q117 1778 137 1769T173 1745T197 1710T206 1666ZM632 1666Q632 1644 623 1625T599 1590T564 1567T522 1558Q499 1558 479 1566T444 1590T421 1624T412 1666Q412 1689 420 1709T444 1745T479 1769T522 1778Q544 1778 564 1769T599 1745T623 1710T632 1666Z"/>
<glyph glyph-name="Eth" unicode="&#xd0;" horiz-adv-x="1578" vert-adv-y="1872" d="M50 780H247V1433H782Q940 1433 1070 1382T1294 1236T1438 1009T1489 716Q1489 555 1438 423T1294 197T1071 52T782 0H247V666H50V780ZM1290 716Q1290 848 1254 952T1152 1128T992 1238T782 1276H441V780H822V666H441V157H782Q898 157 992 195T1152 304T1254 480T1290 716Z"/>
<glyph glyph-name="Ntilde" unicode="&#xd1;" horiz-adv-x="1512" vert-adv-y="1872" d="M274 1433Q300 1433 312 1427T341 1400L1171 320Q1168 346 1167 370T1166 418V1433H1336V0H1238Q1215 0 1200 8T1169 35L340 1114Q342 1089 343 1065T344 1021V0H174V1433H274V1433ZM901 1663Q936 1663 954 1683T974 1741H1072Q1072 1698 1061 1662T1029 1600T977 1559T906 1544Q871 1544 839 1557T778 1585T722 1614T672 1627Q638 1627 620 1606T600 1548H500Q500 1591 511 1627T544 1690T597 1731T668 1746Q703 1746 735 1733T796 1705T851 1676T901 1663Z"/>
<glyph glyph-name="Ograve" unicode="&#xd2;" horiz-adv-x="1596" vert-adv-y="1872" d="M1505 716Q1505 555 1454 421T1310 189T1087 39T798 -15Q640 -15 510 38T287 189T143 420T92 716Q92 877 143 1011T287 1243T510 1395T798 1449Q956 1449 1086 1395T1310 1244T1454 1012T1505 716ZM1306 716Q1306 848 1270 953T1168 1130T1008 1242T798 1281Q683 1281 589 1242T429 1131T326 953T290 716Q290 584 326 480T428 303T589 192T798 153Q914 153 1008 191T1168 302T1270 479T1306 716ZM640 1782Q672 1782 688 1776T724 1749L935 1546H796Q775 1546 763 1549T734 1565L439 1782H640Z"/>
<glyph glyph-name="Oacute" unicode="&#xd3;" horiz-adv-x="1596" vert-adv-y="1872" d="M1505 716Q1505 555 1454 421T1310 189T1087 39T798 -15Q640 -15 510 38T287 189T143 420T92 716Q92 877 143 1011T287 1243T510 1395T798 1449Q956 1449 1086 1395T1310 1244T1454 1012T1505 716ZM1306 716Q1306 848 1270 953T1168 1130T1008 1242T798 1281Q683 1281 589 1242T429 1131T326 953T290 716Q290 584 326 480T428 303T589 192T798 153Q914 153 1008 191T1168 302T1270 479T1306 716ZM1141 1782L847 1566Q830 1554 817 1550T783 1546H645L856 1749Q866 1759 874 1765T892 1775T912 1780T940 1782H1141Z"/>
<glyph glyph-name="Ocircumflex" unicode="&#xd4;" horiz-adv-x="1596" vert-adv-y="1872" d="M1505 716Q1505 555 1454 421T1310 189T1087 39T798 -15Q640 -15 510 38T287 189T143 420T92 716Q92 877 143 1011T287 1243T510 1395T798 1449Q956 1449 1086 1395T1310 1244T1454 1012T1505 716ZM1306 716Q1306 848 1270 953T1168 1130T1008 1242T798 1281Q683 1281 589 1242T429 1131T326 953T290 716Q290 584 326 480T428 303T589 192T798 153Q914 153 1008 191T1168 302T1270 479T1306 716ZM1126 1546H991Q979 1546 965 1549T942 1559L812 1654Q804 1658 800 1662Q792 1656 788 1654L658 1559Q649 1553 635 1550T609 1546H474L712 1756H888L1126 1546Z"/>
<glyph glyph-name="Otilde" unicode="&#xd5;" horiz-adv-x="1596" vert-adv-y="1872" d="M1505 716Q1505 555 1454 421T1310 189T1087 39T798 -15Q640 -15 510 38T287 189T143 420T92 716Q92 877 143 1011T287 1243T510 1395T798 1449Q956 1449 1086 1395T1310 1244T1454 1012T1505 716ZM1306 716Q1306 848 1270 953T1168 1130T1008 1242T798 1281Q683 1281 589 1242T429 1131T326 953T290 716Q290 584 326 480T428 303T589 192T798 153Q914 153 1008 191T1168 302T1270 479T1306 716ZM921 1663Q956 1663 974 1683T994 1741H1092Q1092 1698 1081 1662T1049 1600T997 1559T926 1544Q891 1544 859 1557T798 1585T742 1614T692 1627Q658 1627 640 1606T620 1548H520Q520 1591 531 1627T564 1690T617 1731T688 1746Q723 1746 755 1733T816 1705T871 1676T921 1663Z"/>
<glyph glyph-name="Odieresis" unicode="&#xd6;" horiz-adv-x="1596" vert-adv-y="1872" d="M1505 716Q1505 555 1454 421T1310 189T1087 39T798 -15Q640 -15 510 38T287 189T143 420T92 716Q92 877 143 1011T287 1243T510 1395T798 1449Q956 1449 1086 1395T1310 1244T1454 1012T1505 716ZM1306 716Q1306 848 1270 953T1168 1130T1008 1242T798 1281Q683 1281 589 1242T429 1131T326 953T290 716Q290 584 326 480T428 303T589 192T798 153Q914 153 1008 191T1168 302T1270 479T1306 716ZM698 1666Q698 1644 689 1625T665 1590T630 1567T586 1558Q565 1558 546 1566T511 1590T487 1624T478 1666Q478 1689 487 1709T511 1745T545 1769T586 1778Q609 1778 629 1769T665 1745T689 1710T698 1666ZM1124 1666Q1124 1644 1115 1625T1091 1590T1056 1567T1014 1558Q991 1558 971 1566T936 1590T913 1624T904 1666Q904 1689 912 1709T936 1745T971 1769T1014 1778Q1036 1778 1056 1769T1091 1745T1115 1710T1124 1666Z"/>
<glyph glyph-name="multiply" unicode="&#xd7;" horiz-adv-x="1160" vert-adv-y="1872" d="M1017 1014L673 670L1027 317L932 221L578 575L221 219L126 315L482 671L137 1016L232 1112L577 766L921 1110L1017 1014Z"/>
<glyph glyph-name="Oslash" unicode="&#xd8;" horiz-adv-x="1596" vert-adv-y="1872" d="M1505 716Q1505 555 1454 421T1310 189T1087 39T798 -15Q690 -15 596 9T423 82L323 -54Q301 -83 272 -96T214 -109H136L327 151Q215 249 154 393T92 716Q92 877 143 1011T287 1243T510 1395T798 1449Q913 1449 1013 1420T1196 1337L1278 1448Q1298 1475 1314 1486T1362 1498H1462L1290 1263Q1393 1165 1449 1026T1505 716ZM290 716Q290 581 327 476T434 297L1093 1196Q1033 1238 959 1259T798 1281Q683 1281 589 1242T429 1131T326 953T290 716ZM1306 716Q1306 842 1274 942T1181 1115L526 223Q642 153 798 153Q914 153 1008 191T1168 302T1270 479T1306 716Z"/>
<glyph glyph-name="Ugrave" unicode="&#xd9;" horiz-adv-x="1460" vert-adv-y="1872" d="M731 154Q820 154 890 184T1008 268T1082 397T1108 562V1433H1301V562Q1301 438 1262 332T1149 149T969 27T731 -17Q599 -17 493 27T313 148T200 332T160 562V1433H353V563Q353 473 378 398T452 269T571 185T731 154ZM570 1782Q602 1782 618 1776T654 1749L865 1546H726Q705 1546 693 1549T664 1565L369 1782H570Z"/>
<glyph glyph-name="Uacute" unicode="&#xda;" horiz-adv-x="1460" vert-adv-y="1872" d="M731 154Q820 154 890 184T1008 268T1082 397T1108 562V1433H1301V562Q1301 438 1262 332T1149 149T969 27T731 -17Q599 -17 493 27T313 148T200 332T160 562V1433H353V563Q353 473 378 398T452 269T571 185T731 154ZM1071 1782L777 1566Q760 1554 747 1550T713 1546H575L786 1749Q796 1759 804 1765T822 1775T842 1780T870 1782H1071Z"/>
<glyph glyph-name="Ucircumflex" unicode="&#xdb;" horiz-adv-x="1460" vert-adv-y="1872" d="M731 154Q820 154 890 184T1008 268T1082 397T1108 562V1433H1301V562Q1301 438 1262 332T1149 149T969 27T731 -17Q599 -17 493 27T313 148T200 332T160 562V1433H353V563Q353 473 378 398T452 269T571 185T731 154ZM1056 1546H921Q909 1546 895 1549T872 1559L742 1654Q734 1658 730 1662Q722 1656 718 1654L588 1559Q579 1553 565 1550T539 1546H404L642 1756H818L1056 1546Z"/>
<glyph glyph-name="Udieresis" unicode="&#xdc;" horiz-adv-x="1460" vert-adv-y="1872" d="M731 154Q820 154 890 184T1008 268T1082 397T1108 562V1433H1301V562Q1301 438 1262 332T1149 149T969 27T731 -17Q599 -17 493 27T313 148T200 332T160 562V1433H353V563Q353 473 378 398T452 269T571 185T731 154ZM628 1666Q628 1644 619 1625T595 1590T560 1567T516 1558Q495 1558 476 1566T441 1590T417 1624T408 1666Q408 1689 417 1709T441 1745T475 1769T516 1778Q539 1778 559 1769T595 1745T619 1710T628 1666ZM1054 1666Q1054 1644 1045 1625T1021 1590T986 1567T944 1558Q921 1558 901 1566T866 1590T843 1624T834 1666Q834 1689 842 1709T866 1745T901 1769T944 1778Q966 1778 986 1769T1021 1745T1045 1710T1054 1666Z"/>
<glyph glyph-name="Yacute" unicode="&#xdd;" horiz-adv-x="1258" vert-adv-y="1872" d="M726 570V0H533V570L8 1433H178Q204 1433 219 1420T245 1388L573 831Q593 796 606 765T631 704Q642 735 655 766T688 831L1015 1388Q1024 1404 1039 1418T1080 1433H1252L726 570ZM971 1782L677 1566Q660 1554 647 1550T613 1546H475L686 1749Q696 1759 704 1765T722 1775T742 1780T770 1782H971Z"/>
<glyph glyph-name="Thorn" unicode="&#xde;" horiz-adv-x="1222" vert-adv-y="1872" d="M387 272V0H194V1433H387V1169H617Q753 1169 853 1138T1020 1048T1118 908T1151 725Q1151 625 1116 542T1014 399T846 306T617 272H387ZM387 426H617Q700 426 763 448T870 509T935 604T957 725Q957 862 873 939T617 1016H387V426Z"/>
<glyph glyph-name="germandbls" unicode="&#xdf;" horiz-adv-x="1218" vert-adv-y="1872" d="M673 1454Q776 1454 851 1424T976 1348T1048 1246T1072 1140Q1072 1080 1051 1037T997 961T928 903T858 854T805 805T783 747Q783 708 809 682T876 634T962 588T1049 529T1115 443T1142 314Q1142 236 1114 175T1035 72T918 7T771 -16Q674 -16 595 18T456 107L497 175Q505 188 516 195T545 202Q563 202 583 188T630 157T695 126T786 112Q830 112 865 125T924 162T962 217T975 286Q975 342 947 377T877 437T786 484T695 534T625 604T597 712Q597 765 619 804T675 875T748 934T820 991T876 1056T899 1140Q899 1172 887 1204T846 1263T774 1305T666 1322Q598 1322 543 1301T448 1238T387 1133T365 986V0H186V992Q186 1096 220 1181T319 1327T473 1421T673 1454Z"/>
<glyph glyph-name="agrave" unicode="&#xe0;" horiz-adv-x="1014" vert-adv-y="1872" d="M890 0H811Q785 0 769 8T748 42L728 136Q688 100 650 72T570 24T481 -6T375 -16Q316 -16 265 0T175 50T115 133T92 253Q92 313 125 368T231 467T424 537T715 569V648Q715 766 665 826T515 887Q450 887 406 871T329 834T273 797T226 780Q208 780 195 789T173 813L141 870Q225 951 322 991T537 1031Q622 1031 688 1003T799 925T867 804T890 648V0ZM428 109Q475 109 514 118T587 145T653 188T715 245V456Q592 452 506 437T366 396T288 337T263 261Q263 221 276 192T311 145T363 118T428 109ZM428 1449Q461 1449 477 1439T507 1405L656 1163H554Q533 1163 520 1169T493 1191L259 1449H428Z"/>
<glyph glyph-name="aacute" unicode="&#xe1;" horiz-adv-x="1014" vert-adv-y="1872" d="M890 0H811Q785 0 769 8T748 42L728 136Q688 100 650 72T570 24T481 -6T375 -16Q316 -16 265 0T175 50T115 133T92 253Q92 313 125 368T231 467T424 537T715 569V648Q715 766 665 826T515 887Q450 887 406 871T329 834T273 797T226 780Q208 780 195 789T173 813L141 870Q225 951 322 991T537 1031Q622 1031 688 1003T799 925T867 804T890 648V0ZM428 109Q475 109 514 118T587 145T653 188T715 245V456Q592 452 506 437T366 396T288 337T263 261Q263 221 276 192T311 145T363 118T428 109ZM818 1449L585 1191Q571 1176 558 1170T523 1163H417L565 1405Q579 1428 595 1438T644 1449H818Z"/>
<glyph glyph-name="atilde" unicode="&#xe3;" horiz-adv-x="1014" vert-adv-y="1872" d="M890 0H811Q785 0 769 8T748 42L728 136Q688 100 650 72T570 24T481 -6T375 -16Q316 -16 265 0T175 50T115 133T92 253Q92 313 125 368T231 467T424 537T715 569V648Q715 766 665 826T515 887Q450 887 406 871T329 834T273 797T226 780Q208 780 195 789T173 813L141 870Q225 951 322 991T537 1031Q622 1031 688 1003T799 925T867 804T890 648V0ZM428 109Q475 109 514 118T587 145T653 188T715 245V456Q592 452 506 437T366 396T288 337T263 261Q263 221 276 192T311 145T363 118T428 109ZM638 1325Q674 1325 693 1346T714 1411H822Q822 1364 810 1325T774 1257T718 1214T645 1198Q610 1198 580 1212T522 1244T471 1275T424 1290Q352 1290 350 1202H239Q239 1250 252 1289T289 1357T346 1401T418 1417Q453 1417 483 1403T541 1371T591 1340T638 1325Z"/>
<glyph glyph-name="adieresis" unicode="&#xe4;" horiz-adv-x="1014" vert-adv-y="1872" d="M890 0H811Q785 0 769 8T748 42L728 136Q688 100 650 72T570 24T481 -6T375 -16Q316 -16 265 0T175 50T115 133T92 253Q92 313 125 368T231 467T424 537T715 569V648Q715 766 665 826T515 887Q450 887 406 871T329 834T273 797T226 780Q208 780 195 789T173 813L141 870Q225 951 322 991T537 1031Q622 1031 688 1003T799 925T867 804T890 648V0ZM428 109Q475 109 514 118T587 145T653 188T715 245V456Q592 452 506 437T366 396T288 337T263 261Q263 221 276 192T311 145T363 118T428 109ZM460 1289Q460 1266 451 1246T426 1211T390 1187T346 1178Q324 1178 304 1187T269 1211T244 1246T235 1289Q235 1312 244 1333T268 1369T304 1394T346 1403Q369 1403 389 1394T426 1370T451 1333T460 1289ZM819 1289Q819 1266 810 1246T786 1211T750 1187T706 1178Q683 1178 663 1187T627 1211T603 1246T594 1289Q594 1312 603 1333T627 1369T662 1394T706 1403Q729 1403 749 1394T785 1370T810 1333T819 1289Z"/>
<glyph glyph-name="aring" unicode="&#xe5;" horiz-adv-x="1014" vert-adv-y="1872" d="M890 0H811Q785 0 769 8T748 42L728 136Q688 100 650 72T570 24T481 -6T375 -16Q316 -16 265 0T175 50T115 133T92 253Q92 313 125 368T231 467T424 537T715 569V648Q715 766 665 826T515 887Q450 887 406 871T329 834T273 797T226 780Q208 780 195 789T173 813L141 870Q225 951 322 991T537 1031Q622 1031 688 1003T799 925T867 804T890 648V0ZM428 109Q475 109 514 118T587 145T653 188T715 245V456Q592 452 506 437T366 396T288 337T263 261Q263 221 276 192T311 145T363 118T428 109ZM328 1315Q328 1357 344 1391T387 1450T451 1488T527 1502Q568 1502 604 1489T669 1450T713 1391T729 1315Q729 1274 713 1240T669 1182T605 1145T527 1131Q487 1131 451 1144T388 1182T344 1240T328 1315ZM428 1315Q428 1271 455 1243T529 1215Q574 1215 601 1243T629 1315Q629 1360 602 1388T529 1416Q482 1416 455 1388T428 1315Z"/>
<glyph glyph-name="ae" unicode="&#xe6;" horiz-adv-x="1632" vert-adv-y="1872" d="M1166 1029Q1248 1029 1318 997T1440 904T1521 756T1551 556Q1551 515 1543 501T1510 486H883Q887 395 910 328T971 215T1062 148T1180 126Q1249 126 1295 140T1371 173T1421 205T1456 220Q1470 220 1479 216T1494 203L1541 142Q1508 102 1465 73T1372 24T1269 -4T1164 -14Q1047 -14 952 42T801 215Q774 153 731 109T634 37T522 -3T403 -16Q334 -16 277 1T179 54T115 142T92 267Q92 327 125 385T231 489T424 564T715 598V648Q715 766 665 829T515 892Q450 892 406 875T329 836T273 798T226 780Q208 780 195 789T173 813L141 870Q225 951 315 991T519 1031Q639 1031 712 980T818 838Q872 926 958 977T1166 1029ZM715 486Q592 481 506 464T366 418T288 354T263 276Q263 189 313 149T444 109Q501 109 550 127T636 182T694 274T715 403V486ZM1159 898Q1098 898 1050 878T968 818T913 723T885 597H1393Q1393 662 1378 717T1332 813T1259 875T1159 898Z"/>
<glyph glyph-name="egrave" unicode="&#xe8;" horiz-adv-x="1048" vert-adv-y="1872" d="M547 1029Q638 1029 715 999T848 911T935 769T967 576Q967 534 958 520T924 506H250Q252 410 276 339T342 221T442 150T572 126Q639 126 687 141T771 175T829 208T870 224Q892 224 904 207L954 142Q921 102 875 73T777 24T668 -4T557 -14Q452 -14 364 21T211 125T110 295T74 527Q74 633 106 725T200 884T349 990T547 1029ZM551 898Q422 898 348 824T256 617H807Q807 679 790 730T740 819T660 877T551 898ZM451 1449Q484 1449 500 1439T530 1405L679 1163H577Q556 1163 543 1169T516 1191L282 1449H451Z"/>
<glyph glyph-name="eacute" unicode="&#xe9;" horiz-adv-x="1048" vert-adv-y="1872" d="M547 1029Q638 1029 715 999T848 911T935 769T967 576Q967 534 958 520T924 506H250Q252 410 276 339T342 221T442 150T572 126Q639 126 687 141T771 175T829 208T870 224Q892 224 904 207L954 142Q921 102 875 73T777 24T668 -4T557 -14Q452 -14 364 21T211 125T110 295T74 527Q74 633 106 725T200 884T349 990T547 1029ZM551 898Q422 898 348 824T256 617H807Q807 679 790 730T740 819T660 877T551 898ZM841 1449L608 1191Q594 1176 581 1170T546 1163H440L588 1405Q602 1428 618 1438T667 1449H841Z"/>
<glyph glyph-name="ecircumflex" unicode="&#xea;" horiz-adv-x="1048" vert-adv-y="1872" d="M547 1029Q638 1029 715 999T848 911T935 769T967 576Q967 534 958 520T924 506H250Q252 410 276 339T342 221T442 150T572 126Q639 126 687 141T771 175T829 208T870 224Q892 224 904 207L954 142Q921 102 875 73T777 24T668 -4T557 -14Q452 -14 364 21T211 125T110 295T74 527Q74 633 106 725T200 884T349 990T547 1029ZM551 898Q422 898 348 824T256 617H807Q807 679 790 730T740 819T660 877T551 898ZM856 1169H737Q716 1169 697 1183L569 1309L552 1326L536 1309L407 1183Q401 1178 390 1174T367 1169H244L467 1433H633L856 1169Z"/>
<glyph glyph-name="edieresis" unicode="&#xeb;" horiz-adv-x="1048" vert-adv-y="1872" d="M547 1029Q638 1029 715 999T848 911T935 769T967 576Q967 534 958 520T924 506H250Q252 410 276 339T342 221T442 150T572 126Q639 126 687 141T771 175T829 208T870 224Q892 224 904 207L954 142Q921 102 875 73T777 24T668 -4T557 -14Q452 -14 364 21T211 125T110 295T74 527Q74 633 106 725T200 884T349 990T547 1029ZM551 898Q422 898 348 824T256 617H807Q807 679 790 730T740 819T660 877T551 898ZM483 1289Q483 1266 474 1246T449 1211T413 1187T369 1178Q347 1178 327 1187T292 1211T267 1246T258 1289Q258 1312 267 1333T291 1369T327 1394T369 1403Q392 1403 412 1394T449 1370T474 1333T483 1289ZM842 1289Q842 1266 833 1246T809 1211T773 1187T729 1178Q706 1178 686 1187T650 1211T626 1246T617 1289Q617 1312 626 1333T650 1369T685 1394T729 1403Q752 1403 772 1394T808 1370T833 1333T842 1289Z"/>
<glyph glyph-name="igrave" unicode="&#xec;" horiz-adv-x="512" vert-adv-y="1872" d="M344 1013V0H166V1013H344ZM418 1449Q451 1449 467 1439T497 1405L646 1163H544Q523 1163 510 1169T483 1191L249 1449H418Z"/>
<glyph glyph-name="iacute" unicode="&#xed;" horiz-adv-x="512" vert-adv-y="1872" d="M344 1013V0H166V1013H344ZM808 1449L575 1191Q561 1176 548 1170T513 1163H407L555 1405Q569 1428 585 1438T634 1449H808Z"/>
<glyph glyph-name="eth" unicode="&#xf0;" horiz-adv-x="1106" vert-adv-y="1872" d="M417 1065Q413 1072 411 1078T408 1091Q408 1113 431 1128L534 1200Q489 1220 439 1237T331 1268Q313 1273 301 1286T288 1323Q288 1338 293 1352L313 1414Q409 1398 499 1368T670 1290L837 1412L872 1355Q880 1342 880 1331Q880 1310 858 1294L761 1227Q821 1178 870 1116T955 977T1009 807T1029 604Q1029 461 998 347T906 153T753 30T541 -13Q443 -13 358 20T211 114T112 265T76 466Q76 560 107 643T196 790T336 890T523 927Q623 927 711 884T865 754Q845 890 787 985T634 1144L450 1009L417 1065ZM545 125Q616 125 673 152T771 233T835 370T861 564Q845 607 819 647T756 719T669 769T557 788Q482 788 426 763T331 695T274 592T254 464Q254 383 277 320T340 213T432 148T545 125Z"/>
<glyph glyph-name="ntilde" unicode="&#xf1;" horiz-adv-x="1112" vert-adv-y="1872" d="M146 0V1013H252Q290 1013 300 976L314 866Q380 939 461 984T650 1029Q733 1029 796 1002T902 924T967 802T989 645V0H811V645Q811 760 759 823T598 887Q519 887 451 849T324 746V0H146ZM675 1325Q711 1325 730 1346T751 1411H859Q859 1364 847 1325T811 1257T755 1214T682 1198Q647 1198 617 1212T559 1244T508 1275T461 1290Q389 1290 387 1202H276Q276 1250 289 1289T326 1357T383 1401T455 1417Q490 1417 520 1403T578 1371T628 1340T675 1325Z"/>
<glyph glyph-name="ograve" unicode="&#xf2;" horiz-adv-x="1112" vert-adv-y="1872" d="M556 1029Q667 1029 756 992T908 887T1004 723T1038 507Q1038 387 1005 291T909 127T757 23T556 -14Q445 -14 356 22T203 127T106 291T72 507Q72 626 106 722T203 887T355 992T556 1029ZM556 125Q706 125 780 225T854 506Q854 687 780 788T556 889Q480 889 424 863T331 788T275 668T256 506Q256 416 274 345T330 226T424 151T556 125ZM458 1449Q491 1449 507 1439T537 1405L686 1163H584Q563 1163 550 1169T523 1191L289 1449H458Z"/>
<glyph glyph-name="oacute" unicode="&#xf3;" horiz-adv-x="1112" vert-adv-y="1872" d="M556 1029Q667 1029 756 992T908 887T1004 723T1038 507Q1038 387 1005 291T909 127T757 23T556 -14Q445 -14 356 22T203 127T106 291T72 507Q72 626 106 722T203 887T355 992T556 1029ZM556 125Q706 125 780 225T854 506Q854 687 780 788T556 889Q480 889 424 863T331 788T275 668T256 506Q256 416 274 345T330 226T424 151T556 125ZM848 1449L615 1191Q601 1176 588 1170T553 1163H447L595 1405Q609 1428 625 1438T674 1449H848Z"/>
</font>
</defs>
</svg>
